<svg id="圖層_1" data-name="圖層 1" xmlns="http://www.w3.org/2000/svg" viewBox="0 0 230.36 766.22"><defs><style>.cls-1,.cls-5{fill:#ff9f1c;stroke:#ff9f1c;}.cls-1,.cls-2,.cls-3,.cls-4,.cls-5,.cls-6,.cls-7,.cls-8{stroke-linecap:round;stroke-linejoin:round;}.cls-1{stroke-width:2px;}.cls-2,.cls-4,.cls-6,.cls-8{fill:#ade8f4;}.cls-2,.cls-6{stroke:#fff;}.cls-2{stroke-width:0.75px;}.cls-3,.cls-7{fill:#00a878;stroke:#00a878;}.cls-3,.cls-4{stroke-width:2px;}.cls-4,.cls-8{stroke:#ade8f4;}.cls-5{stroke-width:2px;}.cls-6{stroke-width:0.75px;}.cls-7,.cls-8{stroke-width:2px;}</style></defs><g id="Group_2835" data-name="Group 2835"><g id="Group_2834" data-name="Group 2834"><g id="Group_1172" data-name="Group 1172"><g id="圖層_2" data-name="圖層 2"><g id="圖層_1-2" data-name="圖層 1"><rect id="Rectangle_572" data-name="Rectangle 572" class="cls-1" x="614.91" y="401.92" width="53.33" height="29.22" transform="translate(-682.65 529.01) rotate(-41.55)"/><rect id="Rectangle_573" data-name="Rectangle 573" class="cls-2" x="624.08" y="417.45" width="7.9" height="9.66" transform="translate(-689.87 521.47) rotate(-41.55)"/><rect id="Rectangle_574" data-name="Rectangle 574" class="cls-2" x="634.52" y="408.2" width="7.9" height="9.66" transform="translate(-681.11 526.07) rotate(-41.55)"/><rect id="Rectangle_575" data-name="Rectangle 575" class="cls-2" x="644.95" y="398.95" width="7.9" height="9.66" transform="translate(-672.35 530.66) rotate(-41.55)"/></g></g><g id="圖層_1-2-2" data-name="圖層 1-2"><path id="Path_153" data-name="Path 153" class="cls-3" d="M700.61,557l-20.78,45.65,49.92-4.83Z" transform="translate(-567.82 -1.39)"/></g><g id="圖層_2-2" data-name="圖層 2-2"><g id="圖層_1-3" data-name="圖層 1-3"><path id="Path_152" data-name="Path 152" class="cls-4" d="M777.09,722.28l-14.93-9.57a10,10,0,0,0-10-.45l-15.82,8.18a10,10,0,0,0-5.39,8.42l-.81,17.73a10,10,0,0,0,4.6,8.88L749.68,765a10,10,0,0,0,10,.45l15.75-8.15a10,10,0,0,0,5.39-8.43l.81-17.72A10,10,0,0,0,777.09,722.28Z" transform="translate(-567.82 -1.39)"/></g></g></g><g id="Group_1174" data-name="Group 1174"><g id="圖層_2-3" data-name="圖層 2-3"><g id="圖層_1-4" data-name="圖層 1-4"><rect id="Rectangle_572-2" data-name="Rectangle 572-2" class="cls-5" x="754.05" y="-5.91" width="29.22" height="53.33" transform="translate(67.41 776.64) rotate(-81.55)"/><rect id="Rectangle_573-2" data-name="Rectangle 573-2" class="cls-6" x="750.72" y="10.12" width="9.66" height="7.9" transform="translate(62.83 757.97) rotate(-81.55)"/><rect id="Rectangle_574-2" data-name="Rectangle 574-2" class="cls-6" x="764.52" y="12.17" width="9.66" height="7.9" transform="translate(72.57 773.37) rotate(-81.55)"/><rect id="Rectangle_575-2" data-name="Rectangle 575-2" class="cls-6" x="778.31" y="14.22" width="9.66" height="7.9" transform="translate(82.31 788.76) rotate(-81.55)"/></g></g><g id="圖層_1-5" data-name="圖層 1-5"><path id="Path_153-2" data-name="Path 153-2" class="cls-7" d="M699,156.25,650.7,169.68l35.79,35.13Z" transform="translate(-567.82 -1.39)"/></g><g id="圖層_2-4" data-name="圖層 2-4"><g id="圖層_1-6" data-name="圖層 1-6"><path id="Path_152-2" data-name="Path 152-2" class="cls-8" d="M621.54,321.1l-2.26-17.59a10,10,0,0,0-6.08-7.94l-16.43-6.86a10,10,0,0,0-9.92,1.28l-14.1,10.78a10,10,0,0,0-3.84,9.22l2.26,17.59a10,10,0,0,0,6.07,7.94l16.37,6.83a10,10,0,0,0,9.92-1.29l14.09-10.78A10,10,0,0,0,621.54,321.1Z" transform="translate(-567.82 -1.39)"/></g></g></g></g></g></svg>