<svg id="圖層_1" data-name="圖層 1" xmlns="http://www.w3.org/2000/svg" viewBox="0 0 28.03 27.97"><defs><style>.cls-1{fill:#f5cb29;}</style></defs><path id="Polygon_15-2" data-name="Polygon 15-2" class="cls-1" d="M243.12,342.07a1,1,0,0,1,1.34-.45,1.08,1.08,0,0,1,.45.45l3.68,7.39a1,1,0,0,0,.72.54l7.9,1.41a1,1,0,0,1,.8,1.16,1,1,0,0,1-.25.51l-5.65,6.08a1,1,0,0,0-.26.82l1.17,8.37a1,1,0,0,1-.86,1.12.93.93,0,0,1-.59-.1l-7.09-3.69a1,1,0,0,0-.93,0l-7.08,3.69a1,1,0,0,1-1.35-.43.93.93,0,0,1-.1-.59l1.17-8.37a1,1,0,0,0-.26-.82l-5.67-6.09a1,1,0,0,1,.06-1.41,1,1,0,0,1,.5-.25l7.9-1.41a1,1,0,0,0,.71-.54Z" transform="translate(-230 -341.52)"/></svg>