<svg xmlns="http://www.w3.org/2000/svg" viewBox="0 0 236.43 140.77"><defs><style>.cls-1{fill:#fff;}.cls-2{fill:#f4911c;}.cls-3{fill:#00a878;}.cls-4{fill:none;stroke:#00a878;stroke-miterlimit:10;}</style></defs><g id="圖層_2" data-name="圖層 2"><g id="圖層_1-2" data-name="圖層 1"><polygon class="cls-1" points="82.49 71.49 83.61 65.44 75.1 65.44 73.42 74.51 73.42 74.51 73.06 76.42 101.44 76.42 102.36 71.49 82.49 71.49"/><polygon class="cls-1" points="90.22 84.19 96.93 83.17 97.07 78.3 78.26 81.17 72.51 81.17 66.58 113.09 66.58 113.09 65.89 116.81 81.17 116.81 82.09 111.88 75.31 111.88 80.18 85.73 81.4 85.54 85.66 116.86 95.37 116.86 92.37 97.86 98.14 97.86 99.72 89.35 91.03 89.35 90.22 84.19"/><polygon class="cls-1" points="68.81 85.15 68.9 84.64 57.83 84.64 58.93 78.73 63.06 78.73 63.08 78.62 70.02 78.62 70.94 73.69 63.99 73.69 65.85 63.73 57.34 63.73 55.48 73.69 48.8 73.69 47.88 78.62 50.44 78.62 43.34 116.81 51.85 116.81 56.91 89.57 59.47 89.57 54.41 116.81 62.92 116.81 68.81 85.15 68.81 85.15"/><path class="cls-1" d="M108.89,31.39l.92-4.93H68.38l.41-2.22h34.76l.92-4.92h0l.9-4.82.45-2.46h0l1.35-7.24h0l.09-.5H85.6L86.28.62H77.77L77.09,4.3H72.5l0-.1H64v.1h0l-.91,4.93h0l-1,5.38L61.63,17h0l-4.16,22.4H69.36L67.94,46H62.12L63,41.26H55.65L51.79,51H87.3v-.08h2.18l-.26-9.7H81.87L81,46H76.45l1.42-6.67H96.63l-1.91,10.3h-3l-.91,4.93h11.54l0-.26h0L106,34.94h0l.1-.51H66.89l.57-3ZM97.79,9.23,97.26,12H71.06l.52-2.81ZM96.35,17l-.44,2.36H69.7L70.14,17Z"/><polygon class="cls-1" points="50.98 14.33 51.64 10.75 54.41 10.75 55.25 6.21 55.78 3.36 34.28 3.36 34.91 0 26.4 0 25.77 3.36 4.27 3.36 3.35 8.29 3.35 8.29 2.84 11.07 5.28 11.07 4.69 14.33 12.15 14.33 11.81 16.18 4.67 16.18 3.96 20.1 11.08 20.1 10.67 22.32 2.17 22.32 1.46 26.23 22.64 26.23 23.35 22.32 17.84 22.32 18.25 20.1 23.4 20.1 24.1 16.18 18.98 16.18 19.32 14.33 24.12 14.33 24.83 10.41 11.47 10.41 11.87 8.29 46.35 8.29 45.96 10.41 34.44 10.41 34.65 9.43 27.11 9.43 26.05 14.33 29.12 14.33 33.59 14.33 35.64 14.33 35.3 16.18 25.71 16.18 24.98 20.1 34.57 20.1 34.16 22.32 31.85 22.32 32.05 21.23 24.75 21.23 23.84 26.16 23.85 26.16 23.84 26.23 50.19 26.23 50.2 26.16 50.26 26.16 51.17 21.23 44.01 21.23 43.8 22.32 41.32 22.32 41.73 20.1 51.33 20.1 52.05 16.18 42.46 16.18 42.81 14.33 50.98 14.33"/><path class="cls-1" d="M39.94,27.55H3.58L0,46.81H6.22l-3.08,8.4H14.52L16.1,46.7h11l-1.56,8.39H36.93l0-8.28H43.9l3.58-19.26H39.94Zm-.73,3.92L39,32.81H10.14l.25-1.34ZM9.41,36.73H38.23l-.16.89H9.24ZM8.28,42.78l.23-1.24H37.34l-.23,1.24Z"/><polygon class="cls-1" points="234.31 71.33 235.22 66.4 214.82 66.4 215.42 63.19 206.91 63.19 206.31 66.4 196.01 66.4 188.42 66.4 187.5 66.4 185 75.5 178.08 75.5 176.5 84.01 182.66 84.01 181.12 89.6 175.46 89.6 173.88 98.11 178.78 98.11 173.74 116.43 182.25 116.43 194.66 71.33 234.31 71.33"/><path class="cls-1" d="M228.91,102.14l-2.08,9.64h-1.15L233.3,75.5H196.78l-10.67,40.93h6.56l.4-1.53H215.4l1.83-8h-5.91l-.7,3h-1.73l1.24-5.53h7.68L220.62,91h-7.46l.65-2.92H221l1.27-4.92h-19L202,88h6.72L208.07,91H201l-3.36,13.48h7.45L203.81,110h-9.45l7.69-29.54h22.69l-7.62,36.28H233.3l3.13-14.57Zm-15.23-6.26-.75,3.64h-1.69l.81-3.64Zm-9,3.64.91-3.64H207l-.82,3.64Z"/><path class="cls-2" d="M167.89,106,165,107.2l-8.84-42.29-11-.08,7.8-13.62,8.49-5.6H144.07l-42,71.69,8.86.14,11.28.24.91-4.93-5.4-.11,26.6-46.44,10.42,50.44.19-.07v0L166,112.12h0l3-1.2ZM147,49.74a1.33,1.33,0,0,1,0,2.65,1.33,1.33,0,1,1,0-2.65Z"/><path class="cls-3" d="M124.26,79.08h-5.85A1.59,1.59,0,0,1,117,76.72l7-12.52a1.58,1.58,0,0,1,1.39-.82h5.85a1.58,1.58,0,0,1,1.38,2.36l-7,12.53A1.59,1.59,0,0,1,124.26,79.08Z"/><path class="cls-4" d="M131.68,64.15a4.16,4.16,0,0,1-3,7.77"/><rect class="cls-2" x="121.21" y="61.11" width="5.14" height="24.75" rx="2.57" transform="translate(99.94 -68.48) rotate(49.77)"/><rect class="cls-2" x="117.89" y="76.21" width="5.14" height="17.1" rx="2.57" transform="translate(267.16 71.68) rotate(139.77)"/><path class="cls-1" d="M50.56,131.57l1.12-.84c.66.54,1.29,1.12,1.9,1.73a9.32,9.32,0,0,1,1.33,1.66l-1.23.94A7.83,7.83,0,0,0,52.9,134c-2.35.12-5.26.25-8.74.37l-.09-1.44.84,0,1,0a19.56,19.56,0,0,0,1.77-3.41l1.64.53q-.73,1.38-1.68,2.82l4.07-.16C51.44,132.37,51.06,132,50.56,131.57Zm-5.22,9.16v-5.28h8v5.26H51.8v-.47h-5v.49Zm6.46-3.93h-5v2.07h5Z"/><path class="cls-1" d="M67.82,134,67,135a7.16,7.16,0,0,0-1.72-1.23l.77-1A7.51,7.51,0,0,1,67.82,134Zm.22-3.07L67.18,132a6.89,6.89,0,0,0-1.68-1.31l.82-1A7.67,7.67,0,0,1,68,130.88Zm-1.25,9.72-1.26-.72A33.49,33.49,0,0,0,67,136l1.13.71C67.69,138.21,67.24,139.49,66.79,140.6Zm2.18-5v-1.65a6.11,6.11,0,0,1-.59,1.53,4.84,4.84,0,0,0-.76-.37,4.4,4.4,0,0,0,.55-1.55l.8.18v-.47l-1.09.08-.09-.85.72,0c.19-.22.3-.37.34-.42a6.71,6.71,0,0,0-.95-.86l.45-.69.09.06.1.06a10.77,10.77,0,0,0,.54-1.11l.8.4-.44.7-.31.48.13.11a.52.52,0,0,1,.13.12l.18-.27.19-.28.14-.23.71.4v-.2h2.87v.2l.32-.41.15.11a11.91,11.91,0,0,0,.55-1.1l.82.39c-.07.1-.2.29-.38.58l-.43.63a1.56,1.56,0,0,1,.26.25c.34-.47.54-.77.61-.9l.79.43c-.57.7-1,1.2-1.28,1.52l.65,0c-.07-.17-.13-.29-.17-.37l.68-.28a5.22,5.22,0,0,1,.55,1.42l-.72.31a1.91,1.91,0,0,0,0-.29l-.47,0v2.35h-.92v-1.65a6.09,6.09,0,0,1-.55,1.5,2.76,2.76,0,0,0-.64-.35v.4H71v-1.81h2.3v1.18a6,6,0,0,0,.41-1.31l.78.18v-.45l-1,.06-.08-.85.56,0s.07-.09.15-.17a1.92,1.92,0,0,1,.17-.19,4.9,4.9,0,0,0-.73-.77v.14H70.61V131c-.46.6-.83,1.05-1.1,1.36H70l-.11-.3.6-.23a5.29,5.29,0,0,1,.42,1.39l-.65.24,0-.33-.38,0v2.39Zm1.1,2.57h6a2.38,2.38,0,0,1-.07.51,3.17,3.17,0,0,1-.72,1.75,2.14,2.14,0,0,1-1.13.32c-.38,0-1,0-1.85,0a2.13,2.13,0,0,0-.39-1c.56.05,1.16.08,1.82.08a.93.93,0,0,0,.5-.09,1.24,1.24,0,0,0,.34-.62H69.85c0,.15-.08.27-.11.34l-1.29-.17A15.82,15.82,0,0,0,69,137h5.12v-.37H68.68v-.81h6.81v2H70.17Zm.85-3.31-.72.21a12.29,12.29,0,0,0-.29-1.31l.68-.15C70.74,134.08,70.85,134.5,70.92,134.84Zm2.33-3.07v.65H71v-.65ZM71,133.34v-.64h2.29v.64Zm2.17-3.61v.68H71v-.68Zm-.75,5.1v-.53h-.6v.53Zm3-1.08.72-.21a8.77,8.77,0,0,1,.52,1.51l-.73.25A7.94,7.94,0,0,0,75.39,133.75Z"/><path class="cls-1" d="M91.54,129.8h1.63q0,.22,0,.69c0,.3,0,.6.07.91s.11.71.21,1.21.24,1,.38,1.43a11,11,0,0,0,.63,1.49,9.58,9.58,0,0,0,.92,1.49,7.92,7.92,0,0,0,3,2.39,4.1,4.1,0,0,0-1.12,1.22,9.36,9.36,0,0,1-4.72-6,10.07,10.07,0,0,1-4.44,6,5.1,5.1,0,0,0-1.2-1.14,8.42,8.42,0,0,0,1.3-.87,8.79,8.79,0,0,0,1-1,7.16,7.16,0,0,0,.8-1.11c.23-.41.43-.78.59-1.12a7.76,7.76,0,0,0,.41-1.16c.12-.44.22-.81.28-1.1s.11-.64.16-1.06.07-.72.08-.91,0-.45,0-.79S91.54,129.84,91.54,129.8Z"/><path class="cls-1" d="M109.7,132.77l1.36.35a13.58,13.58,0,0,1-1.25,4.12l-1.37-.51A11.54,11.54,0,0,0,109.7,132.77Zm4.13,6.41h1.83a.57.57,0,0,0,.59-.38,6.72,6.72,0,0,0,.22-1.66,3.9,3.9,0,0,0,1.4.6,5.13,5.13,0,0,1-.57,2.26,1.75,1.75,0,0,1-1.52.61h-2.1a2.55,2.55,0,0,1-1.56-.37,1.9,1.9,0,0,1-.5-1.37,15,15,0,0,1-2.22,1.29,6.35,6.35,0,0,0-.93-1.12,16.64,16.64,0,0,0,3.14-1.9v-4.91h1.52v3.62a18.45,18.45,0,0,0,4.16-5.61l1.44.56a22.26,22.26,0,0,1-5.6,6.95v.74a.88.88,0,0,0,.12.57A.94.94,0,0,0,113.83,139.18Zm1.72-7.62-.94,1.16c-.89-.73-1.85-1.45-2.86-2.16l.92-1Q114.05,130.41,115.55,131.56Zm1.18,2.63,1.29-.61a15.34,15.34,0,0,1,1.07,1.84,11.7,11.7,0,0,1,.73,1.73l-1.36.69A14.53,14.53,0,0,0,116.73,134.19Z"/><path class="cls-1" d="M132.28,129.56l1.33.4a24.08,24.08,0,0,1-1,2.41v8.36h-1.32v-6c-.17.26-.41.59-.72,1a7.25,7.25,0,0,0-.71-1.55,9.81,9.81,0,0,0,1.36-2.06A15,15,0,0,0,132.28,129.56Zm9.07,3.37h-.57a15.39,15.39,0,0,1-1.08,4.75,5,5,0,0,0,1.7,1.88,4.13,4.13,0,0,0-.84,1.13,6.07,6.07,0,0,1-1.56-1.77,6.94,6.94,0,0,1-1.81,1.77,5.38,5.38,0,0,0-.85-1,5,5,0,0,0,.48-.33h-2.29v.86H133.3v-5.32h1.21V133h-1.38V131.7h1.38v-2h1.33v2h1.26V133h-1.26v1.95h.92a2.11,2.11,0,0,0-.18-.24l-.11-.15a11.63,11.63,0,0,0,1.54-5l1.27.21c-.12.7-.24,1.36-.38,2h2.45Zm-5.59,5.28v-2.06h-1.23v2.06Zm1.26-2.88v3.93a6.23,6.23,0,0,0,1.36-1.62,13.25,13.25,0,0,1-.71-2.54,4.16,4.16,0,0,1-.42.66A2.64,2.64,0,0,0,137,135.33Zm2.56-2.4h-1a.93.93,0,0,0-.06.18c0,.08-.05.13-.06.17a16.38,16.38,0,0,0,.57,2.79A15.74,15.74,0,0,0,139.58,132.93Z"/><path class="cls-1" d="M159.26,131.37h3.39c0,.33,0,.55,0,.66q-.12,4.17-.27,5.81a4.67,4.67,0,0,1-.52,2.09,1.78,1.78,0,0,1-1.15.67,14.9,14.9,0,0,1-1.88,0,3,3,0,0,0-.47-1.39c.51,0,1.11.07,1.79.07a.74.74,0,0,0,.53-.2,4,4,0,0,0,.4-1.73c.09-1,.17-2.53.23-4.7h-2.57a9.46,9.46,0,0,1-1,1.9,7.08,7.08,0,0,0-.93-.68v5.62h-3.21v.86h-1.29v-8.9h1.36a10.72,10.72,0,0,0,.34-1.94l1.56.21c-.19.57-.39,1.14-.62,1.73h1.86v1.93a11.72,11.72,0,0,0,1.62-3.85l1.36.3A14.8,14.8,0,0,1,159.26,131.37Zm-3.81,3.28v-1.94h-1.91v1.94Zm-1.91,3.59h1.91v-2.35h-1.91Zm7.12-1.39-1.22.75a24.67,24.67,0,0,0-1.67-2.78l1.12-.63A27.73,27.73,0,0,1,160.66,136.85Z"/><path class="cls-1" d="M173.72,138.56h10.41V140H173.72Zm.67-7.88h9.1v1.44h-9.1Zm.83,3.83h7.32V136h-7.32Z"/><path class="cls-1" d="M197.47,129.58l1.36.43a19.23,19.23,0,0,1-1.19,2.56v8.16H196.3v-6c-.14.18-.39.47-.73.87a7.51,7.51,0,0,0-.76-1.49,10.52,10.52,0,0,0,1.51-2A13.12,13.12,0,0,0,197.47,129.58Zm8.62,5.73v1.4H203v4h-1.44v-4h-3.23v-1.4h3.23v-2.06h-1.46a9,9,0,0,1-.74,1.55,6.9,6.9,0,0,0-1.24-.68,10.39,10.39,0,0,0,1.41-3.93l1.39.29c-.06.29-.17.75-.35,1.37h1v-2.16H203v2.16h2.51v1.4H203v2.06Z"/><path class="cls-1" d="M227.68,136.31v1.09h-1.24v2.09H225V139h-2.17v.37a1.8,1.8,0,0,1-.14.79,1,1,0,0,1-.49.41,6.93,6.93,0,0,1-2.13.2,4,4,0,0,0-.46-1.12l1.47,0a.27.27,0,0,0,.3-.3V139h-3.65v-1h3.65v-.57h-4.75v-1.09h4.75v-.52h-3.56v-1h3.56v-.53h-3.25v-2.38h3.25v-.49H216.9v-1.12h4.47v-.78h1.45v.78h4.59v1.12h-4.59v.49h3.41v2.38h-3.41v.53h3.62v1.48Zm-8.19-2.91h1.88v-.57h-1.88Zm5.27-.57h-1.94v.57h1.94Zm-1.94,3v.52H225v-.52ZM225,138v-.57h-2.17V138Z"/></g></g></svg>