<svg xmlns="http://www.w3.org/2000/svg" viewBox="0 0 1920 267.22"><defs><style>.cls-1{fill:#ade8f4;}</style></defs><g id="圖層_2" data-name="圖層 2"><g id="圖層_1-2" data-name="圖層 1"><path class="cls-1" d="M1851.22,26.19c-29.53-34.92-73-34.92-102.5,0C1731.24,46.87,1708.64,62,1679.81,62s-51.46-15.15-68.94-35.83c-29.53-34.92-73-34.92-102.58,0-17.49,20.68-40.13,35.83-69,35.83s-51.47-15.15-69-35.83c-29.53-34.92-73.06-34.92-102.59,0-17.48,20.68-40.13,35.83-69,35.83s-51.48-15.15-69-35.83c-29.53-34.92-73.06-34.92-102.59,0C1009.78,46.87,987.13,62,958.3,62s-51.47-15.15-69-35.83c-29.53-34.92-73.06-34.92-102.59,0C769.26,46.87,746.61,62,717.79,62s-51.48-15.15-69-35.83c-29.53-34.92-73.06-34.92-102.59,0C528.75,46.87,506.1,62,477.27,62s-51.48-15.15-69-35.83c-29.54-34.92-73.06-34.92-102.6,0C288.23,46.87,265.58,62,236.75,62s-51.48-15.15-69-35.83c-29.53-34.92-71.18-34.92-100.71,0C49.59,46.87,28.84,62,0,62v205.2H1920V62C1895.28,62,1868.71,46.87,1851.22,26.19Z"/></g></g></svg>