<svg xmlns="http://www.w3.org/2000/svg" viewBox="0 0 98.04 13.97"><defs><style>.cls-1{fill:#ffd21c;}</style></defs><g id="圖層_2" data-name="圖層 2"><g id="圖層_1-2" data-name="圖層 1"><path id="多角形_19" data-name="多角形 19" class="cls-1" d="M6.12.55A1,1,0,0,1,7.46.11a1,1,0,0,1,.45.44L9.35,3.44a1,1,0,0,0,.72.54l3.14.56A1,1,0,0,1,14,5.7a1,1,0,0,1-.25.51L11.48,8.67a1,1,0,0,0-.25.81l.46,3.35A1,1,0,0,1,10.84,14a1,1,0,0,1-.6-.11L7.48,12.42a1,1,0,0,0-.92,0L3.8,13.85a1,1,0,0,1-1.35-.42,1,1,0,0,1-.11-.6l.47-3.35a1,1,0,0,0-.26-.82L.27,6.21a1,1,0,0,1,0-1.42,1,1,0,0,1,.5-.25L4,4a1,1,0,0,0,.72-.54Z"/><path id="多角形_19-2" data-name="多角形 19-2" class="cls-1" d="M27.12.55A1,1,0,0,1,28.46.11a1,1,0,0,1,.45.44l1.44,2.89a1,1,0,0,0,.72.54l3.14.56A1,1,0,0,1,35,5.7a1,1,0,0,1-.25.51L32.48,8.67a1,1,0,0,0-.25.81l.46,3.35A1,1,0,0,1,31.84,14a1,1,0,0,1-.6-.11l-2.76-1.43a1,1,0,0,0-.92,0L24.8,13.85a1,1,0,0,1-1.35-.42,1,1,0,0,1-.11-.6l.47-3.35a1,1,0,0,0-.26-.82L21.27,6.21a1,1,0,0,1,.05-1.42,1,1,0,0,1,.5-.25L25,4a1,1,0,0,0,.72-.54Z"/><path id="多角形_19-3" data-name="多角形 19-3" class="cls-1" d="M48.12.55A1,1,0,0,1,49.46.11a1,1,0,0,1,.45.44l1.44,2.89a1,1,0,0,0,.72.54l3.14.56A1,1,0,0,1,56,5.7a1,1,0,0,1-.25.51L53.48,8.67a1,1,0,0,0-.25.81l.46,3.35A1,1,0,0,1,52.84,14a1,1,0,0,1-.6-.11l-2.76-1.43a1,1,0,0,0-.92,0L45.8,13.85a1,1,0,0,1-1.35-.42,1,1,0,0,1-.11-.6l.47-3.35a1,1,0,0,0-.26-.82L42.27,6.21a1,1,0,0,1,0-1.42,1,1,0,0,1,.5-.25L46,4a1,1,0,0,0,.72-.54Z"/><path id="多角形_19-4" data-name="多角形 19-4" class="cls-1" d="M69.12.55A1,1,0,0,1,70.46.11a1,1,0,0,1,.45.44l1.44,2.89a1,1,0,0,0,.72.54l3.14.56A1,1,0,0,1,77,5.7a1,1,0,0,1-.25.51L74.48,8.67a1,1,0,0,0-.25.81l.46,3.35A1,1,0,0,1,73.84,14a1,1,0,0,1-.6-.11l-2.76-1.43a1,1,0,0,0-.92,0L66.8,13.85a1,1,0,0,1-1.35-.42,1,1,0,0,1-.11-.6l.47-3.35a1,1,0,0,0-.26-.82L63.27,6.21a1,1,0,0,1,0-1.42,1,1,0,0,1,.5-.25L67,4a1,1,0,0,0,.72-.54Z"/><path id="多角形_19-5" data-name="多角形 19-5" class="cls-1" d="M90.12.55A1,1,0,0,1,91.46.11a1,1,0,0,1,.45.44l1.44,2.89a1,1,0,0,0,.72.54l3.14.56A1,1,0,0,1,98,5.7a1,1,0,0,1-.25.51L95.48,8.67a1,1,0,0,0-.25.81l.46,3.35A1,1,0,0,1,94.84,14a1,1,0,0,1-.6-.11l-2.76-1.43a1,1,0,0,0-.92,0L87.8,13.85a1,1,0,0,1-1.35-.42,1,1,0,0,1-.11-.6l.47-3.35a1,1,0,0,0-.26-.82L84.27,6.21a1,1,0,0,1,0-1.42,1,1,0,0,1,.5-.25L88,4a1,1,0,0,0,.72-.54Z"/></g></g></svg>