<svg xmlns="http://www.w3.org/2000/svg" xmlns:xlink="http://www.w3.org/1999/xlink" viewBox="0 0 77.71 77.71"><defs><style>.cls-1{fill:url(#未命名漸層_2);}.cls-2{fill:url(#未命名漸層_2-2);}.cls-3{fill:url(#未命名漸層_4);}.cls-4{fill:none;stroke:#ffc840;stroke-miterlimit:10;}.cls-5{fill:url(#未命名漸層_4-2);}.cls-6{fill:url(#未命名漸層_5);}</style><linearGradient id="未命名漸層_2" x1="-1136.56" y1="303.81" x2="-1135.27" y2="302.6" gradientTransform="matrix(77.71, 0, 0, -77.71, 88323.63, 23613.12)" gradientUnits="userSpaceOnUse"><stop offset="0.2" stop-color="#ffd357"/><stop offset="0.47" stop-color="#ff9f1c"/><stop offset="0.78" stop-color="#fecb23"/></linearGradient><linearGradient id="未命名漸層_2-2" x1="-1135.97" y1="304.2" x2="-1134.05" y2="302.27" gradientTransform="matrix(65.82, 0, 0, -65.82, 74762.51, 20017.06)" xlink:href="#未命名漸層_2"/><linearGradient id="未命名漸層_4" x1="-1135.61" y1="303.83" x2="-1134.61" y2="303.83" gradientTransform="matrix(63.32, 0, 0, -51.79, 71910.33, 15767.02)" gradientUnits="userSpaceOnUse"><stop offset="0.2" stop-color="#ffd357"/><stop offset="0.47" stop-color="#ff9f1c"/></linearGradient><linearGradient id="未命名漸層_4-2" x1="-1129.46" y1="305.11" x2="-1129.3" y2="303.78" gradientTransform="matrix(30.11, 0, 0, -40.46, 34046.57, 12349.78)" xlink:href="#未命名漸層_4"/><linearGradient id="未命名漸層_5" x1="-1129.33" y1="305.01" x2="-1129.32" y2="303.42" gradientTransform="matrix(30.11, 0, 0, -40.47, 34046.6, 12347.71)" gradientUnits="userSpaceOnUse"><stop offset="0.21" stop-color="#ffd56e"/><stop offset="1" stop-color="#ffc91d"/></linearGradient></defs><g id="圖層_2" data-name="圖層 2"><g id="圖層_1-2" data-name="圖層 1"><g id="グループ_2326" data-name="グループ 2326"><g id="グループ_2322" data-name="グループ 2322"><circle id="楕円形_466" data-name="楕円形 466" class="cls-1" cx="38.85" cy="38.85" r="38.85"/><g id="グループ_2321" data-name="グループ 2321"><circle id="楕円形_467" data-name="楕円形 467" class="cls-2" cx="38.85" cy="39.31" r="32.91"/><path id="パス_1420" data-name="パス 1420" class="cls-3" d="M35.62,11.16a33,33,0,0,1,30.3,46.08A33,33,0,0,0,11.66,19.66a32.58,32.58,0,0,0-3.18,5.75A32.94,32.94,0,0,1,35.62,11.16Z"/><circle id="楕円形_468" data-name="楕円形 468" class="cls-4" cx="38.85" cy="38.85" r="32.91"/></g></g><g id="グループ_2325" data-name="グループ 2325"><g id="グループ_2323" data-name="グループ 2323"><path id="パス_1421" data-name="パス 1421" class="cls-5" d="M28.21,60.75a3.18,3.18,0,0,1-3.14-3.15V23.44a3.18,3.18,0,0,1,3.14-3.15H38.46q14.63,0,14.63,10a10.26,10.26,0,0,1-1.47,5.29A7.89,7.89,0,0,1,47.75,39a.15.15,0,0,0-.16.12v0c0,.11,0,.16.1.16a10.18,10.18,0,0,1,5.45,3.26,9.5,9.5,0,0,1,2,6.3q0,5.86-4.33,8.89t-11.31,3Zm5-24.39a.32.32,0,0,0,.28.37.14.14,0,0,0,.09,0h4.33q3.73,0,5.55-1.39a4.6,4.6,0,0,0,1.81-3.9,4.21,4.21,0,0,0-1.79-3.79A10.17,10.17,0,0,0,38,26.48H33.55a.32.32,0,0,0-.37.28.14.14,0,0,0,0,.09Zm0,17.77a.34.34,0,0,0,.28.38h5.32q8.55,0,8.54-6.14a4.65,4.65,0,0,0-2.13-4.27q-2.13-1.34-6.41-1.34H33.55c-.25,0-.37.15-.37.43Z"/></g><g id="グループ_2324" data-name="グループ 2324"><path id="パス_1422" data-name="パス 1422" class="cls-6" d="M28.21,57.42a3.18,3.18,0,0,1-3.14-3.15V20.11A3.18,3.18,0,0,1,28.21,17H38.46q14.63,0,14.63,10a10.23,10.23,0,0,1-1.47,5.28,7.87,7.87,0,0,1-3.87,3.42.14.14,0,0,0-.16.12v0c0,.11,0,.16.1.16a10.12,10.12,0,0,1,5.45,3.26,9.48,9.48,0,0,1,2,6.3q0,5.86-4.33,8.88t-11.31,3Zm5-24.4a.33.33,0,0,0,.28.38h4.42q3.73,0,5.55-1.39a4.6,4.6,0,0,0,1.81-3.9,4.2,4.2,0,0,0-1.79-3.79A10.08,10.08,0,0,0,38,23.15H33.55a.31.31,0,0,0-.37.28.14.14,0,0,0,0,.09Zm0,17.78a.32.32,0,0,0,.28.37h5.32q8.55,0,8.54-6.14a4.67,4.67,0,0,0-2.13-4.27c-1.43-.89-3.56-1.33-6.41-1.33H33.55c-.25,0-.37.14-.37.43Z"/></g></g></g></g></g></svg>