<svg xmlns="http://www.w3.org/2000/svg" viewBox="0 0 28.01 28.01"><defs><style>.cls-1{fill:#d9d9d9;fill-rule:evenodd;}</style></defs><g id="圖層_2" data-name="圖層 2"><g id="圖層_1-2" data-name="圖層 1"><path id="パス_149" data-name="パス 149" class="cls-1" d="M3.5,8.75V24.5h21V8.75ZM22.75,3.5h3.5A1.66,1.66,0,0,1,28,5.05a.67.67,0,0,1,0,.2v21A1.65,1.65,0,0,1,26.45,28a.67.67,0,0,1-.2,0H1.75A1.65,1.65,0,0,1,0,26.45V5.25A1.66,1.66,0,0,1,1.55,3.5h3.7V1.75A1.66,1.66,0,0,1,6.8,0H7A1.66,1.66,0,0,1,8.75,1.55a.67.67,0,0,1,0,.2V3.5h10.5V1.75a1.75,1.75,0,0,1,3.5,0ZM21,21H17.5V17.5H21Zm-5.25,0h-3.5V17.5h3.5ZM21,15.75H17.5v-3.5H21Zm-5.25,0h-3.5v-3.5h3.5ZM10.5,21H7V17.5h3.5Z"/></g></g></svg>