<svg xmlns="http://www.w3.org/2000/svg" xmlns:xlink="http://www.w3.org/1999/xlink" viewBox="0 0 155.4 132.3"><defs><style>.cls-1{stroke:#fff;fill:url(#未命名漸層_6);}</style><linearGradient id="未命名漸層_6" x1="-1768.86" y1="671.5" x2="-1768.15" y2="670.81" gradientTransform="matrix(154.4, 0, 0, -131.3, 273145.46, 88180.64)" gradientUnits="userSpaceOnUse"><stop offset="0" stop-color="#f59f60"/><stop offset="1" stop-color="#db6907"/></linearGradient></defs><g id="圖層_2" data-name="圖層 2"><g id="圖層_1-2" data-name="圖層 1"><path id="パス_1335" data-name="パス 1335" class="cls-1" d="M37.41,131.8l2-1.26c9.68-5.8,19.34-11.63,29-17.38a2.81,2.81,0,0,0,1.64-2.85q-.18-5.34,0-10.69a3.3,3.3,0,0,0-1.68-3.23c-9.28-6.29-18-13.33-25-22.08-2.8-3.45-5-7.34-7.6-11a2.8,2.8,0,0,0-1.51-1.24C21.18,60.09,13,52,7.5,40.62a74.56,74.56,0,0,1-7-32.46A7.57,7.57,0,0,1,8,.52h.06c.48,0,1,0,1.45,0L146.44.5c2.92,0,5.43.79,7.06,3.25a7.9,7.9,0,0,1,1.4,4c0,13.32-2.58,26-9.51,37.58-5.46,9.1-13.21,15.08-24,16.68a2.34,2.34,0,0,0-1.54.93c-5.83,11-14.48,19.38-24,27-3,2.38-6.1,4.55-9.21,6.73A2.49,2.49,0,0,0,85.41,99c.06,3.8.08,7.61,0,11.41a2.4,2.4,0,0,0,1.42,2.41q14.93,8.88,29.8,17.85c.45.27.89.57,1.7,1.1ZM31.26,45.08V16H16.59A54.15,54.15,0,0,0,22.3,35.78a21.68,21.68,0,0,0,9,9.3Zm92.95-29V44.88c8.62-3.39,14-18.47,14.51-28.79Z"/></g></g></svg>