<svg xmlns="http://www.w3.org/2000/svg" xmlns:xlink="http://www.w3.org/1999/xlink" viewBox="0 0 44 44"><defs><style>.cls-1{fill:none;}.cls-2{clip-path:url(#clip-path);}.cls-3{fill:#d9d9d9;}</style><clipPath id="clip-path" transform="translate(4 9.06)"><path class="cls-1" d="M16.65,25.94V21.76c0-3.4,6.79-5.11,10.18-5.11S37,18.36,37,21.76v4.18ZM0,25.94V21.3C0,17,8.64,14.8,13,14.8a22.21,22.21,0,0,1,4.38.52C13.56,17.42,13,20.18,13,21.76v4.18ZM22.2,8.3a4.62,4.62,0,1,1,4.63,4.64A4.61,4.61,0,0,1,22.2,8.3ZM7.4,5.51A5.54,5.54,0,1,1,13,11.08,5.54,5.54,0,0,1,7.4,5.51Z"/></clipPath></defs><g id="圖層_2" data-name="圖層 2"><g id="圖層_1-2" data-name="圖層 1"><g id="グループ_871" data-name="グループ 871"><path id="Shape-2" class="cls-1" d="M16.65,25.94V21.76c0-3.4,6.79-5.11,10.18-5.11S37,18.36,37,21.76v4.18ZM0,25.94V21.3C0,17,8.64,14.8,13,14.8a22.21,22.21,0,0,1,4.38.52C13.56,17.42,13,20.18,13,21.76v4.18ZM22.2,8.3a4.62,4.62,0,1,1,4.63,4.64A4.61,4.61,0,0,1,22.2,8.3ZM7.4,5.51A5.54,5.54,0,1,1,13,11.08,5.54,5.54,0,0,1,7.4,5.51Z" transform="translate(4 9.06)"/><g class="cls-2"><g id="マスクグループ_162" data-name="マスクグループ 162"><g id="Icon_Fill" data-name="Icon Fill"><rect id="BG" class="cls-3" width="44" height="44"/></g></g></g></g></g></g></svg>