<svg xmlns="http://www.w3.org/2000/svg" xmlns:xlink="http://www.w3.org/1999/xlink" viewBox="0 0 390 96.88"><defs><style>.cls-1{fill:url(#未命名漸層_3);}.cls-2{opacity:0.5;}.cls-3,.cls-5,.cls-6,.cls-7,.cls-8{fill:none;}.cls-4{fill:#fff;}.cls-5,.cls-6,.cls-7,.cls-8{stroke:#fff;}.cls-5{stroke-width:2px;}.cls-7,.cls-8{stroke-miterlimit:4;}.cls-7{stroke-width:2px;}.cls-8{stroke-width:1px;}</style><linearGradient id="未命名漸層_3" x1="-1565.65" y1="1114" x2="-1565.67" y2="1111.22" gradientTransform="matrix(390, 0, 0, -96.88, 610801.31, 107922.4)" gradientUnits="userSpaceOnUse"><stop offset="0" stop-color="#b1d660"/><stop offset="1" stop-color="#00a878"/></linearGradient></defs><g id="圖層_2" data-name="圖層 2"><g id="圖層_1-2" data-name="圖層 1"><path id="パス_1524" data-name="パス 1524" class="cls-1" d="M0,0H390V93.33s-52.2-8-194.66,0S0,93.33,0,93.33Z"/><g id="多角形_16" data-name="多角形 16" class="cls-2"><path class="cls-3" d="M104.5,50.47l13.06,10.21-2.3,16.42L99.91,83.3,86.85,73.09l2.3-16.42Z"/><path class="cls-4" d="M91,58.11l-2,14.1L100.23,81l13.18-5.32,2-14.1-11.22-8.78L91,58.11m-1.84-1.44,15.35-6.2,13.06,10.21-2.3,16.42L99.91,83.3,86.85,73.09Z"/></g><g id="多角形_18" data-name="多角形 18" class="cls-2"><path class="cls-4" d="M47.53,84.63l-3.34-1-.84-3.36,2.49-2.4,3.34,1L50,82.22Z"/><path class="cls-4" d="M46.12,79.05l-1.64,1.59L45,82.86l2.21.63,1.65-1.59-.55-2.22-2.22-.63m-.56-2.27L50,78.05l1.12,4.5-3.33,3.21-4.46-1.28L42.22,80Z"/></g><g id="多角形_19" data-name="多角形 19" class="cls-2"><path class="cls-4" d="M72.83,48.63l-7.89-2.26-2-7.91,5.88-5.65,7.88,2.27,2,7.9Z"/><path class="cls-4" d="M69.11,34l-5,4.84,1.71,6.76,6.77,1.94,5-4.83-1.71-6.77L69.11,34m-.56-2.27,9,2.58,2.29,9.05-6.73,6.46-9-2.59-2.28-9Z"/></g><g id="多角形_24" data-name="多角形 24" class="cls-2"><path class="cls-3" d="M32,20.2a.35.35,0,0,1,.48.06.31.31,0,0,1,.06.16l1.55,10.83a.34.34,0,0,1-.28.39.38.38,0,0,1-.18,0L23.48,27.5a.34.34,0,0,1-.18-.44.24.24,0,0,1,.1-.14Z"/><path class="cls-4" d="M31.75,21.71,25,27l8,3.23-1.21-8.52m.63-1.56a.34.34,0,0,1,.2.27l1.55,10.83a.33.33,0,0,1-.46.36L23.48,27.5a.34.34,0,0,1-.08-.58L32,20.2A.35.35,0,0,1,32.38,20.15Z"/></g><g id="グループ_1078" data-name="グループ 1078" class="cls-2"><g id="長方形_1594" data-name="長方形 1594"><rect class="cls-3" x="30.57" y="50.16" width="11.15" height="5.74" transform="translate(-21.67 25.18) rotate(-30)"/><rect class="cls-5" x="30.9" y="50.49" width="10.48" height="5.07" transform="translate(-21.67 25.18) rotate(-30)"/></g><g id="長方形_1595" data-name="長方形 1595"><rect class="cls-4" x="32.93" y="52.77" width="2.03" height="3.04" transform="translate(-22.6 24.25) rotate(-30)"/><rect class="cls-6" x="33.1" y="52.94" width="1.69" height="2.7" transform="translate(-22.6 24.25) rotate(-30)"/></g><g id="長方形_1596" data-name="長方形 1596"><rect class="cls-4" x="35.27" y="51.42" width="2.03" height="3.04" transform="translate(-21.61 25.24) rotate(-30)"/><rect class="cls-6" x="35.44" y="51.59" width="1.69" height="2.7" transform="translate(-21.61 25.24) rotate(-30)"/></g><g id="長方形_1597" data-name="長方形 1597"><rect class="cls-4" x="37.62" y="50.07" width="2.03" height="3.04" transform="translate(-20.62 26.23) rotate(-30)"/><rect class="cls-6" x="37.78" y="50.24" width="1.69" height="2.7" transform="translate(-20.62 26.23) rotate(-30)"/></g></g><g id="多角形_20" data-name="多角形 20" class="cls-2"><path class="cls-3" d="M370.55,44l4.57,3.57-.81,5.74-5.37,2.18-4.57-3.57.8-5.74Z"/><path class="cls-4" d="M366.23,47l-.62,4.42,3.51,2.74,4.14-1.67.62-4.42-3.52-2.74L366.23,47m-1.06-.82L370.55,44l4.57,3.57-.81,5.74-5.37,2.18-4.57-3.57Z"/></g><g id="多角形_17" data-name="多角形 17" class="cls-2"><path class="cls-4" d="M281.29,60.61l-21.92-6.28-5.53-22.08,16.39-15.79,21.92,6.28,5.53,22.08Z"/><path class="cls-4" d="M270.56,17.76,255.13,32.62l5.2,20.78L281,59.32l15.42-14.87-5.2-20.78-20.63-5.91m-.65-2.6,23.21,6.65L299,45.19,281.62,61.91l-23.21-6.65-5.85-23.38Z"/></g><g id="多角形_21" data-name="多角形 21" class="cls-2"><path class="cls-4" d="M365.81,27.76l-9.22-5.32a.18.18,0,0,1-.1-.16.19.19,0,0,1,.1-.17l9.24-5.37a.19.19,0,0,1,.29.17l0,10.69a.17.17,0,0,1-.1.16A.18.18,0,0,1,365.81,27.76Z"/><path class="cls-4" d="M365.93,16.91l-9.24,5.37h0l9.21,5.31h0l0-10.68h0m.19-.33a.35.35,0,0,1,.19.33l0,10.69a.39.39,0,0,1-.58.33l-9.22-5.32a.39.39,0,0,1,0-.67l9.24-5.36A.37.37,0,0,1,366.12,16.58Z"/></g><g id="多角形_22" data-name="多角形 22" class="cls-2"><path class="cls-4" d="M337.42,75.49,322,83a.19.19,0,0,1-.2,0,.19.19,0,0,1-.08-.17l1.14-17.31a.21.21,0,0,1,.11-.16.21.21,0,0,1,.19,0l14.33,9.77a.22.22,0,0,1,.09.18A.23.23,0,0,1,337.42,75.49Z"/><path class="cls-4" d="M323,65.54h0l-1.14,17.31,15.47-7.54L323,65.54h0m-.17-.34a.39.39,0,0,1,.39,0L337.55,75a.39.39,0,0,1-.05.67L322,83.2a.38.38,0,0,1-.55-.38l1.14-17.3A.38.38,0,0,1,322.83,65.2Z"/></g><g id="多角形_23" data-name="多角形 23" class="cls-2"><path class="cls-3" d="M262.13,68.33a.38.38,0,0,1,.54.07.42.42,0,0,1,.08.18l1.5,11a.38.38,0,0,1-.33.43.44.44,0,0,1-.2,0l-10.23-4.13a.4.4,0,0,1-.21-.51.45.45,0,0,1,.12-.16Z"/><path class="cls-4" d="M261.78,70.08l-6.62,5.22,7.76,3.14-1.14-8.36m.73-1.8a.39.39,0,0,1,.24.3l1.5,11a.39.39,0,0,1-.53.41l-10.23-4.13a.39.39,0,0,1-.09-.66l8.73-6.89A.38.38,0,0,1,262.51,68.28Z"/></g><g id="グループ_1079" data-name="グループ 1079" class="cls-2"><g id="長方形_1594-2" data-name="長方形 1594-2"><rect class="cls-3" x="199.78" y="6.33" width="10.43" height="20.26" transform="translate(106.57 197.03) rotate(-66)"/><rect class="cls-7" x="200.16" y="6.71" width="9.66" height="19.48" transform="translate(106.57 197.03) rotate(-66)"/></g><g id="長方形_1595-2" data-name="長方形 1595-2"><rect class="cls-4" x="198.03" y="12.74" width="5.52" height="3.68" transform="translate(105.79 192.08) rotate(-66)"/><rect class="cls-8" x="198.22" y="12.93" width="5.14" height="3.3" transform="translate(105.79 192.08) rotate(-66)"/></g><g id="長方形_1596-2" data-name="長方形 1596-2"><rect class="cls-4" x="202.51" y="14.74" width="5.52" height="3.68" transform="translate(106.63 197.36) rotate(-66)"/><rect class="cls-8" x="202.7" y="14.93" width="5.14" height="3.3" transform="translate(106.63 197.36) rotate(-66)"/></g><g id="長方形_1597-2" data-name="長方形 1597-2"><rect class="cls-4" x="207" y="16.74" width="5.52" height="3.68" transform="translate(107.46 202.64) rotate(-66)"/><rect class="cls-8" x="207.19" y="16.93" width="5.14" height="3.3" transform="translate(107.46 202.64) rotate(-66)"/></g></g></g></g></svg>