<svg xmlns="http://www.w3.org/2000/svg" viewBox="0 0 59.36 59.26"><defs><style>.cls-1{fill:#a3eaf5;stroke:#fff;stroke-width:3px;}</style></defs><g id="圖層_2" data-name="圖層 2"><g id="圖層_1-2" data-name="圖層 1"><path id="パス_699" data-name="パス 699" class="cls-1" d="M57.86,31.44C56.27,34,54.09,35.12,51,35.37c-8.46.66-14.41,6.61-15.53,15-.1.7-.13,1.4-.21,2.1a5.64,5.64,0,0,1-5.53,5.3c-3,0-5.16-2.32-5.7-5.5-.5-2.9-1-6-2.34-8.51-2.9-5.44-7.86-8.07-14-8.52C3.85,35,1.56,32.88,1.5,29.72S3.83,24.27,7.74,24A17,17,0,0,0,24,7.72c.22-3.76,2.3-6.1,5.48-6.22s5.4,2.22,5.79,6.17c.94,9.68,7.06,15.69,16.8,16.33,2.95.19,4.62,1.81,5.76,4.28Z"/></g></g></svg>