<svg xmlns="http://www.w3.org/2000/svg" viewBox="0 0 28.03 27.97"><defs><style>.cls-1{fill:#d9d9d9;}</style></defs><g id="圖層_2" data-name="圖層 2"><g id="圖層_1-2" data-name="圖層 1"><path id="多角形_3" data-name="多角形 3" class="cls-1" d="M13.12.55A1,1,0,0,1,14.46.11a1,1,0,0,1,.45.44l3.68,7.39a1,1,0,0,0,.72.54l7.9,1.41A1,1,0,0,1,28,11.05a1.08,1.08,0,0,1-.26.51l-5.65,6.08a1,1,0,0,0-.26.82L23,26.83a1,1,0,0,1-1.45,1l-7.09-3.69a1,1,0,0,0-.92,0L6.47,27.85a1,1,0,0,1-1.45-1l1.17-8.37a1,1,0,0,0-.26-.82L.27,11.55a1,1,0,0,1,0-1.41,1,1,0,0,1,.5-.25l7.9-1.41a1,1,0,0,0,.72-.54Z"/></g></g></svg>