<svg xmlns="http://www.w3.org/2000/svg" viewBox="0 0 286 36"><defs><style>.cls-1{fill:#abadb2;}.cls-2,.cls-4,.cls-6{fill:none;}.cls-3{fill:#fff;}.cls-4{stroke:#abadb2;stroke-width:3px;}.cls-5{fill:#b1d660;}.cls-6{stroke:#fff;stroke-linecap:round;stroke-linejoin:round;stroke-width:2px;}</style></defs><g id="圖層_2" data-name="圖層 2"><g id="圖層_1-2" data-name="圖層 1"><g id="グループ_3070" data-name="グループ 3070"><g id="グループ_2477" data-name="グループ 2477"><g id="グループ_2149" data-name="グループ 2149"><circle id="楕円形_2" data-name="楕円形 2" class="cls-1" cx="143" cy="18" r="18"/><g id="icon_content_create_24px" data-name="icon content create 24px"><rect id="Boundary" class="cls-2" x="135" y="10" width="16" height="16"/><path id="_Color" data-name=" Color" class="cls-3" d="M140.08,23H138V20.92l6.14-6.15,2.09,2.09Zm6.74-6.74h0l-2.08-2.08,1-1a.56.56,0,0,1,.78,0l1.3,1.3a.56.56,0,0,1,0,.78l-1,1Z"/></g></g></g><line id="線_204" data-name="線 204" class="cls-4" x1="158.5" y1="18.5" x2="253.5" y2="18.5"/><line id="線_205" data-name="線 205" class="cls-4" x1="33.5" y1="18.5" x2="128.5" y2="18.5"/><g id="グループ_2476" data-name="グループ 2476"><g id="グループ_2150" data-name="グループ 2150"><g id="グループ_822" data-name="グループ 822"><circle id="楕円形_1" data-name="楕円形 1" class="cls-5" cx="18" cy="18" r="18"/></g><path id="パス_668" data-name="パス 668" class="cls-6" d="M11.14,17l5.31,5.34,8.41-8.6"/></g></g><g id="グループ_2478" data-name="グループ 2478"><g id="グループ_2148" data-name="グループ 2148"><circle id="楕円形_3" data-name="楕円形 3" class="cls-1" cx="268" cy="18" r="18"/></g><g id="Options"><path id="合体_1" data-name="合体 1" class="cls-3" d="M262.5,16a1.5,1.5,0,1,1-1.5,1.5A1.5,1.5,0,0,1,262.5,16Zm6,0a1.5,1.5,0,1,1-1.5,1.5A1.5,1.5,0,0,1,268.5,16Zm6,0a1.5,1.5,0,1,1-1.5,1.5A1.5,1.5,0,0,1,274.5,16Z"/></g></g></g></g></g></svg>