<svg xmlns="http://www.w3.org/2000/svg" viewBox="0 0 30 30.01"><defs><style>.cls-1{fill:#d9d9d9;}</style></defs><g id="圖層_2" data-name="圖層 2"><g id="圖層_1-2" data-name="圖層 1"><path id="trash-alt-solid" class="cls-1" d="M2.14,27.19A3,3,0,0,0,5.36,30H24.64a3,3,0,0,0,3.22-2.81V7.5H2.14Zm18.22-15a1.08,1.08,0,0,1,1.21-.93,1.06,1.06,0,0,1,.93.93V25.31a1.08,1.08,0,0,1-1.21.93,1.06,1.06,0,0,1-.93-.93Zm-6.43,0a1.08,1.08,0,0,1,1.21-.93,1.06,1.06,0,0,1,.93.93V25.31a1.08,1.08,0,0,1-1.21.93,1.06,1.06,0,0,1-.93-.93Zm-6.43,0a1,1,0,0,1,1.07-.94,1,1,0,0,1,1.07.94V25.31a1,1,0,0,1-1.07.94,1,1,0,0,1-1.07-.94ZM28.93,1.88h-8L20.26.78A1.61,1.61,0,0,0,18.82,0H11.17A1.61,1.61,0,0,0,9.74.78l-.63,1.1h-8A1,1,0,0,0,0,2.81V4.69a1,1,0,0,0,1.07.94H28.93A1,1,0,0,0,30,4.69V2.81A1,1,0,0,0,28.93,1.88Z"/></g></g></svg>