<svg xmlns="http://www.w3.org/2000/svg" width="57.301" height="55.039" viewBox="0 0 57.301 55.039">
  <g id="圖層_2" data-name="圖層 2" transform="translate(0.099 0.026)">
    <g id="圖層_1" data-name="圖層 1">
      <path id="Path_152" data-name="Path 152" d="M54,18.7,43,4.79a10,10,0,0,0-9.3-3.68L16.08,3.69A10,10,0,0,0,8.24,9.9L1.7,26.4a10,10,0,0,0,1.46,9.89l11,13.91a10,10,0,0,0,9.29,3.68L41,51.3a10,10,0,0,0,7.84-6.21l6.53-16.5A10,10,0,0,0,54,18.7Z" fill="#ade8f4" stroke="#ade8f4" stroke-linecap="round" stroke-linejoin="round" stroke-width="2"/>
    </g>
  </g>
</svg>
