<svg xmlns="http://www.w3.org/2000/svg" viewBox="0 0 307.61 153.3"><defs><style>.cls-1,.cls-3,.cls-6{fill:#00a878;}.cls-1,.cls-2,.cls-3{stroke:#00a878;}.cls-1,.cls-10,.cls-11,.cls-12,.cls-13,.cls-2,.cls-3,.cls-5,.cls-9{stroke-linecap:round;stroke-linejoin:round;}.cls-1{stroke-width:3px;}.cls-2{fill:none;}.cls-2,.cls-3,.cls-9{stroke-width:2px;}.cls-4,.cls-5{fill:#61ecff;}.cls-5{stroke:#61ecff;}.cls-7,.cls-9{fill:#92ca5c;}.cls-12,.cls-8{fill:#f4911c;}.cls-9{stroke:#92ca5c;}.cls-10{fill:#ff9f1c;}.cls-10,.cls-11,.cls-12{stroke:#ff9f1c;}.cls-10,.cls-11,.cls-12,.cls-13{stroke-width:0.75px;}.cls-11{fill:#e28617;}.cls-13{fill:#ade8f4;stroke:#ade8f4;}</style></defs><g id="圖層_2" data-name="圖層 2"><g id="圖層_1-2" data-name="圖層 1"><polygon class="cls-1" points="161.51 112.38 152.71 129.9 140.13 129.9 137.82 118.35 131.78 114.45 131.78 136.34 137.82 140.24 140.13 151.8 152.71 151.8 161.51 134.28 186.63 97.85 171.53 97.85 161.51 112.38"/><polygon class="cls-1" points="105.88 97.73 97.56 97.85 97.56 114.25 120.09 128.79 119.89 106.78 105.88 97.73"/><polyline class="cls-2" points="189.18 38.28 189.18 14.09 198.37 14.09 198.84 13.59 192.55 7.66 192.55 1.77 172.42 1.77 139.71 15.57 117.8 38.16"/><polygon class="cls-3" points="198.84 14.21 189.18 14.21 189.23 38.28 196.32 38.28 198.84 35.6 198.84 14.21"/><polygon class="cls-4" points="150.44 31.64 150.44 33.05 153.81 31.63 150.44 31.64"/><polygon class="cls-4" points="160.94 38.28 160.94 31.61 153.81 31.63 150.44 33.05 150.44 38.28 160.94 38.28"/><polygon class="cls-5" points="127.44 97.85 120.09 105.17 120.09 106.9 120.09 128.79 120.09 130.53 131.78 138.14 131.78 136.34 131.78 114.45 131.78 113.68 146.4 97.85 127.44 97.85"/><polygon class="cls-6" points="153.67 48.5 154.79 42.45 146.28 42.45 144.6 51.52 144.6 51.52 144.24 53.42 172.62 53.42 173.54 48.5 153.67 48.5"/><polygon class="cls-6" points="161.4 61.2 168.11 60.17 168.25 55.31 149.44 58.19 143.69 58.19 137.98 88.89 137.98 88.89 137.07 93.82 152.35 93.82 153.27 88.89 146.49 88.89 151.35 62.74 152.58 62.55 156.84 93.87 166.55 93.87 163.55 74.87 169.31 74.87 170.9 66.36 162.21 66.36 161.4 61.2"/><polygon class="cls-6" points="139.98 62.16 140.08 61.65 129.01 61.65 130.08 55.89 141.2 55.89 142.11 50.96 135.13 50.96 137.03 40.74 128.51 40.74 126.61 50.96 119.97 50.96 119.06 55.89 121.57 55.89 114.52 93.82 123.03 93.82 128.09 66.58 130.65 66.58 125.59 93.82 134.1 93.82 139.98 62.16 139.98 62.16"/><path class="cls-6" d="M108.89,71.09l.92-4.93H68.38l.38-2h35.16L107.56,44h-22l.68-3.68H77.77L77.09,44H72.5l0-.1H64V44h0l-.91,4.93h0l-1,5.38-.44,2.36h0L57.47,79.06H96.63L94.72,89.37h-3l-.91,4.92h11.54l0-.26h0l.33-1.8.54-2.86h0l1.91-10.31h0l.79-4.26,0-.16h0l.1-.5H66.89l.57-3ZM98.06,48.93l-.51,2.81H71.06l.52-2.81Zm-1.4,7.74-.46,2.52H69.67l.47-2.52Z"/><polygon class="cls-7" points="89.23 80.96 81.87 80.96 80.98 85.73 76.45 85.73 78.55 75.87 70.04 75.87 67.94 85.73 62.12 85.73 63.01 80.96 55.65 80.96 51.79 90.66 54.4 90.66 61.21 90.66 80.07 90.66 87.3 90.66 89.49 90.66 89.23 80.96"/><polygon class="cls-6" points="34.28 43.06 34.91 39.7 26.4 39.7 25.77 43.06 4.27 43.06 3.75 45.85 2.84 50.78 11.35 50.78 11.87 47.99 46.35 47.99 45.9 50.45 54.41 50.45 54.87 47.99 54.94 47.6 55.32 45.52 55.78 43.06 34.28 43.06"/><polygon class="cls-6" points="24.12 54.04 24.83 50.12 5.4 50.12 4.69 54.04 12.15 54.04 11.81 55.88 4.67 55.88 3.96 59.8 11.08 59.8 10.67 62.02 2.17 62.02 1.46 65.94 22.64 65.94 23.35 62.02 17.84 62.02 18.25 59.8 23.4 59.8 24.1 55.88 18.98 55.88 19.32 54.04 24.12 54.04"/><polygon class="cls-6" points="41.73 59.8 51.33 59.8 52.05 55.88 42.46 55.88 42.81 54.04 50.98 54.04 51.7 50.12 34.44 50.12 34.65 49.13 27.11 49.13 26.05 54.04 29.12 54.04 33.59 54.04 35.64 54.04 35.3 55.88 25.71 55.88 24.98 59.8 34.57 59.8 34.16 62.02 31.85 62.02 32.05 60.93 24.75 60.93 23.84 65.86 23.85 65.86 23.84 65.94 50.19 65.94 50.2 65.86 50.26 65.86 51.17 60.93 44.01 60.93 43.8 62.02 41.32 62.02 41.73 59.8"/><path class="cls-6" d="M47.48,67.25H3.58L0,86.51H6.19L3.14,91.83H14.52L16.1,86.4h11l-1.55,5.43H36.93l0-5.32H43.9ZM9.41,76.43H38.23l-.16.9H9.24Zm29.8-5.26L39,72.51H10.14l.25-1.34ZM8.28,82.48l.23-1.23H37.34l-.23,1.23Z"/><polygon class="cls-6" points="301.57 57.44 268.73 57.44 269.64 52.51 302.49 52.51 301.57 57.44"/><polygon class="cls-6" points="263.85 93.44 257.29 93.44 267.95 52.51 274.51 52.51 263.85 93.44"/><polygon class="cls-6" points="290.01 43.41 290.61 40.2 282.1 40.2 281.5 43.41 267.19 43.41 259.6 43.41 258.68 43.41 256.18 52.51 249.26 52.51 247.68 61.02 253.84 61.02 252.3 66.61 246.64 66.61 245.06 75.12 249.96 75.12 244.92 93.44 253.43 93.44 265.83 48.34 305.49 48.34 306.4 43.41 290.01 43.41"/><polygon class="cls-6" points="300.08 79.15 298.01 88.79 296.86 88.79 304.48 52.51 296.95 52.51 288.3 93.72 289.94 93.72 295.83 93.72 296.95 93.72 299.51 93.72 304.48 93.72 307.61 79.15 300.08 79.15"/><path class="cls-6" d="M292.17,65.05l1.26-4.92h-19l-1.24,4.92h6.71L279.25,68h-7.11l-3.37,13.49h7.46L275,87h-7.81l-1.27,4.93h20.72l.26-1.34L288.41,84H282.5l-.7,3h-1.73l1.24-5.53H289L291.8,68h-7.46l.65-2.91ZM275.91,76.53l.91-3.64h1.33l-.82,3.64Zm8.95-3.64-.76,3.64h-1.69l.82-3.64Z"/><path class="cls-8" d="M239.07,83l-2.89,1.17-8.84-42.29-11-.08,7.8-13.62,8.49-5.6H215.25l-42,71.69,20.49.38,2.95-4.93-7.79-.11,26.59-46.44L226,93.65l.19-.07v0l14-5.67Zm-20.9-56.29a1.33,1.33,0,1,1-1.32,1.32A1.32,1.32,0,0,1,218.17,26.75Z"/><path class="cls-6" d="M195.44,56.09h-5.85a1.59,1.59,0,0,1-1.39-2.36l7-12.53a1.59,1.59,0,0,1,1.38-.81h5.86a1.58,1.58,0,0,1,1.38,2.36l-7,12.53A1.59,1.59,0,0,1,195.44,56.09Z"/><path class="cls-6" d="M201.36,49.7a4.55,4.55,0,0,1-1.65-.31l.35-.93a3.66,3.66,0,1,0,2.61-6.83l.36-.94a4.66,4.66,0,0,1-1.67,9Z"/><path class="cls-8" d="M204.41,42.5a2.58,2.58,0,0,0-3.62-.3l-15,12.67a3.09,3.09,0,0,0-.3,4L193.24,68a2.57,2.57,0,1,0,3.92-3.32l-6.25-7.39,13.2-11.17A2.58,2.58,0,0,0,204.41,42.5Z"/><path class="cls-6" d="M195,105.92l1.12-.85a23.87,23.87,0,0,1,1.9,1.74,9.2,9.2,0,0,1,1.33,1.65l-1.23,1a7.82,7.82,0,0,0-.78-1.09c-2.35.12-5.26.25-8.74.37l-.09-1.44h.84l1,0a19.92,19.92,0,0,0,1.77-3.41l1.64.52c-.49.93-1.05,1.87-1.68,2.83l4.07-.17C195.84,106.71,195.45,106.35,195,105.92Zm-5.22,9.15V109.8h8v5.26h-1.54v-.47h-5v.48Zm6.46-3.93h-5v2.08h5Z"/><path class="cls-6" d="M203.81,108.3l-.84,1.09a7.16,7.16,0,0,0-1.72-1.23l.77-1A6.76,6.76,0,0,1,203.81,108.3Zm.23-3.07-.87,1.07a6.93,6.93,0,0,0-1.68-1.31l.82-1A7.17,7.17,0,0,1,204,105.23Zm-1.26,9.71-1.26-.71a36.48,36.48,0,0,0,1.49-3.85l1.12.72C203.68,112.56,203.24,113.84,202.78,114.94Zm2.18-5v-1.66a6.36,6.36,0,0,1-.58,1.54,5,5,0,0,0-.77-.38,4.53,4.53,0,0,0,.56-1.54l.79.17v-.47l-1.09.09-.09-.86.73,0c.18-.23.3-.37.33-.43a7.15,7.15,0,0,0-.94-.85l.44-.69a.35.35,0,0,1,.09.06l.1,0a9.09,9.09,0,0,0,.54-1.11l.81.4c-.11.16-.25.4-.45.7l-.3.48a.54.54,0,0,0,.13.11l.12.13.18-.27c.07-.11.13-.21.19-.29l.14-.23.71.4v-.2h2.87v.2l.32-.41.15.12c.28-.53.47-.89.55-1.1l.82.38-.38.58-.42.63a2,2,0,0,1,.25.26c.34-.47.54-.77.61-.9l.79.43c-.57.69-1,1.2-1.28,1.51h.66l-.18-.38.68-.28a5,5,0,0,1,.55,1.42l-.71.32c0-.06,0-.15-.06-.3l-.47,0v2.36h-.92v-1.66a5.71,5.71,0,0,1-.55,1.5,3.2,3.2,0,0,0-.64-.35v.4h-2.3V108h2.3v1.19a6.16,6.16,0,0,0,.41-1.31l.78.17v-.44l-1,.06-.08-.86h.56l.15-.18.17-.19a5.38,5.38,0,0,0-.73-.77v.14H206.6v-.43c-.46.59-.83,1.05-1.1,1.36H206l-.11-.31.6-.22a4.67,4.67,0,0,1,.42,1.38l-.64.25,0-.33-.38,0v2.4Zm1.1,2.56h6a2.4,2.4,0,0,1-.07.52,3.17,3.17,0,0,1-.72,1.74,2.05,2.05,0,0,1-1.13.32c-.38,0-1,0-1.85,0a2.13,2.13,0,0,0-.39-1,17,17,0,0,0,1.82.09.91.91,0,0,0,.5-.1,1.2,1.2,0,0,0,.34-.62h-4.72c-.05.16-.08.27-.1.34l-1.29-.16a16.22,16.22,0,0,0,.58-2.24h5.12v-.38h-5.48v-.81h6.81v2h-5.32Zm.85-3.3-.72.21a9.53,9.53,0,0,0-.29-1.31l.68-.16A11.43,11.43,0,0,1,206.91,109.19Zm2.33-3.07v.64H207v-.64ZM207,107.69V107h2.29v.65Zm2.17-3.61v.68H207v-.68Zm-.75,5.1v-.53h-.6v.53Zm3-1.08.72-.21a9.65,9.65,0,0,1,.53,1.51l-.74.24A7.87,7.87,0,0,0,211.38,108.1Z"/><path class="cls-6" d="M219.13,104.15h1.63c0,.15,0,.38,0,.69s0,.6.07.91.11.71.21,1.2a14.16,14.16,0,0,0,.39,1.43,9.79,9.79,0,0,0,.62,1.5,10.08,10.08,0,0,0,.92,1.49,7.78,7.78,0,0,0,1.27,1.31,7.9,7.9,0,0,0,1.7,1.08,4.11,4.11,0,0,0-1.12,1.22,9.38,9.38,0,0,1-4.72-6,10.09,10.09,0,0,1-4.44,6,4.73,4.73,0,0,0-1.2-1.14,8,8,0,0,0,1.3-.88,10.92,10.92,0,0,0,1-1,7.85,7.85,0,0,0,.79-1.11c.23-.41.43-.78.59-1.12a8.34,8.34,0,0,0,.41-1.17c.12-.44.22-.8.28-1.09s.11-.65.16-1.06.07-.72.08-.91,0-.45,0-.8S219.13,104.19,219.13,104.15Z"/><path class="cls-6" d="M228.89,107.11l1.36.35a14,14,0,0,1-1.24,4.13l-1.37-.52A11.61,11.61,0,0,0,228.89,107.11Zm4.14,6.41h1.82a.58.58,0,0,0,.6-.37,7,7,0,0,0,.21-1.67,3.58,3.58,0,0,0,1.4.6,5.09,5.09,0,0,1-.57,2.26A1.72,1.72,0,0,1,235,115h-2.1a2.43,2.43,0,0,1-1.55-.37,1.83,1.83,0,0,1-.51-1.36,17.54,17.54,0,0,1-2.21,1.29,6.48,6.48,0,0,0-.94-1.13,16.13,16.13,0,0,0,3.14-1.9v-4.91h1.52v3.62a18.45,18.45,0,0,0,4.16-5.61l1.44.56a22,22,0,0,1-5.6,7v.74c0,.31,0,.5.13.58A1,1,0,0,0,233,113.52Zm1.71-7.61-.94,1.16c-.89-.74-1.84-1.46-2.86-2.16l.93-1C232.78,104.45,233.74,105.13,234.74,105.91Zm1.18,2.62,1.29-.61a16.16,16.16,0,0,1,1.07,1.84,11.77,11.77,0,0,1,.73,1.74l-1.35.69A15.19,15.19,0,0,0,235.92,108.53Z"/><path class="cls-6" d="M243.07,103.9l1.33.4a23.17,23.17,0,0,1-1,2.41v8.36h-1.32v-6a11.66,11.66,0,0,1-.72,1,7.19,7.19,0,0,0-.71-1.54,10.17,10.17,0,0,0,1.36-2.07A13.22,13.22,0,0,0,243.07,103.9Zm9.07,3.38h-.57a15.39,15.39,0,0,1-1.08,4.74,5.15,5.15,0,0,0,1.7,1.89,4.31,4.31,0,0,0-.84,1.12,5.82,5.82,0,0,1-1.56-1.77A6.5,6.5,0,0,1,248,115a6.17,6.17,0,0,0-.85-1c.18-.11.34-.22.48-.32h-2.29v.85h-1.23v-5.32h1.21v-1.94h-1.38v-1.29h1.38v-2h1.34v2h1.25v1.29h-1.25v1.94h.91a2.15,2.15,0,0,0-.18-.23l-.11-.16a11.63,11.63,0,0,0,1.54-5l1.27.21c-.12.7-.24,1.36-.38,2h2.45Zm-5.59,5.27v-2h-1.23v2Zm1.26-2.87v3.92a6,6,0,0,0,1.36-1.61,13.36,13.36,0,0,1-.71-2.55,4.16,4.16,0,0,1-.42.66A3.08,3.08,0,0,0,247.81,109.68Zm2.56-2.4h-1a.8.8,0,0,0-.06.17,1.84,1.84,0,0,0-.06.18,16.79,16.79,0,0,0,.57,2.79A15.87,15.87,0,0,0,250.37,107.28Z"/><path class="cls-6" d="M261.65,105.72H265c0,.33,0,.54,0,.65-.08,2.79-.17,4.72-.27,5.81a4.5,4.5,0,0,1-.52,2.09,1.76,1.76,0,0,1-1.15.67,11.76,11.76,0,0,1-1.88,0,2.89,2.89,0,0,0-.47-1.39c.51.05,1.11.07,1.79.07a.72.72,0,0,0,.53-.2,3.94,3.94,0,0,0,.4-1.73c.09-1,.17-2.53.23-4.69h-2.56a10.3,10.3,0,0,1-1.06,1.9,6.26,6.26,0,0,0-.93-.68v5.61h-3.21v.87h-1.29v-8.91H256a10.62,10.62,0,0,0,.34-1.93l1.56.21c-.19.56-.39,1.14-.62,1.72h1.86v1.94a11.78,11.78,0,0,0,1.62-3.86l1.36.3A14.09,14.09,0,0,1,261.65,105.72ZM257.84,109v-2h-1.91v2Zm-1.91,3.59h1.91v-2.36h-1.91Zm7.12-1.4-1.22.75a24,24,0,0,0-1.67-2.78l1.12-.63A27.73,27.73,0,0,1,263.05,111.19Z"/><path class="cls-6" d="M267.72,112.9h10.4v1.47h-10.4Zm.66-7.87h9.1v1.44h-9.1Zm.84,3.83h7.31v1.45h-7.31Z"/><path class="cls-6" d="M283.06,103.93l1.36.43a21.07,21.07,0,0,1-1.18,2.55v8.16h-1.35v-6c-.14.18-.38.47-.73.87a7.79,7.79,0,0,0-.76-1.49,10.75,10.75,0,0,0,1.51-2A13.41,13.41,0,0,0,283.06,103.93Zm8.62,5.73v1.39h-3.07v4h-1.44v-4h-3.23v-1.39h3.23v-2.07h-1.46a8.62,8.62,0,0,1-.74,1.55,6.9,6.9,0,0,0-1.24-.68,10.55,10.55,0,0,0,1.42-3.93l1.38.3c-.06.29-.17.74-.35,1.37h1V104h1.44v2.17h2.51v1.39h-2.51v2.07Z"/><path class="cls-6" d="M304.87,110.65v1.09h-1.24v2.1h-1.45v-.49H300v.36a1.77,1.77,0,0,1-.14.79.94.94,0,0,1-.49.42,7.24,7.24,0,0,1-2.12.2,4.07,4.07,0,0,0-.47-1.13c.38,0,.87,0,1.47,0a.27.27,0,0,0,.3-.3v-.36h-3.65v-1h3.65v-.58h-4.75v-1.09h4.75v-.51H295v-1h3.55v-.53h-3.25v-2.38h3.25v-.49h-4.47v-1.13h4.47v-.77H300v.77h4.59v1.13H300v.49h3.41v2.38H300v.53h3.62v1.47Zm-8.19-2.9h1.88v-.58h-1.88Zm5.28-.58H300v.58H302Zm-1.95,3v.51h2.17v-.51Zm2.17,2.18v-.58H300v.58Z"/><polygon class="cls-3" points="174.45 1 166.33 15.06 182.56 15.06 174.45 1"/><polygon class="cls-9" points="165.35 8.35 157.23 22.41 173.47 22.41 165.35 8.35"/><polygon class="cls-3" points="156.74 16.83 148.62 30.89 164.86 30.89 156.74 16.83"/><polygon class="cls-10" points="107.88 113.27 102.86 118.22 78.42 101.9 83.18 97 107.88 113.27"/><polygon class="cls-11" points="102.86 118.36 102.86 126.88 107.64 121.82 107.88 113.41 102.86 118.36"/><polygon class="cls-12" points="102.86 118.36 78.42 102.04 78.42 110.2 102.86 126.88 102.86 118.36"/><polygon class="cls-13" points="80.8 106.4 80.8 108.59 82.6 109.72 82.6 107.67 80.8 106.4"/><polygon class="cls-13" points="84.96 109.41 84.96 111.6 86.75 112.73 86.75 110.67 84.96 109.41"/><polygon class="cls-13" points="89.12 112.46 89.12 114.66 90.91 115.78 90.91 113.73 89.12 112.46"/><polygon class="cls-13" points="93.28 115.49 93.28 117.69 95.07 118.81 95.07 116.76 93.28 115.49"/><polygon class="cls-13" points="97.44 118.48 97.44 120.68 99.23 121.8 99.23 119.75 97.44 118.48"/></g></g></svg>