<svg xmlns="http://www.w3.org/2000/svg" viewBox="0 0 249.03 123.08"><defs><style>.cls-1{fill:none;stroke-width:2px;}.cls-1,.cls-2{stroke:#fff;}.cls-1,.cls-2,.cls-6,.cls-7,.cls-8,.cls-9{stroke-linejoin:round;}.cls-2,.cls-3{fill:#fff;}.cls-2,.cls-6,.cls-7,.cls-8,.cls-9{stroke-linecap:round;}.cls-4,.cls-8{fill:#f4911c;}.cls-5{fill:#92ca5c;}.cls-6{fill:#ff9f1c;}.cls-6,.cls-7,.cls-8{stroke:#ff9f1c;}.cls-6,.cls-7,.cls-8,.cls-9{stroke-width:0.75px;}.cls-7{fill:#e28617;}.cls-9{fill:#ade8f4;stroke:#ade8f4;}</style></defs><g id="圖層_2" data-name="圖層 2"><g id="圖層_1-2" data-name="圖層 1"><polyline class="cls-1" points="153.16 30.68 153.16 11.1 160.6 11.1 155.88 5.89 155.88 1.12 139.59 1.12 113.1 12.29 95.37 30.59"/><polygon class="cls-2" points="160.98 11.19 153.16 11.19 153.2 30.68 158.93 30.68 160.98 28.51 160.98 11.19"/><polygon class="cls-3" points="124.52 24.71 121.79 24.72 121.79 25.86 121.79 30.1 130.3 30.1 130.3 24.7 124.52 24.71"/><polygon class="cls-2" points="138.87 78.91 130.76 90.67 123.63 104.86 113.44 104.86 111.58 95.5 106.69 92.34 118.53 78.91 103.18 78.91 97.22 86.07 97.22 103.96 106.69 110.07 111.58 113.23 113.44 122.58 123.63 122.58 130.76 108.4 151.09 78.91 138.87 78.91"/><polygon class="cls-2" points="85.72 78.81 78.98 78.91 78.98 92.19 97.22 103.96 97.06 86.13 85.72 78.81"/><polygon class="cls-3" points="124.41 38.95 125.32 34.06 118.43 34.06 117.06 41.4 117.06 41.4 116.77 42.94 139.75 42.94 140.49 38.95 124.41 38.95"/><polygon class="cls-3" points="130.66 49.24 136.1 48.41 136.21 44.47 120.98 46.8 116.33 46.8 111.71 71.65 111.71 71.65 110.97 75.64 123.34 75.64 124.08 71.65 118.6 71.65 122.53 50.48 123.52 50.33 126.97 75.69 134.83 75.69 132.41 60.3 137.07 60.3 138.35 53.41 131.32 53.41 130.66 49.24"/><polygon class="cls-3" points="113.33 50.01 113.4 49.6 104.44 49.6 105.31 44.94 114.31 44.94 115.05 40.95 109.39 40.95 110.93 32.67 104.04 32.67 102.5 40.95 97.13 40.95 96.39 44.94 98.42 44.94 92.71 75.64 99.6 75.64 103.7 53.59 105.77 53.59 101.67 75.64 108.56 75.64 113.33 50.01 113.33 50.01"/><path class="cls-3" d="M88.16,57.24l.74-4H55.36l.3-1.65H84.13l3-16.29H69.3l.55-3H63l-.55,3H58.69l0-.08H51.82l0,.08h0l-.74,4h0l-.81,4.36-.36,1.91h0L46.52,63.7H78.23L76.68,72H74.23l-.75,4h9.35l0-.21h0l.27-1.47L83.57,72h0l1.55-8.34h0l.64-3.45,0-.13h0l.07-.41H54.16l.45-2.47ZM79.39,39.3,79,41.58H57.53L58,39.3Zm-1.14,6.27-.37,2H56.4l.38-2Z"/><polygon class="cls-3" points="72.24 65.23 66.28 65.23 65.56 69.1 61.89 69.1 63.59 61.12 56.7 61.12 55 69.1 50.29 69.1 51.01 65.23 45.05 65.23 41.92 73.08 44.04 73.08 49.55 73.08 64.82 73.08 70.68 73.08 72.45 73.08 72.24 65.23"/><polygon class="cls-3" points="27.75 34.55 28.26 31.83 21.37 31.83 20.86 34.55 3.46 34.55 3.04 36.81 2.3 40.8 9.19 40.8 9.61 38.54 37.53 38.54 37.16 40.53 44.05 40.53 44.42 38.54 44.48 38.23 44.79 36.55 45.16 34.55 27.75 34.55"/><polygon class="cls-3" points="19.53 43.44 20.1 40.26 4.37 40.26 3.8 43.44 9.84 43.44 9.56 44.93 3.78 44.93 3.21 48.1 8.97 48.1 8.64 49.9 1.75 49.9 1.18 53.07 18.33 53.07 18.9 49.9 14.44 49.9 14.77 48.1 18.94 48.1 19.51 44.93 15.36 44.93 15.64 43.44 19.53 43.44"/><polygon class="cls-3" points="33.79 48.1 41.55 48.1 42.14 44.93 34.38 44.93 34.66 43.44 41.27 43.44 41.86 40.26 27.88 40.26 28.05 39.46 21.95 39.46 21.09 43.44 23.57 43.44 27.19 43.44 28.85 43.44 28.57 44.93 20.81 44.93 20.22 48.1 27.98 48.1 27.65 49.9 25.78 49.9 25.95 49.02 20.04 49.02 19.3 53.01 19.31 53.01 19.3 53.07 40.63 53.07 40.64 53.01 40.69 53.01 41.43 49.02 35.63 49.02 35.46 49.9 33.45 49.9 33.79 48.1"/><path class="cls-3" d="M38.44,54.13H2.9L0,69.73H5L2.54,74h9.21L13,69.64H22L20.69,74H29.9l0-4.3h5.6ZM7.62,61.57H31l-.13.72H7.48Zm24.13-4.26-.21,1.08H8.21l.2-1.08Zm-25,9.15.18-1H30.23l-.19,1Z"/><polygon class="cls-3" points="234.78 34.84 235.27 32.23 228.38 32.23 227.9 34.84 216.31 34.84 210.16 34.84 209.42 34.84 207.39 42.2 201.79 42.2 200.51 49.09 205.5 49.09 204.25 53.62 199.67 53.62 198.39 60.51 202.36 60.51 198.28 75.34 205.17 75.34 215.21 38.83 247.31 38.83 248.06 34.84 234.78 34.84"/><polygon class="cls-3" points="242.94 63.77 241.26 71.58 240.33 71.58 246.5 42.2 240.41 42.2 240.41 42.2 222.24 42.2 218.29 42.2 216.93 42.2 208.3 75.34 213.61 75.34 221.2 46.19 239.57 46.19 233.4 75.56 234.73 75.56 239.49 75.56 240.41 75.56 242.47 75.56 246.5 75.56 249.03 63.77 242.94 63.77"/><path class="cls-3" d="M236.53,52.36l1-4H222.17l-1,4h5.44l-.53,2.35h-5.76l-2.72,10.92h6l-1,4.48h-6.33l-1,4H232l.21-1.09,1.24-5.35H228.7l-.56,2.45h-1.4l1-4.48H234l2.27-10.92h-6l.53-2.35Zm-13.16,9.28.73-2.94h1.08l-.66,2.94Zm7.25-2.94L230,61.64h-1.36l.66-2.94Z"/><path class="cls-4" d="M193.54,66.92l-2.33.94-7.16-34.23-8.92-.07,6.31-11L188.32,18H174.26l-34,58,16.59.31,2.39-4L153,72.27l21.53-37.6,8.44,40.84.15-.06v0l11.34-4.59ZM176.63,21.34a1.08,1.08,0,1,1-1.07,1.08A1.07,1.07,0,0,1,176.63,21.34Z"/><path class="cls-5" d="M158.22,45.1h-4.74a1.29,1.29,0,0,1-1.12-1.91L158,33.05a1.27,1.27,0,0,1,1.12-.66h4.74A1.28,1.28,0,0,1,165,34.3l-5.67,10.14A1.26,1.26,0,0,1,158.22,45.1Z"/><path class="cls-5" d="M163,39.93a3.7,3.7,0,0,1-1.34-.25l.29-.76a3,3,0,0,0,2.11-5.53l.29-.76a3.78,3.78,0,0,1-1.35,7.3Z"/><path class="cls-4" d="M165.48,34.1a2.08,2.08,0,0,0-2.93-.25L150.43,44.11a2,2,0,0,0-.72,1.7,2.06,2.06,0,0,0,.47,1.53l6.26,7.4a2.08,2.08,0,0,0,3.17-2.69l-5.06-6,10.69-9A2.09,2.09,0,0,0,165.48,34.1Z"/><path class="cls-3" d="M157.83,85.44l.91-.68a18.24,18.24,0,0,1,1.53,1.4,7,7,0,0,1,1.08,1.34l-1,.77a6.37,6.37,0,0,0-.63-.89c-1.9.1-4.26.21-7.07.31l-.08-1.17h.68l.82,0a15.86,15.86,0,0,0,1.43-2.76l1.33.43c-.4.74-.85,1.51-1.36,2.28l3.29-.13C158.54,86.08,158.23,85.79,157.83,85.44Zm-4.23,7.41V88.58h6.47v4.26h-1.24v-.38h-4v.39Zm5.23-3.18h-4v1.68h4Z"/><path class="cls-3" d="M165,87.36l-.68.89a5.64,5.64,0,0,0-1.4-1l.63-.81A5.78,5.78,0,0,1,165,87.36Zm.18-2.48-.7.87a5.57,5.57,0,0,0-1.36-1.06l.67-.79A5.79,5.79,0,0,1,165.18,84.88Zm-1,7.86-1-.58a27.08,27.08,0,0,0,1.21-3.11l.91.58C164.9,90.81,164.53,91.85,164.17,92.74Zm1.76-4.06V87.35a4.94,4.94,0,0,1-.47,1.24,6,6,0,0,0-.62-.31,3.66,3.66,0,0,0,.45-1.25l.64.14v-.38l-.88.07-.08-.69.59,0,.28-.34a5.25,5.25,0,0,0-.77-.69l.36-.56.07,0,.08.05a7.22,7.22,0,0,0,.44-.9l.65.32-.36.57-.25.39.11.09a.46.46,0,0,1,.1.1l.15-.22a2.3,2.3,0,0,1,.15-.23l.11-.19.58.33v-.16h2.32v.16l.26-.34.12.1c.23-.42.38-.72.45-.89l.66.31-.31.47c-.15.23-.26.4-.34.51a2.08,2.08,0,0,1,.21.21c.27-.38.43-.63.49-.73l.64.35c-.46.56-.8,1-1,1.22h.53c-.06-.14-.11-.24-.14-.3l.55-.23a4.12,4.12,0,0,1,.45,1.15l-.58.25s0-.12-.05-.23l-.38,0v1.9h-.74V87.35a5.28,5.28,0,0,1-.44,1.21,3,3,0,0,0-.53-.29v.33h-1.85V87.14h1.85v1a4.26,4.26,0,0,0,.34-1.06l.63.14v-.36l-.83,0-.07-.69h.46L170,86l.14-.15a3.57,3.57,0,0,0-.59-.63v.11h-2.32V85c-.37.48-.67.85-.89,1.1h.42l-.09-.24.48-.18a3.88,3.88,0,0,1,.35,1.12L167,87l0-.26-.31,0v1.93Zm.89,2.08h4.86a1.72,1.72,0,0,1-.06.42,2.53,2.53,0,0,1-.58,1.41,1.72,1.72,0,0,1-.91.26c-.31,0-.81,0-1.5,0a1.87,1.87,0,0,0-.32-.85,13.42,13.42,0,0,0,1.47.07.66.66,0,0,0,.41-.08,1.05,1.05,0,0,0,.28-.5h-3.83a2.85,2.85,0,0,1-.08.28l-1.05-.14A13.56,13.56,0,0,0,166,89.8h4.14v-.3h-4.44v-.66h5.52v1.62H166.9Zm.69-2.67-.58.17a10.19,10.19,0,0,0-.24-1.07l.55-.12A7.89,7.89,0,0,1,167.51,88.09Zm1.88-2.49v.52h-1.85V85.6Zm-1.85,1.27v-.52h1.85v.52ZM169.3,84v.55h-1.69V84Zm-.61,4.13v-.43h-.48v.43Zm2.44-.88.58-.17a8.42,8.42,0,0,1,.43,1.23l-.6.2A6.3,6.3,0,0,0,171.13,87.2Z"/><path class="cls-3" d="M177.4,84h1.32c0,.12,0,.3,0,.56s0,.48.06.73a9.72,9.72,0,0,0,.17,1,10.37,10.37,0,0,0,.31,1.16,9.37,9.37,0,0,0,.5,1.2,8.48,8.48,0,0,0,.74,1.21,6.5,6.5,0,0,0,1,1.07,6.64,6.64,0,0,0,1.37.87,3.28,3.28,0,0,0-.9,1,7.58,7.58,0,0,1-3.83-4.87,8.19,8.19,0,0,1-3.59,4.87,3.94,3.94,0,0,0-1-.92,6.44,6.44,0,0,0,1.05-.71,8,8,0,0,0,.83-.8,5.47,5.47,0,0,0,.64-.89c.19-.34.35-.64.48-.91a7.23,7.23,0,0,0,.34-.94c.09-.36.17-.66.22-.89s.09-.52.13-.86.05-.58.06-.73,0-.37,0-.65S177.4,84,177.4,84Z"/><path class="cls-3" d="M185.3,86.41l1.1.28a11.25,11.25,0,0,1-1,3.34l-1.11-.42A9.27,9.27,0,0,0,185.3,86.41Zm3.35,5.19h1.48a.47.47,0,0,0,.48-.31,5.44,5.44,0,0,0,.18-1.35,2.85,2.85,0,0,0,1.13.49,4.1,4.1,0,0,1-.46,1.83,1.41,1.41,0,0,1-1.23.49h-1.7a2,2,0,0,1-1.26-.3,1.48,1.48,0,0,1-.41-1.1,13.53,13.53,0,0,1-1.79,1,5.73,5.73,0,0,0-.76-.91,13,13,0,0,0,2.54-1.54V86h1.23V88.9a15.08,15.08,0,0,0,3.37-4.54l1.17.45a18,18,0,0,1-4.54,5.63V91a.73.73,0,0,0,.1.46A.79.79,0,0,0,188.65,91.6ZM190,85.43l-.76.94c-.72-.6-1.49-1.18-2.32-1.75l.75-.84C188.45,84.25,189.23,84.8,190,85.43Zm1,2.12,1-.49a13.26,13.26,0,0,1,.87,1.49,10.79,10.79,0,0,1,.59,1.4l-1.1.56A12.62,12.62,0,0,0,191,87.55Z"/><path class="cls-3" d="M196.79,83.81l1.07.32a18,18,0,0,1-.78,2v6.77H196V88c-.14.22-.34.48-.59.8a5.75,5.75,0,0,0-.57-1.26,8.1,8.1,0,0,0,1.1-1.66A12.5,12.5,0,0,0,196.79,83.81Zm7.34,2.73h-.47a12.26,12.26,0,0,1-.87,3.84,4.12,4.12,0,0,0,1.38,1.53,3.65,3.65,0,0,0-.69.91,5,5,0,0,1-1.26-1.43,5.53,5.53,0,0,1-1.46,1.43,4.25,4.25,0,0,0-.69-.78l.39-.26h-1.85v.69h-1V88.16h1V86.59h-1.12v-1h1.12V83.91h1.08v1.63h1v1h-1v1.57h.74l-.14-.19-.1-.12a9.33,9.33,0,0,0,1.25-4l1,.17c-.1.57-.2,1.1-.3,1.6h2Zm-4.53,4.27V89.15h-1v1.66Zm1-2.33v3.18a4.91,4.91,0,0,0,1.1-1.31,10.15,10.15,0,0,1-.57-2.06,3.87,3.87,0,0,1-.34.54A3.13,3.13,0,0,0,200.62,88.48Zm2.08-1.94h-.82l0,.14c0,.06,0,.11,0,.14a12.72,12.72,0,0,0,.46,2.26A13.81,13.81,0,0,0,202.7,86.54Z"/><path class="cls-3" d="M211.83,85.28h2.74c0,.26,0,.44,0,.53-.06,2.25-.14,3.82-.22,4.7a3.55,3.55,0,0,1-.42,1.69,1.43,1.43,0,0,1-.93.54,9.74,9.74,0,0,1-1.52,0,2.49,2.49,0,0,0-.38-1.13c.41,0,.9.06,1.45.06a.57.57,0,0,0,.43-.16,3.32,3.32,0,0,0,.32-1.4c.07-.78.14-2,.19-3.8H211.4a8.64,8.64,0,0,1-.85,1.54,5.65,5.65,0,0,0-.75-.55v4.54h-2.6v.7h-1V85.35h1.1a8.89,8.89,0,0,0,.28-1.56l1.26.17c-.15.45-.32.92-.5,1.39h1.51v1.57a9.8,9.8,0,0,0,1.31-3.12l1.1.24C212.14,84.32,212,84.73,211.83,85.28Zm-3.09,2.65V86.36H207.2v1.57Zm-1.54,2.91h1.54V88.93H207.2ZM213,89.71l-1,.6a18.41,18.41,0,0,0-1.35-2.24l.9-.52A24.2,24.2,0,0,1,213,89.71Z"/><path class="cls-3" d="M216.74,91.09h8.42v1.19h-8.42Zm.54-6.37h7.36v1.16h-7.36Zm.67,3.1h5.92V89H218Z"/><path class="cls-3" d="M229.16,83.83l1.1.35a15.43,15.43,0,0,1-1,2.06v6.61h-1.09V88c-.12.15-.31.38-.59.7a6.28,6.28,0,0,0-.62-1.2,8.78,8.78,0,0,0,1.23-1.63A11.64,11.64,0,0,0,229.16,83.83Zm7,4.63v1.13h-2.49v3.27h-1.16V89.59h-2.62V88.46h2.62V86.79H231.3a6.43,6.43,0,0,1-.6,1.26,5,5,0,0,0-1-.55,8.47,8.47,0,0,0,1.15-3.18l1.12.24c-.05.23-.14.6-.29,1.11h.81V83.91h1.16v1.76h2v1.12h-2v1.67Z"/><path class="cls-3" d="M246.82,89.27v.88h-1v1.7h-1.17v-.4h-1.76v.3a1.5,1.5,0,0,1-.11.64.79.79,0,0,1-.4.33,5.61,5.61,0,0,1-1.72.17,3.33,3.33,0,0,0-.38-.92c.31,0,.71,0,1.2,0,.16,0,.23-.08.23-.24v-.3h-2.95v-.83h2.95v-.47h-3.84v-.88h3.84v-.42h-2.87v-.77h2.87v-.43h-2.62V85.72h2.62v-.4h-3.61v-.91h3.61v-.62h1.18v.62h3.72v.91h-3.72v.4h2.76v1.93h-2.76v.43h2.93v1.19Zm-6.63-2.35h1.51v-.47h-1.51Zm4.27-.47h-1.58v.47h1.58Zm-1.58,2.4v.42h1.76v-.42Zm1.76,1.77v-.47h-1.76v.47Z"/><polygon class="cls-2" points="141.23 0.5 134.66 11.88 147.8 11.88 141.23 0.5"/><polygon class="cls-2" points="133.86 6.45 127.29 17.83 140.43 17.83 133.86 6.45"/><polygon class="cls-2" points="126.89 13.31 120.32 24.7 133.46 24.7 126.89 13.31"/><polygon class="cls-6" points="90.18 93.96 86.12 97.97 66.33 84.75 70.18 80.79 90.18 93.96"/><polygon class="cls-7" points="86.12 98.08 86.12 104.98 89.98 100.88 90.18 94.08 86.12 98.08"/><polygon class="cls-8" points="86.12 98.08 66.33 84.87 66.33 91.48 86.12 104.98 86.12 98.08"/><polygon class="cls-9" points="68.26 88.4 68.26 90.18 69.71 91.09 69.71 89.42 68.26 88.4"/><polygon class="cls-9" points="71.63 90.83 71.63 92.61 73.08 93.52 73.08 91.86 71.63 90.83"/><polygon class="cls-9" points="74.99 93.31 74.99 95.09 76.44 96 76.44 94.33 74.99 93.31"/><polygon class="cls-9" points="78.36 95.76 78.36 97.54 79.81 98.45 79.81 96.79 78.36 95.76"/><polygon class="cls-9" points="81.73 98.18 81.73 99.96 83.18 100.87 83.18 99.21 81.73 98.18"/></g></g></svg>