<svg xmlns="http://www.w3.org/2000/svg" xmlns:xlink="http://www.w3.org/1999/xlink" width="143" height="24" viewBox="0 0 143 24">
  <defs>
    <clipPath id="clip-path">
      <rect width="143" height="24" fill="none"/>
    </clipPath>
  </defs>
  <g id="Repeat_Grid_9" data-name="Repeat Grid 9" clip-path="url(#clip-path)">
    <g transform="translate(-1095 -1603)">
      <path id="Polygon_13" data-name="Polygon 13" d="M11.6,1.8a1,1,0,0,1,1.79,0l2.881,5.784A1,1,0,0,0,17,8.119l6.2,1.107a1,1,0,0,1,.556,1.665L19.3,15.682a1,1,0,0,0-.258.819l.919,6.576A1,1,0,0,1,18.5,24.1l-5.542-2.888a1,1,0,0,0-.924,0L6.5,24.1a1,1,0,0,1-1.452-1.025L5.962,16.5a1,1,0,0,0-.258-.819l-4.455-4.79a1,1,0,0,1,.556-1.665L8,8.119a1,1,0,0,0,.719-.539Z" transform="translate(1095 1603)" fill="#ffd21c"/>
    </g>
    <g transform="translate(-1064 -1603)">
      <path id="Polygon_13-2" data-name="Polygon 13" d="M11.6,1.8a1,1,0,0,1,1.79,0l2.881,5.784A1,1,0,0,0,17,8.119l6.2,1.107a1,1,0,0,1,.556,1.665L19.3,15.682a1,1,0,0,0-.258.819l.919,6.576A1,1,0,0,1,18.5,24.1l-5.542-2.888a1,1,0,0,0-.924,0L6.5,24.1a1,1,0,0,1-1.452-1.025L5.962,16.5a1,1,0,0,0-.258-.819l-4.455-4.79a1,1,0,0,1,.556-1.665L8,8.119a1,1,0,0,0,.719-.539Z" transform="translate(1095 1603)" fill="#ffd21c"/>
    </g>
    <g transform="translate(-1033 -1603)">
      <path id="Polygon_13-3" data-name="Polygon 13" d="M11.6,1.8a1,1,0,0,1,1.79,0l2.881,5.784A1,1,0,0,0,17,8.119l6.2,1.107a1,1,0,0,1,.556,1.665L19.3,15.682a1,1,0,0,0-.258.819l.919,6.576A1,1,0,0,1,18.5,24.1l-5.542-2.888a1,1,0,0,0-.924,0L6.5,24.1a1,1,0,0,1-1.452-1.025L5.962,16.5a1,1,0,0,0-.258-.819l-4.455-4.79a1,1,0,0,1,.556-1.665L8,8.119a1,1,0,0,0,.719-.539Z" transform="translate(1095 1603)" fill="#ffd21c"/>
    </g>
    <g transform="translate(-1002 -1603)">
      <path id="Polygon_13-4" data-name="Polygon 13" d="M11.6,1.8a1,1,0,0,1,1.79,0l2.881,5.784A1,1,0,0,0,17,8.119l6.2,1.107a1,1,0,0,1,.556,1.665L19.3,15.682a1,1,0,0,0-.258.819l.919,6.576A1,1,0,0,1,18.5,24.1l-5.542-2.888a1,1,0,0,0-.924,0L6.5,24.1a1,1,0,0,1-1.452-1.025L5.962,16.5a1,1,0,0,0-.258-.819l-4.455-4.79a1,1,0,0,1,.556-1.665L8,8.119a1,1,0,0,0,.719-.539Z" transform="translate(1095 1603)" fill="#ffd21c"/>
    </g>
    <g transform="translate(-971 -1603)">
      <path id="Polygon_13-5" data-name="Polygon 13" d="M11.6,1.8a1,1,0,0,1,1.79,0l2.881,5.784A1,1,0,0,0,17,8.119l6.2,1.107a1,1,0,0,1,.556,1.665L19.3,15.682a1,1,0,0,0-.258.819l.919,6.576A1,1,0,0,1,18.5,24.1l-5.542-2.888a1,1,0,0,0-.924,0L6.5,24.1a1,1,0,0,1-1.452-1.025L5.962,16.5a1,1,0,0,0-.258-.819l-4.455-4.79a1,1,0,0,1,.556-1.665L8,8.119a1,1,0,0,0,.719-.539Z" transform="translate(1095 1603)" fill="#ffd21c"/>
    </g>
  </g>
</svg>
