<svg xmlns="http://www.w3.org/2000/svg" xmlns:xlink="http://www.w3.org/1999/xlink" viewBox="0 0 197.81 110.81"><defs><style>.cls-1{fill:url(#未命名漸層_9);}.cls-2{fill:none;stroke:#5e6472;stroke-linecap:round;stroke-linejoin:round;stroke-width:1.5px;}.cls-3{fill:url(#未命名漸層_9-2);}</style><linearGradient id="未命名漸層_9" x1="78.57" y1="98.37" x2="78.57" y2="-2.19" gradientUnits="userSpaceOnUse"><stop offset="0" stop-color="#b1d660"/><stop offset="1" stop-color="#00a878"/></linearGradient><linearGradient id="未命名漸層_9-2" x1="139.34" y1="111.98" x2="139.34" y2="37.78" xlink:href="#未命名漸層_9"/></defs><g id="圖層_2" data-name="圖層 2"><g id="圖層_1-2" data-name="圖層 1"><path class="cls-1" d="M68.13,8.15.75,96.16H31.2a3.72,3.72,0,0,0,.17-.38l.27.38H70.71a2.76,2.76,0,0,1-.21-.25,1,1,0,0,1,.36-.11c.11,0,.21.11.36.19l-.22.17h8.75a.92.92,0,0,1-.19-.33c0-.07.13-.19.31-.43a2.11,2.11,0,0,1,.22.62.2.2,0,0,1-.09.14h76.39l-57.34-76c-.1.15-.2.31-.29.47a3.55,3.55,0,0,1-.31-.23l-.32-.18.66-.4L89.94,8.05C83-1.24,75.05-1.14,68.13,8.15ZM86.51,38c.17.26.33.52.5.8-.16.31-.29.54-.42.77a2.79,2.79,0,0,1-.41-.83C86.16,38.51,86.39,38.25,86.51,38Zm-3.73-7.91.9.67c-.1.07-.23.22-.3.2a8.45,8.45,0,0,1-.89-.3ZM68.79,16l.38.89-.59.75c-.11-.14-.33-.32-.3-.42C68.41,16.8,68.62,16.41,68.79,16Zm-.58,33a5.73,5.73,0,0,1,1,.28c-.14.18-.28.35-.41.53l-.52.37a4.9,4.9,0,0,1-.51-.8C67.78,49.31,68.08,49,68.21,49Zm-.79-27.72.24.1c-.17.14-.34.29-.53.42,0,0-.15-.07-.23-.11ZM58.22,55.7a3,3,0,0,1-.54,1.09l-.26,0c-.09-.41-.18-.82-.24-1.23,0-.11.08-.23.13-.34C57.63,55.35,58.23,55.54,58.22,55.7ZM35.77,61a2.54,2.54,0,0,1,.51.37c-.09.08-.21.24-.26.22a5,5,0,0,1-.67-.32C35.54,61.17,35.7,61,35.77,61Zm-9.15,8.18.6.68c-.09.06-.24.19-.27.17-.22-.18-.42-.38-.63-.58ZM5.42,91.8c-.06,0-.2-.22-.31-.33a1.82,1.82,0,0,1,.55-.35c.14,0,.33.08.73.2A6,6,0,0,1,5.42,91.8ZM17,89c-.07,0-.63-.47-.59-.61a4.85,4.85,0,0,1,.82-1.1l1.2.78A12.07,12.07,0,0,1,17,89Zm5-16.56a3.69,3.69,0,0,1-.84-.38l.33-.38,1.12.48C22.39,72.28,22.17,72.49,22,72.46Zm1.57-5.38c-.07,0-.19-.15-.32-.26l.26-.35a1.6,1.6,0,0,1,.34.35S23.67,67.06,23.55,67.08Zm2.09,17.34c-.12,0-.2-.25-.29-.39.1-.07.22-.2.31-.18a2.7,2.7,0,0,1,.59.3C26,84.29,25.78,84.45,25.64,84.42Zm.15-2.59,1-.55.92.64a3.15,3.15,0,0,1-.91.27A3.89,3.89,0,0,1,25.79,81.83Zm1.82,14.06c-.13,0-.26-.12-.39-.2l.58-.44.42.47A2.64,2.64,0,0,1,27.61,95.89Zm3-26.08a3,3,0,0,1-.3.72c-.13-.26-.37-.52-.38-.78,0-.74.06-1.48.11-2.22,0-.06.19-.18.21-.16s.23.17.24.27c0,.39,0,.78,0,.86A8.76,8.76,0,0,1,30.59,69.81Zm.65-5.07-.53-.58c.1-.06.25-.18.28-.16a6.09,6.09,0,0,1,.55.46Zm1.81-3.6a1.88,1.88,0,0,1-.18-.48c0-.07.18-.16.28-.24.06.13.11.26.18.42Zm1.69,5.93A10.42,10.42,0,0,1,35,66c0-.15.24-.26.48-.51,0,.29.12.43.07.52a9.06,9.06,0,0,1-.54,1C35,67,34.84,67,34.74,67.07ZM36,91.67c0,.08-.11.15-.16.23-.08-.08-.2-.16-.24-.26a2.7,2.7,0,0,1-.27-.8,14.77,14.77,0,0,1,0-1.63.74.74,0,0,1,.25,0c.17.45.32.89.45,1.35a3.7,3.7,0,0,1,0,.74A2.27,2.27,0,0,1,36,91.67Zm-.33-20c-.11,0-.31-.29-.46-.45a2.14,2.14,0,0,1,.6-.34c.18,0,.39.1.79.22A3.91,3.91,0,0,1,35.68,71.65Zm4.5,2.59s-.16-.11-.16-.11c.27-.42.55-.82.83-1.23l.29.31.18.15C41,73.66,40.57,74,40.18,74.24Zm3.31,20.84-.5-.33a2.09,2.09,0,0,1,.14-.17l.47.37Zm1.31-14c-.64-.11-1.27-.23-1.89-.39-.1,0-.17-.3-.16-.45s.21-.14.29-.2a2.45,2.45,0,0,1,.35.09l1.53.73S44.82,81.07,44.8,81.06Zm0-25.91-.46-.72c.23-.33.43-.61.62-.9.2.26.6.56.55.76S45,54.87,44.78,55.15Zm.35-12a2.89,2.89,0,0,1-.24-.27L46,42.2c0,.17.11.33.08.35A8.1,8.1,0,0,1,45.13,43.17Zm3.08,38.42a17,17,0,0,1-1.57.87s-.15-.12-.23-.19L48,81C48.12,81.26,48.26,81.56,48.21,81.59ZM49,67.66c-.35.46-.71.9-1.08,1.35a1.81,1.81,0,0,1-.28-.12c.26-.27.44-.44.61-.63l.76-.87C49,67.48,49,67.6,49,67.66ZM48.69,40c.09-.08.24-.25.27-.24a8.08,8.08,0,0,1,.76.52c-.21.12-.37.25-.41.22A5,5,0,0,1,48.69,40Zm1.69,6.25a1.3,1.3,0,0,1-.28-.34c-.22-.43-.42-.87-.62-1.3a1,1,0,0,1,.18-.09c.33.54.65,1.09,1,1.75C50.54,46.25,50.43,46.28,50.38,46.24ZM51.92,76a2.48,2.48,0,0,1-.34.46,4.93,4.93,0,0,1,.05-.54,3.6,3.6,0,0,1,.12-.44l.23,0A1.44,1.44,0,0,1,51.92,76Zm1-41.29a3.76,3.76,0,0,1-.62-.27l.25-.12.8.31A1.12,1.12,0,0,1,53,34.71ZM54.56,76.3c-.09-.1-.25-.19-.26-.29a3.13,3.13,0,0,1,.14-.74,2.75,2.75,0,0,1,.27.64C54.72,76,54.61,76.17,54.56,76.3Zm2.5-33.49s.16.16.25.25a8.13,8.13,0,0,1-.78.52s-.2-.15-.41-.31C56.48,43.09,56.76,42.93,57.06,42.81Zm-.73,44.81c0-.09-.12-.19-.1-.25.17-.42.36-.84.55-1.26l.16.31Zm1.15-4a4.51,4.51,0,0,1-.53.1l0-.16c.32-.09.64-.2,1-.27a1.21,1.21,0,0,1,.43.1Zm1.08-61.33a2,2,0,0,1-.16-.51,3.09,3.09,0,0,1,.08-.6l.22,0c.06.16.18.32.15.46A3,3,0,0,1,58.56,22.33Zm1.65,67.18c-.1-.13-.26-.25-.27-.39s.13-.27.3-.58c.18.3.36.46.33.57S60.33,89.38,60.21,89.51Zm.86-57.08c-.27-.28-.54-.54-.78-.83,0-.05.1-.24.25-.55a8.87,8.87,0,0,1,.88,1S61.19,32.28,61.07,32.43Zm1.38-5.8c0-.13.25-.32.52-.62a3.39,3.39,0,0,1,.29.89c0,.17-.26.32-.4.48A2.92,2.92,0,0,1,62.45,26.63Zm.63,10.3,1-.09.9.4a6.94,6.94,0,0,1-1.28.08C63.51,37.3,63.3,37.07,63.08,36.93Zm2.06,13.55c-.38.08-.77.12-1.17.17l0-.14a1.47,1.47,0,0,1,.34-.15c.38-.06.76-.09,1.15-.14C65.33,50.31,65.25,50.46,65.14,50.48Zm.06-37.26,1.39-.38c.06.09.22.29.2.31-.27.25-.54.59-.87.67S65.45,13.44,65.2,13.22Zm1.63,13.84a1.86,1.86,0,0,1-.5-.24l.26-.41.54.4C67,26.9,66.92,27.06,66.83,27.06Zm2.59,49.11c-.17,0-.43-.09-.49-.21-.23-.54-.58-.62-1.08-.33l-.48.25c.07-.17.1-.46.21-.5a2.74,2.74,0,0,1,1.16-.13,3.2,3.2,0,0,1,.93.56C69.52,76,69.45,76.17,69.42,76.17Zm.3-49.27a2.31,2.31,0,0,1,.22-.35l1,.76c-.1.08-.25.24-.29.22A9.36,9.36,0,0,1,69.72,26.9ZM70.88,71s-.21-.13-.32-.2l.94-.67.24.14C71.46,70.51,71.18,70.76,70.88,71ZM72,16.31s-.23,0-.35-.08l.44-.76c.16.14.33.26.31.29A2.15,2.15,0,0,1,72,16.31Zm2.57,10.32a3,3,0,0,1-.46-.3s0-.18.1-.38a4.2,4.2,0,0,1,.52.4S74.65,26.53,74.59,26.63Zm0-5.11c0-.12-.15-.25-.12-.35s.17-.25.36-.5c.09.27.19.42.15.48A1.72,1.72,0,0,1,74.6,21.52Zm2.67,50.11c-.11,0-.27,0-.4-.08l.58-.46c.08.08.15.17.23.26A1.5,1.5,0,0,1,77.27,71.63Zm2.19-54.44c.14.17.44.4.39.52A8.47,8.47,0,0,1,79.23,19l-.57-.42Zm0,61.87a1.79,1.79,0,0,1,.12.43c0,.11-.14.21-.22.32a1.45,1.45,0,0,1-.26-.42C79,79.31,79.25,79.2,79.41,79.06ZM79.52,85c-.11,0-.25-.07-.38-.11a1.52,1.52,0,0,1,.39-.33c.09-.05.25,0,.56,0A2.74,2.74,0,0,1,79.52,85ZM80,59.75a2.26,2.26,0,0,1,.21-.52c.2.12.42.21.41.25a.81.81,0,0,1-.26.41C80.33,59.93,80,59.79,80,59.75Zm.81,27.34c-.14,0-.32-.15-.62-.31a3.16,3.16,0,0,1,.73-.34c.11,0,.25.19.37.29C81.16,86.86,81,87.06,80.84,87.09Zm.47-48-.59-.38.43-.53a2.6,2.6,0,0,1,.38.53C81.56,38.83,81.39,39,81.31,39.11Zm.6,36.33s-.1-.14-.21-.29c.26-.13.5-.27.76-.37.06,0,.18.1.27.15C82.46,75.1,82.19,75.28,81.91,75.44ZM83.28,43c.31-.29.65-.6,1-.92.06.09.2.23.18.27-.28.39-.58.77-.88,1.16ZM84.4,88.84a1.36,1.36,0,0,1-.53-.42s.28-.4.32-.39a7.39,7.39,0,0,1,.84.57C84.7,88.73,84.51,88.88,84.4,88.84Zm1.1-5.22c-.11,0-.26-.06-.39-.09l.42-.36.4.21A1.52,1.52,0,0,1,85.5,83.62Zm.63-20.47a3,3,0,0,1-.23.38c-.3.43,0,1.46-.83,1.26-.51-.12-.83-1-1.22-1.52,0-.05.08-.18.14-.32.76.66,1.4.77,2-.07,0,0,.17,0,.25,0A2,2,0,0,1,86.13,63.15ZM86.81,74a6.85,6.85,0,0,1-.36-.84c0-.12.12-.27.19-.41l.29,0a5.17,5.17,0,0,1,.15.86C87.08,73.71,86.91,73.83,86.81,74Zm15.77,9.83a9.64,9.64,0,0,1-1-.54c.06-.1.12-.2.21-.33l1.1.48C102.79,83.53,102.62,83.8,102.58,83.78Zm.37-10c-.11-.35-.21-.71-.32-1.07l.14-.36a6.54,6.54,0,0,1,.46,1C103.26,73.48,103.05,73.66,103,73.8Zm32.42,19.69c-.1-.3-.22-.6-.29-.9a2.25,2.25,0,0,1,0-.52l.3.79Zm8.89,1.24.5.58a6.17,6.17,0,0,1-.81.56s-.44-.38-.41-.43A4.85,4.85,0,0,1,144.26,94.73Zm-4.79-9.3c.07.19.17.33.15.45s-.16.33-.28.36-.29-.13-.43-.2Zm-4.21-7.74c.06,0,.2.14.38.28-.19.15-.31.31-.47.35s-.21-.19-.32-.3A1.86,1.86,0,0,1,135.26,77.69Zm-5.16-14a3.46,3.46,0,0,1,.59.64c0,.1-.14.29-.22.44a6,6,0,0,1-.42-.57C130,64.14,130.07,64,130.1,63.71ZM130,88.28c.14-.08.45.13.68.2l-.21.43a6.18,6.18,0,0,1-.79.45s-.32-.32-.28-.38A1.72,1.72,0,0,1,130,88.28Zm-.89-3.66c.16,0,.28.2.54.39-.34.11-.54.24-.68.2s-.17-.28-.19-.45A.44.44,0,0,1,129.08,84.62Zm-2,1.1c-.24.48-.52,1-.79,1.41-.25-.27-.75-.72-.7-.8a8.85,8.85,0,0,1,1.27-1.18C127,85.45,127.14,85.63,127.1,85.72Zm-1.74-26.67,1,1.45-.52.4a12.45,12.45,0,0,1-.82-1.27C125,59.5,125.25,59.24,125.36,59.05Zm-4.49-8.12.29.41a2.12,2.12,0,0,1-.56.32c-.12,0-.28-.19-.41-.29Zm-2.41,29.89a3.06,3.06,0,0,1,.53.74c0,.09-.3.28-.47.42a2.84,2.84,0,0,1-.4-.66C118.09,81.22,118.29,81.05,118.46,80.82Zm-2.33-13.23.33.43-.95.65c-.05-.11-.09-.22-.2-.48Zm-3-17.7c.14-.26.32-.49.45-.75s.24-.58.36-.87l.56.93-.21.09a5.67,5.67,0,0,1,0,1c0,.18-.28.48-.4.46a4.16,4.16,0,0,1-1-.32C112.93,50.26,113,50.07,113.1,49.89ZM111.52,39.6a2.59,2.59,0,0,1,.7.25l-.56.62a2.93,2.93,0,0,1-.45-.55C111.19,39.87,111.42,39.6,111.52,39.6Zm.35,53.08c.14.2.35.41.32.46a1.26,1.26,0,0,1-.54.43c-.1,0-.29-.13-.45-.21Zm-.93-8c.16.3.25.42.23.44l-.88.82c0-.13-.12-.28-.07-.36C110.4,85.32,110.62,85.08,110.94,84.69Zm-4.76-40.51c.09.2.21.32.18.41a1.5,1.5,0,0,1-.27.42c-.11-.12-.33-.25-.31-.36S106,44.39,106.18,44.18Zm-1.5,23.92a2.23,2.23,0,0,1,.22.4,3.17,3.17,0,0,1-.6.33s-.2-.22-.18-.23A7.48,7.48,0,0,1,104.68,68.1Zm-1-15.1a1.22,1.22,0,0,1,0,.17c-.1,0-.26,0-.29,0-.43-.8-.84-1.62-1.27-2.47,0-.1.09-.29.19-.33a.42.42,0,0,1,.4.1,3.63,3.63,0,0,1,.46.87C103.41,51.87,103.54,52.44,103.7,53Zm-3-20.47a8.46,8.46,0,0,1,1.65-.16c.86.07,1.06.64.57,1.36-.14.2-.26.42-.4.62s-.28.36-.42.53c0-.21,0-.42,0-.63.18-.94-.5-1.25-1.26-1.51a3.39,3.39,0,0,0-.43-.11A.87.87,0,0,1,100.65,32.53Zm-.1,8.86c.08.43.14.56.1.65-.14.36-.31.71-.48,1.06,0-.08-.13-.18-.11-.24C100.18,42.47,100.32,42.08,100.55,41.39Zm-2.4,44.39.88.64c-.24.11-.42.25-.47.21a3.31,3.31,0,0,1-.62-.56S98.08,85.88,98.15,85.78ZM92.92,34.89s.28.16.27.18a2.74,2.74,0,0,1-.29.46l-.46-.3A2.4,2.4,0,0,1,92.92,34.89ZM91.75,62.73l.34.2a7.25,7.25,0,0,1-.67.46s-.18-.14-.27-.22Zm-1.25-38c.17,0,.31.21.47.32-.15.16-.28.4-.47.47s-.38-.1-.71-.2C90.25,24.92,90.39,24.71,90.5,24.72Zm-1.17,6c.15.25.29.4.26.46a8.33,8.33,0,0,1-.51.8c-.07-.16-.21-.33-.17-.46A4.19,4.19,0,0,1,89.33,30.72Z"/><path class="cls-2" d="M156.39,95.78,89.94,7.67C83-1.62,75.05-1.52,68.13,7.77L.75,95.78"/><path class="cls-3" d="M131.37,45.41,101.72,84.14a4.24,4.24,0,0,0,.51.21c0,.08-.13.22-.15.21a3.43,3.43,0,0,0-.59-.12L82.18,109.66c.21.28.41.5.57.69h6.76l.18-.26c.09.1.19.18.27.26h72.27s.05-.07.06-.07l.18.07h34l-49-65C142.36,38.48,136.48,38.55,131.37,45.41ZM89.07,102.9s-.17-.15-.26-.23l.54-.34c.09.11.15.2.21.28A2.43,2.43,0,0,1,89.07,102.9Zm26.15-12.21a3.74,3.74,0,0,1,.64-.48c.1.3.24.57.19.61a2.64,2.64,0,0,1-.66.29C115.33,91,115.17,90.76,115.22,90.69Zm-5.54-10.14c0-.1.3-.09.38-.19s.38-.51.57-.77c.11.36.23.72.32,1-.07.39,0,.75-.2.94a1.73,1.73,0,0,1-.9.46c-.08,0-.37-.36-.39-.57A1.93,1.93,0,0,1,109.68,80.55ZM90.17,107.47s-.22-.12-.34-.19l.67-.81c.12.15.27.3.25.33A4.65,4.65,0,0,1,90.17,107.47Zm8.22-3.85-.62-.65a3.92,3.92,0,0,1,.84-.32c.09,0,.36.31.33.36A3.94,3.94,0,0,1,98.39,103.62Zm2.86-4.05s-.18-.16-.38-.34l1.51-.71a2,2,0,0,1,.17.35C102.13,99.12,101.7,99.35,101.25,99.57ZM109,83.71c-1-.68-1.21,0-1.39.73a4.74,4.74,0,0,1-.29.74.28.28,0,0,1,0,.09h0a3.94,3.94,0,0,1-1,.47c-.23,0-.51-.17-.76-.3,0,0,0-.24,0-.24a5.77,5.77,0,0,1,.72,0c.33,0,.65.06,1,.09l0,0,0-.06.06-1.08c.08-1.14.77-1.47,1.83-.84.14.08.21.27.31.41C109.33,83.69,109.1,83.78,109,83.71ZM109.2,94a6.75,6.75,0,0,1,.82-1c.29.35.63.67.59.71a7.75,7.75,0,0,1-.94.87C109.5,94.34,109.15,94.07,109.2,94Zm1.51,13.64a4.27,4.27,0,0,1-.75-.36l.25-.43.77.52C110.89,107.44,110.76,107.63,110.71,107.61Zm2-10.55s-.3-.29-.27-.41.27-.22.5-.39l.34.46A2.53,2.53,0,0,1,112.67,97.06Zm2.83,8.78a.6.6,0,0,1-.31-.43c0-.09.25-.2.49-.38l.32.67C115.83,105.75,115.62,105.89,115.5,105.84Zm.56-12.27c-.13-.1-.16-.3-.23-.46l.47-.17c.08.19.14.35.2.52C116.35,93.5,116.13,93.62,116.06,93.57Zm.55-14.07a3.49,3.49,0,0,1-1-.29,4.15,4.15,0,0,1,1.06-.58c.17,0,.38.28.58.43C117,79.22,116.84,79.46,116.61,79.5Zm2.09-4.57c.32-.12.63-.24,1-.35,0,0,.18.16.17.18-.17.27-.35.54-.55.8,0,0-.22-.07-.34-.12Zm.82,27.8a9.25,9.25,0,0,1-.32-.88c0-.08.09-.19.14-.29l.51.61Zm.14-12a2.63,2.63,0,0,1-.55-.2c0-.07.08-.19.12-.2.23,0,.46,0,.69,0l.13.23C119.92,90.6,119.78,90.72,119.66,90.71Zm5-15.23s-.21-.1-.38-.19l.76-.77c.08.09.25.25.24.27A6.78,6.78,0,0,1,124.71,75.48Zm2.13-19.06c-.1-.05-.27-.1-.27-.15,0-.31.07-.62.13-1.07.2.23.36.34.35.43A5.41,5.41,0,0,1,126.84,56.42Zm1.39,32.51a7.24,7.24,0,0,1-.38.73c-.09-.13-.28-.3-.24-.38a5.2,5.2,0,0,1,.56-.86C128.21,88.71,128.27,88.84,128.23,88.93ZM129,60.79a9.31,9.31,0,0,1,.58-1c.28.31.58.57.55.62a3.47,3.47,0,0,1-.75.73S129,60.84,129,60.79Zm1.13,3.5s-.28-.15-.52-.28l.52-.58c.13.11.4.26.38.33A1.24,1.24,0,0,1,130.17,64.29Zm-.39-7.75a1.76,1.76,0,0,1-.27-.19l-.39-.46c.4-.17.79-.36,1.2-.52,0,0,.27.24.25.26C130.32,56,130.05,56.25,129.78,56.54Zm13.84,4.26a4.35,4.35,0,0,1,.48.8c0,.09-.16.27-.25.41l-.54-.61ZM144,81.12c0,.1-.23.23-.36.35a2.13,2.13,0,0,1-.27-.46c0-.08.11-.2.22-.38C143.82,80.84,144,81,144,81.12Zm-10.95,22.55s-.47-.41-.44-.45a6.41,6.41,0,0,1,.79-.83,5.27,5.27,0,0,1,.48.56A4.38,4.38,0,0,1,133.09,103.67Zm1.86-16a3.67,3.67,0,0,1-.53.75c-.08-.14-.24-.29-.23-.44a2.88,2.88,0,0,1,.23-.66l.33-.15C134.83,87.3,135,87.51,135,87.63Zm2.16,5.94-.13-.09c.16-.24.33-.46.49-.69l.19.13C137.48,93.14,137.3,93.36,137.11,93.57Zm.55-5.7-.78-.36c.14-.09.31-.26.42-.23.46.1.91.27,1.36.41Zm1.54-19.3c-.2,0-.59-.2-.6-.33s.21-.46.4-.82c.29.3.56.46.64.69S139.37,68.55,139.2,68.57Zm1.9,34.4-1.18-1c.38-.15.71-.37.82-.3a1.89,1.89,0,0,1,.63.77C141.43,102.54,141.2,102.78,141.1,103Zm2.93.23c-.16,0-.36-.11-.73-.23a2.17,2.17,0,0,1,.64-.31,1.37,1.37,0,0,1,.49.17C144.3,103,144.18,103.16,144,103.2Zm.91-5c-1.57.27-2.11-1.12-3-1.84-.22-.18.11-1.17.39-1.69a5.1,5.1,0,0,1,1.18-1.07c.08.09.23.2.21.28s-.11.48-.23.51c-1.08.29-1.41.93-.95,1.86a2.77,2.77,0,0,0,2.76,1.52h0l.21.23A2.79,2.79,0,0,1,144.94,98.16Zm48,8.35.35.18a5.35,5.35,0,0,1,.17.87c0,.11-.18.23-.28.35a3,3,0,0,1-.54-.78C192.61,107,192.85,106.72,193,106.51Zm-3.6-2.72.14.59-.07.32c-.07-.26-.15-.51-.21-.77C189.21,103.9,189.31,103.84,189.36,103.79Zm-2.28-3.88a2.72,2.72,0,0,1,.2.78c0,.15-.19.29-.29.44a2.12,2.12,0,0,1-.35-.61C186.62,100.4,186.84,100.24,187.08,99.91Zm-4.75,9.44s.18.11.28.17l-.4.47c-.11-.15-.26-.29-.23-.33A1,1,0,0,1,182.33,109.35ZM177.66,90.5c.19.13.33.24.47.35-.08.08-.17.24-.23.23a3,3,0,0,1-.54-.21Zm-2.15-3.34c.16.42.3.73.39,1,0,.07-.13.19-.2.29l-1.15-.76Zm-2.16,13.4.23,0c.15.32.3.63.42,1a1.77,1.77,0,0,1,.05.52,5.65,5.65,0,0,1-.68-.8C173.27,101,173.35,100.78,173.35,100.56Zm-3.17-14.78c.06.13-.16.36-.25.55-.11-.13-.27-.24-.32-.38a7.18,7.18,0,0,1-.15-1A4.43,4.43,0,0,1,170.18,85.78Zm-2.26,13.33c-.32-.23-.63-.49-.94-.75.1,0,.25-.19.3-.16.34.16.66.36,1,.58C168.12,99,168,99.13,167.92,99.11Zm-1-22.26c.14-.08.42.08.94.19-.66.36-1,.57-1.43.75,0,0-.19-.18-.29-.28A4.47,4.47,0,0,1,166.94,76.85Zm-1.89,22.33c-.13,0-.28-.22-.31-.36s.18-.21.32-.37l.5.55C165.39,99.07,165.21,99.2,165.05,99.18Zm-.43-27a2.63,2.63,0,0,1,.66.33c-.37.19-.52.32-.59.29a2.1,2.1,0,0,1-.46-.34C164.36,72.36,164.5,72.17,164.62,72.18Zm-1.76,7.6a3.93,3.93,0,0,1,.46,1c0,.18-.2.37-.31.56a4.29,4.29,0,0,1-.39-.77C162.58,80.4,162.71,80.22,162.86,79.78ZM161.41,70l.33.08c0,.14.16.31.11.4-.25.45-.55.88-.83,1.32-.11-.25-.35-.54-.29-.73A5.52,5.52,0,0,1,161.41,70Zm-.91,28.43a1,1,0,0,1,0,.19c-.08,0-.22.22-.3.19a3.59,3.59,0,0,1-.66-.31l-.95-.47c.13,0,.29-.15.4-.12C159.5,98.05,160,98.24,160.5,98.42Zm-1.93-20.83c.09.18.24.39.21.41a4,4,0,0,1-.8.57s-.24-.2-.36-.31Zm-2.36,7.48a4.33,4.33,0,0,1,.56.93c0,.1-.27.37-.3.36a1.75,1.75,0,0,1-.68-.5C155.72,85.77,156,85.48,156.21,85.07Zm-2.6-6c-.33,0-.81,0-.94-.24a3.79,3.79,0,0,1-.35-1.28c0-.06.08-.14.13-.21l1.89,1.42C154,78.88,153.77,79,153.61,79Zm-1.08-19.85a5.39,5.39,0,0,1,.67-.94c.14.08.28.11.28.17.08.45.34,1,.13,1.32s-.91.53-1.39.78A8.3,8.3,0,0,1,152.53,59.17Zm-1,43.23a1.51,1.51,0,0,1-.38-.12l.41-.32c.15.14.24.21.34.29A1.07,1.07,0,0,1,151.56,102.4Zm-.21-11.22a4,4,0,0,1,.48,1.13,2.66,2.66,0,0,1-.36.91c-.18-.47-.39-.94-.54-1.43C150.9,91.69,151.1,91.53,151.35,91.18ZM150.12,98l-.75-.48c.11-.06.25-.18.34-.15a3.82,3.82,0,0,1,.64.32Zm-.22-25.42c.08.09.25.25.23.27a4.48,4.48,0,0,1-.56.6,3.23,3.23,0,0,1-.37-.25C149.47,73,149.69,72.8,149.9,72.61ZM148.75,57.4c.19.11.29.34.43.52-.14.08-.33.27-.41.24a3.08,3.08,0,0,1-.63-.52C148.44,57.52,148.67,57.34,148.75,57.4Zm-2.2,46.73s-.34-.31-.3-.36a4.18,4.18,0,0,1,.58-.67l.69.43C147.2,103.74,146.88,104,146.55,104.13Z"/><path class="cls-2" d="M197.06,110.06,148,45c-5.1-6.85-11-6.78-16.09.08L82.22,110.06"/></g></g></svg>