<svg xmlns="http://www.w3.org/2000/svg" xmlns:xlink="http://www.w3.org/1999/xlink" viewBox="0 0 197.81 110.81"><defs><style>.cls-1{fill:url(#未命名漸層_9);}.cls-2{fill:none;stroke:#5e6472;stroke-linecap:round;stroke-linejoin:round;stroke-width:1.5px;}.cls-3{fill:url(#未命名漸層_9-2);}</style><linearGradient id="未命名漸層_9" x1="-951.43" y1="98.37" x2="-951.43" y2="-2.19" gradientTransform="matrix(-1, 0, 0, 1, -832.19, 0)" gradientUnits="userSpaceOnUse"><stop offset="0" stop-color="#b1d660"/><stop offset="1" stop-color="#00a878"/></linearGradient><linearGradient id="未命名漸層_9-2" x1="-890.66" y1="111.98" x2="-890.66" y2="37.78" xlink:href="#未命名漸層_9"/></defs><g id="圖層_2" data-name="圖層 2"><g id="圖層_1-2" data-name="圖層 1"><path class="cls-1" d="M107.87,8.05,99,19.79l.66.4-.32.18a3.55,3.55,0,0,1-.31.23c-.09-.16-.19-.32-.29-.47l-57.34,76h76.39a.2.2,0,0,1-.09-.14,2.11,2.11,0,0,1,.22-.62c.18.24.34.36.31.43a.92.92,0,0,1-.19.33h8.75l-.22-.17c.15-.08.25-.19.36-.19a1,1,0,0,1,.36.11,2.76,2.76,0,0,1-.21.25h39.07l.27-.38a3.72,3.72,0,0,0,.17.38h30.45l-67.38-88C122.76-1.14,114.79-1.24,107.87,8.05Zm3.76,30.69a2.79,2.79,0,0,1-.41.83c-.13-.23-.26-.46-.42-.77.17-.28.33-.54.5-.8C111.42,38.25,111.65,38.51,111.63,38.74Zm3.69-8.08a8.45,8.45,0,0,1-.89.3c-.07,0-.2-.13-.3-.2l.9-.67Zm14.21-13.44c0,.1-.19.28-.3.42l-.59-.75L129,16C129.19,16.41,129.4,16.8,129.53,17.22ZM130,49.38a4.9,4.9,0,0,1-.51.8l-.52-.37c-.13-.18-.27-.35-.41-.53a5.73,5.73,0,0,1,1-.28C129.73,49,130,49.31,130,49.38Zm.91-27.69c-.08,0-.2.13-.23.11-.19-.13-.36-.28-.53-.42l.24-.1Zm9.59,33.48c.05.11.15.23.13.34-.06.41-.15.82-.24,1.23l-.26,0a3.17,3.17,0,0,1-.54-1.09C139.58,55.54,140.18,55.35,140.5,55.17Zm22,6.13a5,5,0,0,1-.67.32s-.17-.14-.26-.22A2.54,2.54,0,0,1,162,61C162.11,61,162.27,61.17,162.46,61.3Zm9,8.18c-.21.2-.41.4-.63.58,0,0-.18-.11-.27-.17l.6-.68Zm19.93,21.84c.4-.12.59-.24.73-.2a1.82,1.82,0,0,1,.55.35c-.11.11-.25.35-.31.33A6,6,0,0,1,191.42,91.32Zm-12-3.23,1.2-.78a4.85,4.85,0,0,1,.82,1.1c0,.14-.52.65-.59.61A12.07,12.07,0,0,1,179.39,88.09Zm-4.17-15.91,1.12-.48.33.38a3.69,3.69,0,0,1-.84.38C175.64,72.49,175.42,72.28,175.22,72.18ZM174,66.82a1.6,1.6,0,0,1,.34-.35l.26.35c-.13.11-.25.28-.32.26S174,66.86,174,66.82Zm-2.42,17.33a2.7,2.7,0,0,1,.59-.3c.09,0,.21.11.31.18-.09.14-.17.36-.29.39S171.86,84.29,171.56,84.15Zm-.52-2a3.15,3.15,0,0,1-.91-.27l.92-.64,1,.55A3.89,3.89,0,0,1,171,82.19Zm-1.45,13.53.42-.47.58.44c-.13.08-.26.21-.39.2A2.64,2.64,0,0,1,169.59,95.72ZM167.33,68.5c0-.08,0-.47,0-.86,0-.1.14-.2.24-.27s.2.1.21.16c.05.74.12,1.48.11,2.22,0,.26-.25.52-.38.78a3,3,0,0,1-.3-.72A8.76,8.76,0,0,1,167.33,68.5Zm-1.06-4a6.09,6.09,0,0,1,.55-.46s.18.1.28.16l-.53.58Zm-1.79-3.62c.07-.16.12-.29.18-.42.1.08.28.17.28.24a1.88,1.88,0,0,1-.18.48Zm-1.7,6.1a9.06,9.06,0,0,1-.54-1c-.05-.09,0-.23.07-.52.24.25.43.36.48.51a10.42,10.42,0,0,1,.28,1.1C163,67,162.83,67,162.78,66.94Zm-1,24.31a3.7,3.7,0,0,1,0-.74c.13-.46.28-.9.45-1.35a.74.74,0,0,1,.25,0,14.77,14.77,0,0,1,0,1.63,2.7,2.7,0,0,1-.27.8c0,.1-.16.18-.24.26-.05-.08-.15-.15-.16-.23A2.27,2.27,0,0,1,161.77,91.25Zm-.57-20.17c.4-.12.61-.25.79-.22a2.14,2.14,0,0,1,.6.34c-.15.16-.35.48-.46.45A3.91,3.91,0,0,1,161.2,71.08Zm-4.71,2.28.18-.15.29-.31c.28.41.56.81.83,1.23,0,0-.15.12-.16.11C157.24,74,156.86,73.66,156.49,73.36ZM154.21,95l.47-.37a2.09,2.09,0,0,1,.14.17l-.5.33Zm-1.32-14.11,1.53-.73a2.45,2.45,0,0,1,.35-.09c.08.06.29.12.29.2s-.06.42-.16.45c-.62.16-1.25.28-1.89.39C153,81.07,152.89,80.85,152.89,80.84Zm-.57-26.55c0-.2.35-.5.55-.76.19.29.39.57.62.9l-.46.72C152.78,54.87,152.4,54.61,152.32,54.29Zm-.55-11.74s0-.18.08-.35l1.07.7a2.89,2.89,0,0,1-.24.27A8.1,8.1,0,0,1,151.77,42.55Zm-2,38.41,1.61,1.31c-.08.07-.2.21-.23.19a17,17,0,0,1-1.57-.87S149.69,81.26,149.79,81Zm-.94-13.57.76.87c.17.19.35.36.61.63a1.81,1.81,0,0,1-.28.12c-.37-.45-.73-.89-1.08-1.35C148.82,67.6,148.85,67.48,148.85,67.39Zm-.35-26.9s-.2-.1-.41-.22a8.08,8.08,0,0,1,.76-.52s.18.16.27.24A5,5,0,0,1,148.5,40.49Zm-1.38,5.77c.38-.66.7-1.21,1-1.75a1,1,0,0,1,.18.09c-.2.43-.4.87-.62,1.3a1.3,1.3,0,0,1-.28.34C147.38,46.28,147.27,46.25,147.12,46.26Zm-1.29,29.27.23,0a3.6,3.6,0,0,1,.12.44,4.93,4.93,0,0,1,0,.54,3,3,0,0,1-.34-.46A1.44,1.44,0,0,1,145.83,75.53Zm-1.4-40.9.8-.31.25.12a3.76,3.76,0,0,1-.62.27A1.12,1.12,0,0,1,144.43,34.63ZM143.1,75.91a2.75,2.75,0,0,1,.27-.64,3.13,3.13,0,0,1,.14.74c0,.1-.17.19-.26.29C143.2,76.17,143.09,76,143.1,75.91Zm-1.41-32.64c-.21.16-.37.34-.41.31a8.13,8.13,0,0,1-.78-.52c.09-.09.21-.27.25-.25C141.05,42.93,141.33,43.09,141.69,43.27Zm-.82,43.15.16-.31c.19.42.38.84.55,1.26,0,.06-.06.16-.1.25Zm-1.38-3a1.21,1.21,0,0,1,.43-.1c.33.07.65.18,1,.27l0,.16a4.51,4.51,0,0,1-.53-.1ZM139,21.66c0-.14.09-.3.15-.46l.22,0a3.09,3.09,0,0,1,.08.6,2,2,0,0,1-.16.51A3,3,0,0,1,139,21.66Zm-1.72,67.45c0-.11.15-.27.33-.57.17.31.31.45.3.58s-.17.26-.27.39C137.48,89.38,137.29,89.26,137.24,89.11ZM136.39,32a8.87,8.87,0,0,1,.88-1c.15.31.29.5.25.55-.24.29-.51.55-.78.83C136.62,32.28,136.36,32.05,136.39,32ZM135,27.38c-.14-.16-.39-.31-.4-.48a3.39,3.39,0,0,1,.29-.89c.27.3.55.49.52.62A2.92,2.92,0,0,1,135,27.38Zm-.89,9.94a6.94,6.94,0,0,1-1.28-.08l.9-.4,1,.09C134.51,37.07,134.3,37.3,134.06,37.32Zm-1.68,12.9c.39.05.77.08,1.15.14a1.47,1.47,0,0,1,.34.15l0,.14c-.4,0-.79-.09-1.17-.17C132.56,50.46,132.48,50.31,132.38,50.22Zm-.49-36.4c-.33-.08-.6-.42-.87-.67,0,0,.14-.22.2-.31l1.39.38C132.36,13.44,132.07,13.86,131.89,13.82Zm-1.21,13,.54-.4.26.41a1.86,1.86,0,0,1-.5.24C130.89,27.06,130.78,26.9,130.68,26.81Zm-2.54,49a3.2,3.2,0,0,1,.93-.56,2.74,2.74,0,0,1,1.16.13c.11,0,.14.33.21.5l-.48-.25c-.5-.29-.85-.21-1.08.33-.06.12-.32.16-.49.21S128.29,76,128.14,75.81Zm-1-48.28s-.19-.14-.29-.22l1-.76a2.31,2.31,0,0,1,.22.35A9.36,9.36,0,0,1,127.17,27.53Zm-1.1,42.73.24-.14.94.67c-.11.07-.28.22-.32.2C126.63,70.76,126.35,70.51,126.07,70.26Zm-.68-54.5s.15-.15.31-.29l.44.76c-.12,0-.31.12-.35.08A2.15,2.15,0,0,1,125.39,15.76Zm-2.33,10.59a4.2,4.2,0,0,1,.52-.4c.06.2.14.35.1.38a3,3,0,0,1-.46.3C123.16,26.53,123,26.38,123.06,26.35Zm-.24-5.2c0-.06.06-.21.15-.48.19.25.32.36.36.5s-.07.23-.12.35A1.72,1.72,0,0,1,122.82,21.15Zm-2.69,50.2c.08-.09.15-.18.23-.26l.58.46c-.13,0-.29.12-.4.08A1.5,1.5,0,0,1,120.13,71.35Zm-1-52.77c-.19.13-.38.28-.57.42a8.47,8.47,0,0,1-.62-1.29c0-.12.25-.35.39-.52Zm-.39,60.81a1.45,1.45,0,0,1-.26.42c-.08-.11-.2-.21-.22-.32a1.79,1.79,0,0,1,.12-.43C118.56,79.2,118.77,79.31,118.76,79.39Zm-1,5.2c.31,0,.47-.1.56,0a1.52,1.52,0,0,1,.39.33c-.13,0-.27.14-.38.11A2.74,2.74,0,0,1,117.72,84.59Zm-.3-24.7a.81.81,0,0,1-.26-.41s.21-.13.41-.25a2.26,2.26,0,0,1,.21.52S117.48,59.93,117.42,59.89Zm-.93,26.84c.12-.1.26-.3.37-.29a3.16,3.16,0,0,1,.73.34c-.3.16-.48.34-.62.31S116.65,86.86,116.49,86.73Zm-.21-48a2.6,2.6,0,0,1,.38-.53l.43.53-.59.38C116.42,39,116.25,38.83,116.28,38.73Zm-1.2,36.2c.09-.05.21-.17.27-.15.26.1.5.24.76.37-.11.15-.2.29-.21.29C115.62,75.28,115.35,75.1,115.08,74.93Zm-.83-31.45c-.3-.39-.6-.77-.88-1.16,0,0,.12-.18.18-.27.33.32.67.63,1,.92ZM112.78,88.6a7.39,7.39,0,0,1,.84-.57s.35.35.32.39a1.36,1.36,0,0,1-.53.42C113.3,88.88,113.11,88.73,112.78,88.6Zm-.9-5.22.4-.21.42.36c-.13,0-.28.12-.39.09A1.52,1.52,0,0,1,111.88,83.38Zm-.28-20.49c.08,0,.22,0,.25,0,.57.84,1.21.73,2,.07.06.14.17.27.14.32-.39.54-.71,1.4-1.22,1.52-.87.2-.53-.83-.83-1.26a3,3,0,0,1-.23-.38A2,2,0,0,1,111.6,62.89Zm-.87,10.7a5.17,5.17,0,0,1,.15-.86l.29,0c.07.14.22.29.19.41A6.85,6.85,0,0,1,111,74C110.9,73.83,110.73,73.71,110.73,73.59Zm-15.81,9.8,1.1-.48c.09.13.15.23.21.33a9.64,9.64,0,0,1-1,.54S95,83.53,94.92,83.39Zm-.34-10a6.54,6.54,0,0,1,.46-1l.14.36c-.11.36-.21.72-.32,1.07C94.76,73.66,94.55,73.48,94.58,73.38ZM62.44,92.86l.3-.79a2.25,2.25,0,0,1,0,.52c-.07.3-.19.6-.29.9Zm-8.17,2.58s-.36.46-.41.43a6.17,6.17,0,0,1-.81-.56l.5-.58A4.85,4.85,0,0,1,54.27,95.44ZM58.9,86c-.14.07-.31.22-.43.2s-.24-.22-.28-.36.08-.26.15-.45ZM63,78c-.11.11-.24.32-.32.3s-.28-.2-.47-.35c.18-.14.32-.3.38-.28A1.86,1.86,0,0,1,63,78Zm4.8-13.8a6,6,0,0,1-.42.57c-.08-.15-.26-.34-.22-.44a3.46,3.46,0,0,1,.59-.64C67.74,64,67.8,64.14,67.76,64.22ZM68.44,89c0,.06-.25.4-.28.38a6.18,6.18,0,0,1-.79-.45l-.21-.43c.23-.07.54-.28.68-.2A1.72,1.72,0,0,1,68.44,89Zm.62-4.22c0,.17-.08.42-.19.45s-.34-.09-.68-.2c.26-.19.38-.34.54-.39A.44.44,0,0,1,69.06,84.76Zm1.87.39a8.85,8.85,0,0,1,1.27,1.18c0,.08-.45.53-.7.8-.27-.46-.55-.93-.79-1.41C70.67,85.63,70.81,85.45,70.93,85.15Zm1.83-25.52a12.45,12.45,0,0,1-.82,1.27l-.52-.4,1-1.45C72.56,59.24,72.82,59.5,72.76,59.63Zm4.86-8.26c-.13.1-.29.3-.41.29a2.12,2.12,0,0,1-.56-.32l.29-.41Zm2.07,29.95a2.84,2.84,0,0,1-.4.66c-.17-.14-.5-.33-.47-.42a3.06,3.06,0,0,1,.53-.74C79.52,81.05,79.72,81.22,79.69,81.32ZM82.5,68.19l-.2.48-1-.65.33-.43ZM85,50.44a4.16,4.16,0,0,1-1,.32c-.12,0-.36-.28-.4-.46a5.67,5.67,0,0,1,0-1l-.21-.09.56-.93c.12.29.22.59.36.87s.31.49.45.75S84.88,50.26,85,50.44ZM86.6,39.92a2.93,2.93,0,0,1-.45.55l-.56-.62a2.59,2.59,0,0,1,.7-.25C86.39,39.6,86.62,39.87,86.6,39.92Zm0,53.44c-.16.08-.35.25-.45.21a1.26,1.26,0,0,1-.54-.43s.18-.26.32-.46Zm1-7.77c0,.08,0,.23-.07.36l-.88-.82s.07-.14.23-.44C87.19,85.08,87.41,85.32,87.59,85.59ZM92,44.65c0,.11-.2.24-.31.36a1.5,1.5,0,0,1-.27-.42c0-.09.09-.21.18-.41C91.82,44.39,92,44.51,92,44.65ZM93.69,68.6s-.16.24-.18.23a3.17,3.17,0,0,1-.6-.33,2.23,2.23,0,0,1,.22-.4A7.48,7.48,0,0,1,93.69,68.6Zm.9-17.28a3.63,3.63,0,0,1,.46-.87.42.42,0,0,1,.4-.1c.1,0,.14.23.19.33-.43.85-.84,1.67-1.27,2.47,0,0-.19,0-.29,0a1.22,1.22,0,0,1,0-.17C94.27,52.44,94.4,51.87,94.59,51.32Zm2.82-18.69a3.39,3.39,0,0,0-.43.11c-.76.26-1.44.57-1.26,1.51,0,.21,0,.42,0,.63-.14-.17-.29-.35-.42-.53s-.26-.42-.4-.62c-.49-.72-.29-1.29.57-1.36a8.46,8.46,0,0,1,1.65.16A.87.87,0,0,1,97.41,32.63Zm.34,10.23c0,.06-.07.16-.11.24-.17-.35-.34-.7-.48-1.06,0-.09,0-.22.1-.65C97.49,42.08,97.63,42.47,97.75,42.86Zm2.12,43.21a3.31,3.31,0,0,1-.62.56s-.23-.1-.47-.21l.88-.64C99.73,85.88,99.89,86.05,99.87,86.07Zm5.5-50.84-.46.3a2.74,2.74,0,0,1-.29-.46s.22-.21.27-.18A2.4,2.4,0,0,1,105.37,35.23Zm1.29,27.94c-.09.08-.23.24-.27.22a7.25,7.25,0,0,1-.67-.46l.34-.2ZM108,25.31c-.33.1-.56.25-.71.2s-.32-.31-.47-.47c.16-.11.3-.29.47-.32S107.56,24.92,108,25.31Zm.88,6.21c0,.13-.1.3-.17.46a8.33,8.33,0,0,1-.51-.8c0-.06.11-.21.26-.46A4.19,4.19,0,0,1,108.9,31.52Z"/><path class="cls-2" d="M41.42,95.78,107.87,7.67c6.92-9.29,14.89-9.19,21.81.1l67.38,88"/><path class="cls-3" d="M50.34,45.33l-49,65h34l.18-.07s0,0,.06.07h72.27c.08-.08.18-.16.27-.26l.18.26h6.76c.16-.19.36-.41.57-.69L96.32,84.44a3.43,3.43,0,0,0-.59.12s-.1-.13-.15-.21a4.24,4.24,0,0,0,.51-.21L66.44,45.41C61.33,38.55,55.45,38.48,50.34,45.33Zm57.91,57.28.21-.28.54.34c-.09.08-.21.25-.26.23A2.43,2.43,0,0,1,108.25,102.61ZM82.42,91.11a2.64,2.64,0,0,1-.66-.29c-.05,0,.09-.31.19-.61a3.74,3.74,0,0,1,.64.48C82.64,90.76,82.48,91,82.42,91.11Zm5.93-9.69c0,.21-.31.59-.39.57a1.73,1.73,0,0,1-.9-.46c-.17-.19-.13-.55-.2-.94.09-.28.21-.64.32-1,.19.26.36.53.57.77s.34.09.38.19A1.93,1.93,0,0,1,88.35,81.42Zm18.71,25.38s.13-.18.25-.33l.67.81c-.12.07-.32.21-.34.19A4.65,4.65,0,0,1,107.06,106.8ZM98.87,103c0-.05.24-.38.33-.36a3.92,3.92,0,0,1,.84.32l-.62.65A3.94,3.94,0,0,1,98.87,103Zm-3.61-4.14a2,2,0,0,1,.17-.35l1.51.71c-.2.18-.34.36-.38.34C96.11,99.35,95.68,99.12,95.26,98.87Zm-7-15.2c.1-.14.17-.33.31-.41,1.06-.63,1.75-.3,1.83.84l.06,1.08,0,.06,0,0c.33,0,.65-.07,1-.09a5.77,5.77,0,0,1,.72,0s.06.23,0,.24c-.25.13-.53.34-.76.3a3.94,3.94,0,0,1-1-.47h0a.28.28,0,0,1,0-.09,4.74,4.74,0,0,1-.29-.74c-.18-.75-.37-1.41-1.39-.73C88.71,83.78,88.48,83.69,88.3,83.67Zm-.16,10.86a7.75,7.75,0,0,1-.94-.87s.3-.36.59-.71a6.75,6.75,0,0,1,.82,1C88.66,94.07,88.31,94.34,88.14,94.53Zm-1.31,12.81.77-.52.25.43a4.27,4.27,0,0,1-.75.36S86.92,107.44,86.83,107.34ZM84.57,96.72l.34-.46c.23.17.47.26.5.39s-.22.42-.27.41A2.53,2.53,0,0,1,84.57,96.72Zm-2.76,9,.32-.67c.24.18.5.29.49.38a.6.6,0,0,1-.31.43C82.19,105.89,82,105.75,81.81,105.7Zm-.5-12.24c.06-.17.12-.33.2-.52l.47.17c-.07.16-.1.36-.23.46S81.46,93.5,81.31,93.46Zm-.74-14.4c.2-.15.41-.45.58-.43a4.15,4.15,0,0,1,1.06.58,3.49,3.49,0,0,1-1,.29C81,79.46,80.78,79.22,80.57,79.06Zm-1.7-3.62c-.12,0-.31.15-.34.12-.2-.26-.38-.53-.55-.8,0,0,.14-.19.17-.18.33.11.64.23,1,.35ZM78,102.17l.51-.61c0,.1.16.21.14.29a9.25,9.25,0,0,1-.32.88Zm-.2-11.63.13-.23c.23,0,.46,0,.69,0,0,0,.08.13.12.2a2.63,2.63,0,0,1-.55.2C78,90.72,77.89,90.6,77.76,90.54ZM72.48,74.79s.16-.18.24-.27l.76.77c-.17.09-.35.21-.38.19A6.78,6.78,0,0,1,72.48,74.79ZM70.76,55.63c0-.09.15-.2.35-.43.06.45.11.76.13,1.07,0,0-.17.1-.27.15A5.41,5.41,0,0,1,70.76,55.63ZM69.64,88.42a5.2,5.2,0,0,1,.56.86c0,.08-.15.25-.24.38a7.24,7.24,0,0,1-.38-.73C69.54,88.84,69.6,88.71,69.64,88.42ZM68.39,61.09a3.47,3.47,0,0,1-.75-.73s.27-.31.55-.62a9.31,9.31,0,0,1,.58,1C68.79,60.84,68.42,61.11,68.39,61.09Zm-1.13,2.67c0-.07.25-.22.38-.33l.52.58c-.24.13-.48.31-.52.28A1.24,1.24,0,0,1,67.26,63.76Zm0-8.13s.21-.28.25-.26c.41.16.8.35,1.2.52l-.39.46a1.76,1.76,0,0,1-.27.19C67.76,56.25,67.49,56,67.24,55.63ZM54.5,61.4,54,62c-.09-.14-.29-.32-.25-.41a4.35,4.35,0,0,1,.48-.8Zm-.32,19.23c.11.18.24.3.22.38a2.13,2.13,0,0,1-.27.46c-.13-.12-.37-.25-.36-.35S54,80.84,54.18,80.63ZM63.89,103a5.27,5.27,0,0,1,.48-.56,6.41,6.41,0,0,1,.79.83s-.42.47-.44.45A4.38,4.38,0,0,1,63.89,103Zm-.83-15.82.33.15a2.88,2.88,0,0,1,.23.66c0,.15-.15.3-.23.44a3.67,3.67,0,0,1-.53-.75C62.8,87.51,63,87.3,63.06,87.13Zm-2.91,5.79.19-.13c.16.23.33.45.49.69l-.13.09C60.51,93.36,60.33,93.14,60.15,92.92Zm-1-5.23c.45-.14.9-.31,1.36-.41.11,0,.28.14.42.23l-.78.36Zm-1-19.58c.08-.23.35-.39.64-.69.19.36.42.6.4.82s-.4.34-.6.33S58.14,68.21,58.17,68.11Zm-1.73,34.31a1.89,1.89,0,0,1,.63-.77c.11-.07.44.15.82.3l-1.18,1C56.61,102.78,56.38,102.54,56.44,102.42Zm-3.06.41a1.37,1.37,0,0,1,.49-.17,2.17,2.17,0,0,1,.64.31c-.37.12-.57.26-.73.23S53.51,103,53.38,102.83ZM52.32,98l.21-.23h0a2.77,2.77,0,0,0,2.76-1.52c.46-.93.13-1.57-.95-1.86-.12,0-.2-.33-.23-.51s.13-.19.21-.28a5.1,5.1,0,0,1,1.18,1.07c.28.52.61,1.51.39,1.69-.91.72-1.45,2.11-3,1.84A2.79,2.79,0,0,1,52.32,98ZM5.15,107.13a3,3,0,0,1-.54.78c-.1-.12-.28-.24-.28-.35a5.35,5.35,0,0,1,.17-.87l.35-.18C5,106.72,5.2,107,5.15,107.13Zm3.44-3.2c-.06.26-.14.51-.21.77l-.07-.32.14-.59C8.5,103.84,8.6,103.9,8.59,103.93Zm2.58-3.41a2.12,2.12,0,0,1-.35.61c-.1-.15-.28-.29-.29-.44a2.72,2.72,0,0,1,.2-.78C11,100.24,11.19,100.4,11.17,100.52Zm4.66,9.14s-.12.18-.23.33l-.4-.47c.1-.06.23-.19.28-.17A1,1,0,0,1,15.83,109.66Zm4.62-18.79a3,3,0,0,1-.54.21c-.06,0-.15-.15-.23-.23.14-.11.28-.22.47-.35Zm2.81-3.13-1.15.76c-.07-.1-.22-.22-.2-.29.09-.32.23-.63.39-1Zm1.18,13.46a5.65,5.65,0,0,1-.68.8,1.77,1.77,0,0,1,0-.52c.12-.33.27-.64.42-1l.23,0C24.46,100.78,24.54,101,24.44,101.2Zm3.91-16.27a7.18,7.18,0,0,1-.15,1c-.05.14-.21.25-.32.38-.09-.19-.31-.42-.25-.55A4.43,4.43,0,0,1,28.35,84.93Zm1.14,13.85c.38-.22.7-.42,1-.58,0,0,.2.11.3.16-.31.26-.62.52-.94.75C29.86,99.13,29.69,99,29.49,98.78Zm2.16-21.27c-.1.1-.25.3-.29.28-.4-.18-.77-.39-1.43-.75.52-.11.8-.27.94-.19A4.47,4.47,0,0,1,31.65,77.51ZM32.25,99l.5-.55c.14.16.34.28.32.37s-.18.35-.31.36S32.42,99.07,32.25,99Zm1.33-26.54a2.1,2.1,0,0,1-.46.34c-.07,0-.22-.1-.59-.29a2.63,2.63,0,0,1,.66-.33C33.31,72.17,33.45,72.36,33.58,72.46Zm1.61,8.06a4.29,4.29,0,0,1-.39.77c-.11-.19-.32-.38-.31-.56a3.93,3.93,0,0,1,.46-1C35.1,80.22,35.23,80.4,35.19,80.52Zm1.89-9.46c.06.19-.18.48-.29.73-.28-.44-.58-.87-.83-1.32-.05-.09.07-.26.11-.4L36.4,70A5.52,5.52,0,0,1,37.08,71.06ZM38.82,97.9c.11,0,.27.08.4.12l-.95.47a3.59,3.59,0,0,1-.66.31c-.08,0-.22-.14-.3-.19a1,1,0,0,1,0-.19C37.81,98.24,38.31,98.05,38.82,97.9Zm1.37-19.64c-.12.11-.32.34-.36.31A4,4,0,0,1,39,78s.12-.23.21-.41ZM42,85.86a1.75,1.75,0,0,1-.68.5S41,86.1,41,86a4.33,4.33,0,0,1,.56-.93C41.83,85.48,42.09,85.77,42,85.86Zm1.45-7.15,1.89-1.42c0,.07.14.15.13.21a3.79,3.79,0,0,1-.35,1.28c-.13.2-.61.21-.94.24C44,79,43.86,78.88,43.47,78.71ZM45.59,60.5c-.48-.25-1.12-.39-1.39-.78s0-.87.13-1.32c0-.06.14-.09.28-.17a5.39,5.39,0,0,1,.67.94A8.3,8.3,0,0,1,45.59,60.5Zm.29,41.75c.1-.08.19-.15.34-.29l.41.32a1.51,1.51,0,0,1-.38.12A1.07,1.07,0,0,1,45.88,102.25Zm1-10.46c-.15.49-.36,1-.54,1.43a2.66,2.66,0,0,1-.36-.91,4,4,0,0,1,.48-1.13C46.71,91.53,46.91,91.69,46.88,91.79Zm.58,5.93a3.82,3.82,0,0,1,.64-.32c.09,0,.23.09.34.15l-.75.48Zm1.15-24.49a3.23,3.23,0,0,1-.37.25,4.48,4.48,0,0,1-.56-.6s.15-.18.23-.27C48.12,72.8,48.34,73,48.61,73.23Zm1.06-15.59a3.08,3.08,0,0,1-.63.52c-.08,0-.27-.16-.41-.24.14-.18.24-.41.43-.52S49.37,57.52,49.67,57.64Zm.62,45.89.69-.43a4.18,4.18,0,0,1,.58.67s-.27.38-.3.36C50.93,104,50.61,103.74,50.29,103.53Z"/><path class="cls-2" d="M.75,110.06l49-65c5.1-6.85,11-6.78,16.09.08l49.71,64.94"/></g></g></svg>