<svg xmlns="http://www.w3.org/2000/svg" xmlns:xlink="http://www.w3.org/1999/xlink" viewBox="0 0 24 24"><defs><style>.cls-1{fill:none;}.cls-2{fill:#abadb2;}.cls-3{clip-path:url(#clip-path);}.cls-4{fill:#fff;}</style><clipPath id="clip-path" transform="translate(1 2)"><path class="cls-1" d="M16,20a2,2,0,1,1,2-2A2,2,0,0,1,16,20ZM6,20a2,2,0,1,1,2-2A2,2,0,0,1,6,20Zm12-5H6a2,2,0,0,1-2-2,1.89,1.89,0,0,1,.25-1L5.6,9.59,2,2H0V0H3.27l.94,2H19a1,1,0,0,1,.88,1.48L16.3,10a2,2,0,0,1-1.75,1H7.1l-.9,1.63,0,.12a.25.25,0,0,0,.24.25H18Z"/></clipPath></defs><g id="圖層_2" data-name="圖層 2"><g id="圖層_1-2" data-name="圖層 1"><g id="Group_41" data-name="Group 41"><path id="Shape-2" class="cls-2" d="M16,20a2,2,0,1,1,2-2A2,2,0,0,1,16,20ZM6,20a2,2,0,1,1,2-2A2,2,0,0,1,6,20Zm12-5H6a2,2,0,0,1-2-2,1.89,1.89,0,0,1,.25-1L5.6,9.59,2,2H0V0H3.27l.94,2H19a1,1,0,0,1,.88,1.48L16.3,10a2,2,0,0,1-1.75,1H7.1l-.9,1.63,0,.12a.25.25,0,0,0,.24.25H18Z" transform="translate(1 2)"/><g class="cls-3"><g id="Mask_Group_41" data-name="Mask Group 41"><g id="Icon_Fill" data-name="Icon Fill"><rect id="BG" class="cls-4" width="24" height="24"/></g></g></g></g></g></g></svg>