<svg xmlns="http://www.w3.org/2000/svg" viewBox="0 0 390 100"><defs><style>.cls-1{fill:#ade8f4;}</style></defs><g id="圖層_2" data-name="圖層 2"><g id="圖層_1-2" data-name="圖層 1"><path class="cls-1" d="M112.7,100h33.77l-.06-.21.94-.77c0,.08.11.21.08.24-.24.25-.5.5-.75.74h19.64c.15-.16.28-.32.41-.47.07.15.18.32.25.47H329.61l.41-.34.3.34H390V81.83l-.09.11c-.05-.12-.11-.23-.18-.39l.27-.41V70a1.67,1.67,0,0,1-.5-.19c-.26-.18-.32-.65-.46-1,0,0,.15-.09.25-.16l.71.62V60.4l-.15-.1.15-.08V44.36c-.12.16-.29.3-.42.46-.05-.22-.1-.45-.16-.75l.36-.49c.06.09.15.19.22.29V23.21c-11.73,0-20.95-5.67-28.06-13.41-.55-.59-1.11-1.15-1.68-1.69l-.11.06S360,8,359.91,7.9l.07-.05c-6.78-6.3-15-8.81-23-7.52a.88.88,0,0,1,.18.32c0,.1-.32.35-.35.33a1.56,1.56,0,0,1-.5-.49l0,0A29.52,29.52,0,0,0,320.18,9.8c-7.11,7.74-16.33,13.41-28.06,13.41S271.17,17.54,264.05,9.8c-9.76-10.61-23.28-12.61-34.45-6a4.09,4.09,0,0,1,1-.16l.44.1c-.14.17-.24.38-.42.48-.92.53-1.85,1-2.79,1.54-.11.06-.28,0-.43,0a1.15,1.15,0,0,1,0-.26,2.37,2.37,0,0,1,.3-.5A33.56,33.56,0,0,0,222.3,9.8c-7.12,7.74-16.33,13.41-28.07,13.41S173.29,17.54,166.17,9.8c-12-13.07-29.73-13.07-41.75,0-7.12,7.74-16.34,13.41-28.07,13.41C85.08,23.21,76.14,18,69.14,10.7l-.27.14s-.15-.12-.23-.18l.26-.21-.61-.65C61.27,2.17,52.58-1,44.16.28l.66.29c-.2.1-.43.3-.61.27a3,3,0,0,1-.84-.38l.05-.05A29.15,29.15,0,0,0,27.3,9.8C20.18,17.54,11.74,23.21,0,23.21V98l1.19.31c-.09.16-.15.32-.17.31l-1-.34V100H69.44c.06-.09.13-.19.2-.31l.06.31H101l.61-.2s.1.13.15.19h9.86l.45-.58Zm249.72-5.65c-.15-.09-.36-.23-.38-.38s.11-.35.18-.53l.36.19c.05.15.16.31.13.45S362.46,94.37,362.42,94.35Zm2.82-14.92-.19,1.11c-.13-.05-.39-.13-.38-.16.07-.39.18-.77.28-1.15a2.85,2.85,0,0,0,.18-.54,3.51,3.51,0,0,0,0-.56,4.71,4.71,0,0,1,.16.62A4.56,4.56,0,0,1,365.24,79.43Zm.68-8.65c-.51,0-.92-.18-.79-.78,0-.1.3-.26.35-.23.45.28.88.59,1.62,1.11ZM381.18,94c-.29,0-.62-.28-.93-.45l1.05-.88c.25.27.61.55.56.64C381.72,93.62,381.45,94,381.18,94Zm-.86-41.63a2.11,2.11,0,0,1,.16-.62c.25.26.46.38.45.49s-.2.26-.31.39C380.52,52.58,380.34,52.5,380.32,52.4Zm7.18,17.38c0-.12-.13-.27-.08-.37.13-.3.32-.59.48-.89l.21.41Zm.88-5.18a3.59,3.59,0,0,1-.2.51c-.07-.07-.22-.15-.21-.2,0-.21.14-.42.29-.84C388.34,64.39,388.41,64.5,388.38,64.6Zm-.55-24.89.46.29c-.14,0-.3.12-.42.09a6.6,6.6,0,0,1-.77-.33Zm-3-8.46c.11.2.36.49.3.57a2.34,2.34,0,0,1-.75.6c-.05,0-.25-.19-.52-.4ZM381,34.56a8.34,8.34,0,0,1,.77.67c-.31,0-.48,0-.54,0a8.11,8.11,0,0,1-.55-.62C380.81,34.58,381,34.52,381,34.56Zm-.3,2.37a5.58,5.58,0,0,1,1.44.27c.29.15.46.51.68.78-.34.22-.78.7-1,.62a8.2,8.2,0,0,1-1.62-1Zm-1.24,52.3c.09,0,.26.08.25.11a4,4,0,0,1-.12.53l-.31-.11C379.35,89.58,379.42,89.41,379.48,89.23Zm-2.24-22.59.06.33c.1.45.21.9.29,1.35,0,.08-.08.19-.12.28-.09-.09-.25-.17-.27-.26,0-.28,0-.57,0-1.13,0,0,0-.16,0-.3A1.34,1.34,0,0,1,377.24,66.64Zm.1,8.89s.18.11.38.25l-.45.36c-.07-.1-.2-.21-.18-.3A.5.5,0,0,1,377.34,75.53ZM375.16,27.4s.1,0,.15,0l1.36,0c-.05.26,0,.6-.18.78a8.4,8.4,0,0,1-1,.93l-1.68-.51Zm.82,3.77a10.18,10.18,0,0,1-1.06.49c-.1,0-.26-.12-.4-.18,0-.1,0-.2,0-.29.4-.12.8-.24,1.2-.32C375.79,30.85,375.9,31.06,376,31.17Zm-2,10.93,1.31.94c-.24.09-.55.3-.66.23a4,4,0,0,1-.81-.83S373.88,42.22,373.94,42.1ZM373.2,60s.28.22.27.25a3.11,3.11,0,0,1-.54.61,4.27,4.27,0,0,1-.53-.39A6.42,6.42,0,0,1,373.2,60Zm-.53,7.65a3.27,3.27,0,0,1,.59.3c-.08.09-.18.26-.24.25a4.48,4.48,0,0,1-.76-.23C372.46,67.81,372.59,67.63,372.67,67.65Zm-1.29-32a2.85,2.85,0,0,1,.35.46c-.27.27-.56.52-.84.77-.08-.11-.24-.28-.21-.33A9.83,9.83,0,0,1,371.38,35.69Zm-.3,2.58a6.64,6.64,0,0,1,.2.66s-.32.13-.34.1a2.32,2.32,0,0,1-.28-.57A4.5,4.5,0,0,1,371.08,38.27Zm-.43,11.52a17,17,0,0,1,1.1,1.33c.05.07-.13.29-.21.44-.29-.32-.61-.63-.87-1C370.58,50.48,370.65,50.26,370.65,49.79Zm-2.07,16-.89-1c.36-.16.75-.49,1.06-.43a5.6,5.6,0,0,1,1.42.68Zm-.14-4.7c.13-.19.26-.38.4-.56a1.53,1.53,0,0,1,.23.14l-.41.58ZM370,22.19s.13.21.12.22c-.47.28-.93.56-1.41.81a4.13,4.13,0,0,1-.52-.61C368.94,22.44,369.48,22.3,370,22.19Zm-1.18,25.18c-.45.19-.79.45-.93.37a1.57,1.57,0,0,1-.61-.73c-.05-.11.2-.34.32-.51Zm-3.74-19.11c.05.12.15.24.14.35s-.12.22-.19.33l-.33-.29C364.89,28.5,365,28.38,365.11,28.26Zm.43,3c.39.17.58.75.75,1-.39,1.13.27,1.37.86,1.66a2.27,2.27,0,0,1,.35.26,2.46,2.46,0,0,1-.51.15,2.3,2.3,0,0,1-1.86-1.9c0-.89-.31-1.18-1.2-.84a1.07,1.07,0,0,1-.4,0c.09-.16.18-.46.27-.46A4.32,4.32,0,0,1,365.54,31.23Zm-1.89-18c0,.11.13.25.09.33a2.36,2.36,0,0,1-.35.43l-.29-.35Zm-.26,50.89c.14,0,.36.2.8.46a10.15,10.15,0,0,1-1.68.7c-.15,0-.42-.41-.63-.63A15.88,15.88,0,0,1,363.39,64.12ZM362.05,83a3,3,0,0,1,.79.27c-.38.23-.59.45-.79.45s-.31-.27-.47-.42C361.73,83.23,361.89,83.05,362.05,83Zm-14.18,8.3a2.36,2.36,0,0,1-.52-.58c-.06-.15.08-.38.21-.85.25.42.42.58.44.77A2,2,0,0,1,347.87,91.34Zm1.05-14.27a4.83,4.83,0,0,1-1.16.65s-.09-.12-.13-.18L348.92,76c.08.06.22.13.21.18C349.09,76.48,349.11,76.88,348.92,77.07Zm5.15,21.41-.6-.44c.12-.09.26-.25.31-.22a.85.85,0,0,1,.37.33C354.19,98.23,354.1,98.37,354.07,98.48Zm1-16.73a4.68,4.68,0,0,1-.4-.81c0-.08.25-.23.54-.46a7.47,7.47,0,0,1,.22,1C355.44,81.58,355.2,81.67,355.07,81.75Zm4.5-7.58c-.28,0-.56-.11-.84-.17l.18-.26,1,.35A1.17,1.17,0,0,1,359.57,74.17ZM359.68,29c.16.34.38.66.33.71a2.34,2.34,0,0,1-.88.5c-.13,0-.35-.16-.54-.26ZM357.09,64.8a5.68,5.68,0,0,1,.64-.77c.08-.1.15-.22.23-.33l-.06.47c-.06.33-.1.66-.19,1a1.08,1.08,0,0,1-.3.44s-.32-.09-.34-.17A1,1,0,0,1,357.09,64.8Zm-.39,10.52-.56-.57.18-.25c.15.2.32.39.46.6C356.81,75.15,356.73,75.25,356.7,75.32Zm0-32.26s-.17.26-.2.25a5.56,5.56,0,0,1-.71-.32c.24-.13.38-.28.46-.25A1.25,1.25,0,0,1,356.69,43.06ZM355.63,6.6a2.53,2.53,0,0,1,.5.63s-.23.27-.25.26c-.24-.15-.46-.33-.78-.57A3.57,3.57,0,0,1,355.63,6.6Zm-.51,2.85c.09,0,.2.1.3.16l-.42.17-.67-.13A7,7,0,0,1,355.12,9.45Zm-.88,35.14.22,0-.25.27a3,3,0,0,0-.46.55c-.2.33-.34.69-.51,1,0-.1-.13-.24-.1-.3C353.48,45.64,353.15,44.7,354.24,44.59Zm-1.83,25.13c.14,0,.41.25.63.4-.38.26-.75.54-1.15.77,0,0-.24-.19-.57-.45A5.62,5.62,0,0,1,352.41,69.72ZM350.8,75c.14.08.41.16.41.24,0,.45-.08.9-.16,1.61-.29-.43-.56-.65-.56-.88A3.12,3.12,0,0,1,350.8,75Zm-1.67-61.62c.22,0,.44.22.66.34l-.15.31a1.29,1.29,0,0,1-.46.07,2.94,2.94,0,0,1-.53-.27C348.81,13.65,349,13.36,349.13,13.36Zm-1.45,38c.15-.08.39,0,.58-.05.45-.08.89-.19,1.34-.29-.53.56-1.05,1.13-1.63,1.65,0,0-.52-.44-.86-.73A3.48,3.48,0,0,1,347.68,51.38ZM346,60a2.69,2.69,0,0,1-.19-.61c0-.09.14-.19.33-.43a5.28,5.28,0,0,1,.14.81C346.23,59.82,346.05,59.89,346,60Zm.13-12.6c-.07.1-.24.15-.36.22-.05-.1-.18-.23-.15-.29a3.81,3.81,0,0,1,.46-.52C346.07,47.12,346.13,47.28,346.08,47.37Zm-.75-3a7.1,7.1,0,0,0,0,1,6.73,6.73,0,0,1-.13.75c-.32-.58-.57-.85-.59-1.15a1.31,1.31,0,0,1,.29-.91c.18-.2.55-.24.84-.35A2.41,2.41,0,0,0,345.33,44.38Zm-1-2.22s.17-.15.2-.13.31.23.47.34l-.36.24A5.35,5.35,0,0,1,344.34,42.16Zm.88-11.1a11.4,11.4,0,0,1-.83-.88c-.06-.07.1-.29.26-.68a13,13,0,0,1,1,1.1C345.63,30.66,345.35,30.9,345.22,31.06Zm-.83-28.83a3.47,3.47,0,0,1,.77.15c-.28.26-.44.5-.56.48s-.36-.22-.53-.34C344.17,2.42,344.27,2.24,344.39,2.23Zm-.81,61.09a2.7,2.7,0,0,1,.22.48c0,.22,0,.44,0,.66-.08-.09-.23-.17-.24-.26A5.82,5.82,0,0,1,343.58,63.32ZM340.64,8.43l.41.43-.5.67c-.07-.11-.21-.24-.19-.33A6,6,0,0,1,340.64,8.43Zm-.57,79.14a3.28,3.28,0,0,0,.21-.7c0-.63-.08-1.25-.13-1.88.39.58.78,1.16,1.14,1.75a.47.47,0,0,1-.06.44,9.13,9.13,0,0,1-1.11.49S340,87.52,340.07,87.57Zm-1.65-9.65a5,5,0,0,1,.58.37s-.1.19-.15.29a2.27,2.27,0,0,1-.45-.28S338.41,78.1,338.42,77.92Zm-6-19.84c-.12-.13-.37-.27-.35-.36a1.15,1.15,0,0,1,.36-.59c.06-.05.3.07.41.1C332.59,57.69,332.49,57.88,332.39,58.08ZM337,10.93c-.42.25-.59.42-.74.41s-.22-.24-.33-.37a2.19,2.19,0,0,1,.51-.25C336.53,10.7,336.67,10.82,337,10.93Zm-1-7.76.51.57c-.32.43-.6.81-.87,1.2-.14-.22-.44-.5-.39-.64A7.14,7.14,0,0,1,335.92,3.17Zm-1.79,79.71a1.21,1.21,0,0,1-.37-.25,7.7,7.7,0,0,1,.53-.76c.23.25.4.4.38.42A2.75,2.75,0,0,1,334.13,82.88Zm.06-60.54a2.56,2.56,0,0,1,.42.33,9.07,9.07,0,0,1-.54.83c-.16-.22-.4-.43-.44-.67S334,22.54,334.19,22.34Zm-1.9,32c.22,0,.42.31.55.52s-.21.4-.26.39a5.57,5.57,0,0,1-.76-.32l-.21-.33C331.84,54.54,332.1,54.34,332.29,54.38Zm-1,42.32c.15,0,.31.17.66.39-.3.15-.43.27-.51.24a3.7,3.7,0,0,1-.59-.31C331,96.91,331.18,96.72,331.33,96.7Zm-1.76-3.84.67.69c-.22.08-.41.19-.44.16a2.59,2.59,0,0,1-.43-.57S329.5,93,329.57,92.86ZM328.37,45c0,.2-.24.46-.37.69l-1-1.16.85-.23C328,44.51,328.32,44.73,328.37,45ZM327,9.51a2.31,2.31,0,0,1,.61.24l-.52.44-.41-.47C326.77,9.65,326.89,9.49,327,9.51Zm-3.27,17.87.18-.05a3.49,3.49,0,0,1,.29.58c0,.09-.07.22-.11.33a6.16,6.16,0,0,1-.33-.55A1,1,0,0,1,323.71,27.38Zm.34,24.72s.2.13.31.2c-.3.29-.6.58-.92.85a3.62,3.62,0,0,1-.53-.29C323.37,52.55,323.7,52.31,324.05,52.1Zm-2.54,11.83c.15.21.3.33.28.4a4.37,4.37,0,0,1-.34.58c-.09-.09-.26-.19-.24-.24A4.58,4.58,0,0,1,321.51,63.93Zm-2.08,35,.46.39c-.12.11-.25.3-.36.29a.53.53,0,0,1-.35-.31C319.15,99.24,319.31,99.1,319.43,98.93Zm-94.07-29.3-.13-.09.49-.69.19.14C225.73,69.21,225.55,69.42,225.36,69.63Zm6.91,9.63c-.16,0-.35-.1-.73-.23.33-.16.49-.3.65-.3a1.34,1.34,0,0,1,.49.16C232.55,79,232.43,79.23,232.27,79.26Zm6.51,18s-.22-.08-.46-.18c.4-.27.7-.49,1-.68,0,0,.18.08.27.13C239.34,96.78,239.07,97,238.78,97.26Zm.4-29.4c0-.1.17-.27.41-.61.23.5.48.81.48,1.12a2.45,2.45,0,0,1-.35.91C239.53,68.81,239.32,68.34,239.18,67.86Zm.63,10.6a1.05,1.05,0,0,1-.38-.12l.4-.31.34.29A1.07,1.07,0,0,1,239.81,78.46Zm2.05-23.38c-.33,0-.82,0-.94-.23a3.91,3.91,0,0,1-.35-1.29c0-.06.08-.14.13-.21l1.89,1.43C242.19,55,242,55.09,241.86,55.08Zm2.38,37.22a1.26,1.26,0,0,1-.19-.43c0-.07.16-.16.25-.24,0,.12.11.23.17.37Zm1.33,6.43c-.16,0-.64-.42-.68-.69s.4-.49.76-.88l.91.85A3.53,3.53,0,0,1,245.57,98.73Zm6.82-4a10.52,10.52,0,0,1-1.08-.36l.69-.6.81.68C252.67,94.57,252.5,94.77,252.39,94.75Zm-.95-3,.51-.45.39.4c-.15.09-.3.25-.46.27S251.58,91.81,251.44,91.73Zm1-43.2c.13-.1.27-.29.39-.28s.35.16.66.33c-.38.19-.52.32-.6.29A3,3,0,0,1,252.48,48.53Zm.82,26.72a.52.52,0,0,1-.31-.36c0-.09.18-.22.32-.38l.5.55C253.64,75.13,253.46,75.27,253.3,75.25Zm2.87-.07c-.32-.24-.63-.5-.94-.75.1-.06.24-.19.3-.17.34.17.66.37,1,.59A3.82,3.82,0,0,1,256.17,75.18ZM258.36,90c-.15,0-.29-.14-.43-.22.13-.12.25-.3.4-.34s.31.1.67.23C258.66,89.87,258.51,90,258.36,90Zm1.46,5.24c-.05,0-.18-.12-.28-.18l1.08-.49.21.17C260.49,94.92,260.16,95.11,259.82,95.25Zm1.08-51a6.26,6.26,0,0,1-1.29-.33c-.16-.06-.25-.31-.37-.47l.69-.44,1.28.92C261.11,44,261,44.24,260.9,44.23Zm.72,33c-.1-.16,0-.42,0-.63l.23,0c.14.31.3.63.42,1a2.24,2.24,0,0,1,.05.52A5.14,5.14,0,0,1,261.62,77.26Zm17.86,17.93c-.29-.11-.46-.51-.64-.8-.06-.11,0-.29,0-.57,0-.1.09-.34.15-.57l.51.59.28.34c.22.25.45.5.67.76C280.11,95,279.72,95.28,279.48,95.19Zm2-11.22a2.81,2.81,0,0,1-.54-.78c-.05-.16.19-.41.3-.62l.35.19a5.31,5.31,0,0,1,.16.87C281.73,83.74,281.54,83.86,281.45,84Zm.49,4.74s-.26-.21-.24-.26a3.92,3.92,0,0,1,.42-.59c.16.22.34.39.31.43A2.22,2.22,0,0,1,281.94,88.71Zm1.25-15.41c-.07,0-.26-.19-.38-.31-.41-.41-.81-.82-1.21-1.24l-.51-.56c.31.06.7,0,.93.19a21.25,21.25,0,0,1,1.66,1.42C283.46,73,283.35,73.23,283.19,73.3Zm11,2.93.51-1.15c.14.12.43.31.41.35a10.82,10.82,0,0,1-.67,1.08A3.33,3.33,0,0,1,294.23,76.23Zm5.62-15.52c.18-.3.4-.59.68-1,.19.32.39.58.35.61A9,9,0,0,1,300,61C299.92,60.89,299.82,60.76,299.85,60.71Zm2.72,10.52c-.14.08-.44.16-.48.1-.36-.47-.72-.81-1.37-.44-.06,0-.17,0-.52,0,.56-.33.91-.71,1.2-.67a2.93,2.93,0,0,1,1.14.65C302.61,70.93,302.62,71.21,302.57,71.23Zm2.67,22.18a2.09,2.09,0,0,1-.42-.52s.19-.18.29-.28l.51.54C305.44,93.27,305.25,93.42,305.24,93.41Zm6.31-27.79A5.2,5.2,0,0,1,311,65s.21-.22.41-.43a4.16,4.16,0,0,1,.47.76S311.68,65.51,311.55,65.62Zm4.72,31.61a4.64,4.64,0,0,1-1-.8l.69-.6,1.21,1.06C316.83,97,316.47,97.31,316.27,97.23Zm-.93-72.54a6,6,0,0,1,.53.6.92.92,0,0,1,.08.4c0,.12,0,.21-.06.31a1.21,1.21,0,0,1-.26-.24,3,3,0,0,1-.1-.43Zm.14-9L316,16a2.26,2.26,0,0,1-.84.33,6.52,6.52,0,0,1-1.35-.29Zm-1,19.73q-.08.34-.18.69c-.06,0-.2-.1-.19-.13.05-.23.13-.46.21-.73C314.4,35.29,314.49,35.35,314.48,35.38Zm-.09,52.77a8.13,8.13,0,0,1-.94,1.2c-.16-.27-.44-.53-.45-.8a5,5,0,0,1,.38-1.27C313.89,87.71,314.43,88.07,314.39,88.15ZM313,33a1.43,1.43,0,0,1,.22.22l-.44.35a1.48,1.48,0,0,1-.22-.19A5,5,0,0,1,313,33Zm-.29,58.08.52.61-.58.57c-.1-.12-.3-.27-.28-.38A4.57,4.57,0,0,1,312.75,91.06Zm-1.56-35.42c-.78.42-.94,0-.94-.68a2.16,2.16,0,0,1,.18-.58l1.72,1.17Zm-1.25-18.08a4.31,4.31,0,0,1,.6.31l-.35.41-.52-.55C309.76,37.67,309.88,37.54,309.94,37.56Zm-1,41.93c.08.23.22.47.17.52a3.24,3.24,0,0,1-.85.63c-.08,0-.32-.22-.49-.35ZM307,98.88l.46.41a2,2,0,0,1-.51.32c-.06,0-.26-.2-.24-.26A2.13,2.13,0,0,1,307,98.88ZM306.35,23c.11.18.3.34.29.49a2,2,0,0,1-.28.59c-.11-.08-.32-.18-.31-.24A6.15,6.15,0,0,1,306.35,23Zm-.9,35.11,1,.15a5.19,5.19,0,0,1-1.06.33c-.18,0-.38-.19-.58-.3Zm-1.18-7.34c.15.19.32.35.29.39a1,1,0,0,1-.39.36s-.27-.19-.25-.24A2.46,2.46,0,0,1,304.27,50.75Zm-2.13-8.88.66.72c-.31.11-.51.25-.66.21a2.18,2.18,0,0,1-.57-.36ZM301,56.94l1.05.22-.78.25c-.52,0-.75.06-.92,0a5.44,5.44,0,0,1-.79-.49,6,6,0,0,1,.84-.07A3.16,3.16,0,0,1,301,56.94Zm-1.56-27.46c.15,0,.27.23.4.35a2.76,2.76,0,0,1-.52.25c-.07,0-.18-.14-.35-.29C299.18,29.65,299.34,29.46,299.45,29.48Zm-2.77,39.46c.3.57.64.91.56,1.1a5.39,5.39,0,0,1-.83,1.18c-.07-.14-.24-.3-.22-.43C296.3,70.27,296.46,69.76,296.68,68.94Zm-1.41,18.91c-.17,0-.3-.18-.58-.37.35-.11.54-.24.7-.21s.17.27.25.42C295.52,87.75,295.37,87.88,295.27,87.85Zm-.68-35.62a5.21,5.21,0,0,1,.94.64c-.09.09-.24.27-.28.25-.43-.2-.85-.43-1.35-.7C294.15,52.34,294.43,52.16,294.59,52.23Zm-2,37.47a7.67,7.67,0,0,1-.68-.85c0-.06.2-.27.43-.56a9.17,9.17,0,0,1,.58,1C292.94,89.41,292.7,89.58,292.59,89.7Zm-.48-4c.17.33.29.57.42.8-.12.06-.3.18-.35.15s-.37-.35-.56-.52Zm-1.37,7c.14.5.28,1,.41,1.47a2.92,2.92,0,0,1-.5,0c-.11-.44-.2-.9-.27-1.36C290.37,92.9,290.52,92.86,290.74,92.77Zm-.44-14.71a8.23,8.23,0,0,1,0,1c0,.07-.24.1-.37.15,0-.26,0-.52,0-.78C290,78.37,290.09,78.29,290.3,78.06Zm-.57-20.64c-.13-.16-.35-.3-.38-.48a4.75,4.75,0,0,1,.15-1.1c.3.54.51.77.53,1S289.84,57.23,289.73,57.42Zm-.29-3.66.31.2-.78.57a1.37,1.37,0,0,1-.17-.21C289,54.12,289.23,53.93,289.44,53.76Zm-2.22,45.11c-.33-.38-.66-.76-1-1.16,0,0,.24-.27.26-.26.44.28.86.58,1.32.9Zm.11-7.82c-.06-.12-.17-.23-.17-.35a1.11,1.11,0,0,1,.16-.38l.37.29Zm.06-41.72c.14.29.28.48.25.52a1.5,1.5,0,0,1-.45.25c0-.1-.13-.21-.1-.29A3.08,3.08,0,0,1,287.39,49.33ZM286,41.23c.24,0,.47.09.7.14-.05.08-.1.23-.15.23a5.91,5.91,0,0,1-.7-.05C286,41.37,286,41.22,286,41.23Zm.06,13.31c-.09.06-.18.16-.22.15a1.67,1.67,0,0,1-.51-.28c-.23-.25-.41-.54-.62-.81.25.19.5.39.76.57S285.89,54.41,286.09,54.54ZM285,38.89c.13.22.28.37.25.42a2.18,2.18,0,0,1-.38.36c-.06-.1-.19-.21-.17-.29A2.22,2.22,0,0,1,285,38.89Zm-2.16,8.91c0-.1.19-.17.29-.25a9.34,9.34,0,0,1,1.31,1c.11.11-.1.5-.17.76-.18-.12-.37-.22-.54-.35a8.6,8.6,0,0,1-.83-.76A.41.41,0,0,1,282.85,47.8Zm-2.34-7.44.79.66-.46.33a6.57,6.57,0,0,1-.51-.67S280.45,40.47,280.51,40.36Zm0,12a14.24,14.24,0,0,1,1.31.61c.12.06.16.25.23.37a2.28,2.28,0,0,1,0,.26c-.08,0-.17-.09-.25-.15s-.32-.24-.49-.35c-.33-.22-.66-.42-1-.63C280.35,52.45,280.44,52.36,280.49,52.38Zm-1.23-23.17.27-.19a2.66,2.66,0,0,1,.23.52c0,.11,0,.23-.07.34a2.21,2.21,0,0,1-.46-.32C279.17,29.49,279.25,29.33,279.26,29.21Zm.36,36.66c.16,0,.35.18.53.29-.12.11-.23.31-.37.34a4,4,0,0,1-.91-.14C279.26,66.1,279.43,65.89,279.62,65.87Zm-1.41,24.47a3.63,3.63,0,0,1,.63-.42l1,.38-1.56.46C278.27,90.62,278.15,90.4,278.21,90.34Zm-.53-9.58c-.07-.25-.16-.51-.22-.76,0,0,.1-.1.15-.14l.14.58C277.72,80.59,277.7,80.67,277.68,80.76ZM277.21,55c.24.48.37.7.47.93,0,0-.14.13-.21.2-.14-.23-.28-.46-.41-.69C277,55.36,277.1,55.28,277.21,55Zm-1-31.55c.19.37.32.51.28.57a4.4,4.4,0,0,1-.43.56c-.11-.13-.34-.29-.32-.38A3.56,3.56,0,0,1,276.16,23.41Zm-.92,53.78a1.89,1.89,0,0,1-.35-.61c0-.12.19-.28.44-.61a2.8,2.8,0,0,1,.2.78C275.52,76.91,275.34,77,275.24,77.19ZM274,66.92c.88-.52,1-.55,1.26.42.05.19.06.38.13.79-.17.25-.42.65-.71,1s-.65.48-.67-.11S272.71,67.68,274,66.92Zm-.92-25.57.35.15c-.21.17-.4.42-.64.48s-.35-.23-.53-.37Zm-1.28-18.46c.26.55.41.71.37.81a.62.62,0,0,1-.39.32c-.13,0-.4-.2-.39-.28A3.7,3.7,0,0,1,271.81,22.89Zm-.05,70.83a2,2,0,0,1,.3.19,7.49,7.49,0,0,1-.51.61s-.18,0-.35,0C271.43,94.16,271.59,93.94,271.76,93.72Zm-1.18-8.3c.05,0,.18.11.28.17l-.4.46c-.11-.15-.26-.29-.23-.32A.81.81,0,0,1,270.58,85.42Zm-1.3-38.24c.09.12.28.28.25.37a11.87,11.87,0,0,1-.52,1.08l-.45-.35Zm-3.37,19.38.47.35c-.08.08-.17.24-.23.23a2.7,2.7,0,0,1-.54-.2Zm-.46,24.94h0l0,0a.91.91,0,0,1,.4,0c.28.13.53.31.8.46l-.3.42c-.22-.18-.45-.36-.66-.55a1.91,1.91,0,0,1-.24-.32h0v0c-.32.09-.63.18-1,.24a6,6,0,0,1-.74,0,3,3,0,0,1,.24-.91c.07-.11.52-.11.71,0A4.17,4.17,0,0,1,265.45,91.5Zm-2-3.65a3.15,3.15,0,0,1,.29-.22l.74.27c-.14.1-.3.3-.41.28A2.65,2.65,0,0,1,263.44,87.85ZM264,42.78c.16.13.39.24.45.41a7.45,7.45,0,0,1,.14,1.21,6,6,0,0,1-.74-1C263.8,43.22,264,43,264,42.78Zm-.77-31.15a7.08,7.08,0,0,1,.45.79s-.25.26-.27.24a3.32,3.32,0,0,1-.61-.5A6.23,6.23,0,0,1,263.25,11.63Zm.51,51.6c.16.41.3.72.39,1,0,.08-.13.2-.2.29l-1.15-.76Zm-1.3-46.65a9.3,9.3,0,0,1-1,1c-.15.11-.46,0-.91,0,.62-.54,1.05-.93,1.51-1.28C262.06,16.25,262.31,16.47,262.46,16.58ZM260,11.19a2.32,2.32,0,0,1,0-.44c.58.29,1.38.48,1.4.73a5.7,5.7,0,0,1-.44,1.88s-.1,0-.13.06l-.95.85a6,6,0,0,0,.25-1.23C260.18,12.42,260.07,11.81,260,11.19Zm-1.27,4.45.33.11.49,1.13c-.11,0-.31.13-.33.1a6.47,6.47,0,0,1-.61-1C258.57,15.93,258.69,15.77,258.74,15.64Zm-.31,46.21c.05.13-.16.36-.25.54a1.41,1.41,0,0,1-.32-.38,7,7,0,0,1-.15-1A3.89,3.89,0,0,1,258.43,61.85Zm-1.21-25.13a1.19,1.19,0,0,1-.45.14c-.12,0-.33-.29-.31-.32a3.57,3.57,0,0,1,.5-.45Zm-1.5-5.46a13.81,13.81,0,0,1,1.21,1.35c.05.06-.34.41-.53.63-.32-.53-.64-1.05-.94-1.58C255.44,31.62,255.55,31.51,255.72,31.26Zm.66,14.08c0,.32.1.46.05.52-.27.33-.57.64-.86,1a2.33,2.33,0,0,1-.27-.26C255.6,46.2,255.92,45.85,256.38,45.34Zm-1.19,7.57c.14-.07.42.08.94.2-.66.35-1,.57-1.43.74,0,0-.19-.18-.3-.27A4.53,4.53,0,0,1,255.19,52.91ZM253,2.72v.09a4,4,0,0,1,.6,0,3.18,3.18,0,0,1,.53.14,3.06,3.06,0,0,1-.56.31.86.86,0,0,1-.45,0c-.44-.09-.88-.2-1.32-.31Zm-1.08,11.45c0,.39.11.51.07.59a5.83,5.83,0,0,1-.37.7c0-.08-.14-.17-.12-.24C251.53,15,251.65,14.7,251.87,14.17Zm-.76,41.67c.25.5.44.73.45,1s-.19.36-.3.55a4.21,4.21,0,0,1-.39-.76C250.83,56.46,251,56.29,251.11,55.84Zm-.58,30.5c.23.08.45.18,1,.42-.32.13-.48.25-.58.21a1.65,1.65,0,0,1-.56-.35A1.08,1.08,0,0,1,250.53,86.34ZM250.26,98a12.75,12.75,0,0,1-.66,1.27c-.24-.24-.73-.53-.69-.71.08-.36.45-.67.81-1.14C250,97.75,250.29,97.92,250.26,98ZM248.8,38.7a2,2,0,0,1-.3-.44c0-.06.13-.18.3-.39a2.38,2.38,0,0,1,.23.57C249,38.52,248.88,38.61,248.8,38.7Zm1.3,7.83c-.26.45-.55.88-.84,1.32-.1-.24-.35-.54-.28-.73a5.08,5.08,0,0,1,.68-1.07l.33.09C250,46.27,250.15,46.44,250.1,46.53Zm-1.83-40.9c1.34.31.38,1.76,1.5,2.21a3.67,3.67,0,0,1-.51.34c-.14-.12-.33-.27-.32-.41,0-.84.06-1.67-.9-2.13-.07,0-.09-.17-.13-.26C248,5.46,248.14,5.6,248.27,5.63Zm.48,68.85a1.05,1.05,0,0,1,0,.19c-.08.06-.22.22-.3.2a4.45,4.45,0,0,1-.66-.32l-1-.47c.14,0,.29-.14.41-.11C247.75,74.12,248.25,74.3,248.75,74.48ZM247,54.07a4,4,0,0,1-.79.56s-.24-.2-.37-.31c.27-.18.53-.37.95-.67C246.91,53.84,247.05,54,247,54.07ZM245.87,1.24a2.36,2.36,0,0,1,.62-.16c.09,0,.19.21.28.32-.17.13-.34.32-.53.35s-.37-.12-.55-.19Zm-.81,10.58c.48.25.93.57,1.42.89l-.41.68-1.5-1.12C244.74,12.11,245,11.79,245.06,11.82Zm-.6,49.31a4.51,4.51,0,0,1,.56.94c0,.09-.27.37-.3.35a1.77,1.77,0,0,1-.69-.49C244,61.83,244.23,61.55,244.46,61.13ZM242.81,30l.59.24c-.12.09-.24.24-.38.26a1.81,1.81,0,0,1-.53-.14Zm-1.08,4.5c.08.45.34,1,.13,1.33s-.91.52-1.39.77a7.25,7.25,0,0,1,.31-1.32,4.68,4.68,0,0,1,.67-1C241.59,34.37,241.72,34.41,241.73,34.46Zm-.83-24.33c.18.07.31.27.46.41-.14.09-.3.28-.4.26a3.19,3.19,0,0,1-.69-.43C240.59,10.24,240.78,10.09,240.9,10.13Zm-1.09,13.4c.13,0,.25.2.37.31-.1.08-.19.21-.29.22a4.4,4.4,0,0,1-.72-.17C239.51,23.69,239.66,23.52,239.81,23.53ZM238.36,74.1l-.75-.49c.12,0,.26-.18.35-.15a3.23,3.23,0,0,1,.64.33C238.53,73.87,238.47,74,238.36,74.1Zm-.21-25.43c.08.09.25.25.23.27a4,4,0,0,1-.56.6s-.2-.13-.38-.25Zm-1.33-45c.13.28.24.4.22.48a3.42,3.42,0,0,1-.26.55c-.09-.09-.27-.19-.25-.26A4.71,4.71,0,0,1,236.82,3.66Zm.18,29.8a1.81,1.81,0,0,1,.42.52c-.13.09-.32.28-.4.24a3.33,3.33,0,0,1-.63-.51C236.68,33.58,236.92,33.41,237,33.46Zm-1.18,60.3c-.22.34-.48.66-.73,1-.11-.14-.35-.31-.32-.42a6.21,6.21,0,0,1,.45-1C235.56,93.56,235.83,93.75,235.82,93.76Zm-.74-14.59.68.42a10.59,10.59,0,0,1-1,.61s-.33-.32-.3-.37A3.85,3.85,0,0,1,235.08,79.17Zm-3.21-42.31a5.14,5.14,0,0,1,.48.8c0,.1-.16.27-.26.42l-.53-.61Zm.42,20.33c0,.1-.23.23-.36.34a2.33,2.33,0,0,1-.27-.45c0-.08.11-.2.22-.39C232.07,56.91,232.27,57,232.29,57.19Zm-1.73,13.5a5.1,5.1,0,0,1,1.18-1.07c.08.1.23.2.21.28s-.11.48-.23.51c-1.08.29-1.42.93-.95,1.86a2.79,2.79,0,0,0,2.75,1.53h0l.22.22a3.66,3.66,0,0,1-.55.21c-1.57.26-2.11-1.12-3-1.85C229.94,72.2,230.28,71.21,230.56,70.69Zm-1.19,21.62c-.13-.12-.26-.24-.38-.37l.49-.41c.1.16.25.28.22.34A2,2,0,0,1,229.37,92.31ZM229,77.71a2,2,0,0,1,.63.77c.06.13-.17.36-.27.55l-1.18-1C228.55,77.86,228.88,77.64,229,77.71Zm-1.75-34.22c.3.29.56.46.64.68s-.27.45-.43.46-.59-.2-.6-.33S227.05,43.85,227.24,43.49ZM226,9.27l.25.67-.28.14c.25.38.51.77.75,1.16a1,1,0,0,1,.07.35c-.14,0-.37,0-.39-.08-.27-.67-.51-1.34-.73-2C225.65,9.45,225.87,9.34,226,9.27Zm-.44,54.07c.46.1.91.27,1.36.41l-1,.18-.78-.36C225.27,63.49,225.44,63.31,225.55,63.34Zm-1.82,34.33.34.4a2.45,2.45,0,0,1-.44.3s-.25-.2-.23-.28S223.59,97.84,223.73,97.67Zm-1.06-34.33.33-.14c.08.17.25.37.2.49a4.32,4.32,0,0,1-.53.76c-.08-.15-.24-.3-.23-.44A2.8,2.8,0,0,1,222.67,63.34ZM157.6,21.87a9.43,9.43,0,0,1-.29-.9,2.17,2.17,0,0,1,0-.51l.3.79ZM158.21,78c-.11,0-.22-.3-.19-.33a3,3,0,0,1,.49-.32c.59.23,1.17.44,1.73.69.07,0,.09.31,0,.4s-.31.27-.41.24C159.3,78.5,158.75,78.27,158.21,78Zm7.93-3.93c-.07,0-.31-.27-.29-.37a3,3,0,0,1,.48-.68c.19.35.41.57.37.73S166.35,74,166.14,74.09Zm-.34-8.73c-.75-.09-1.49-.25-2.24-.39-.07,0-.12-.1-.18-.16s.14-.15.23-.16.5-.05.95-.09.91.15,1.44.3a10.07,10.07,0,0,1,1.13.48A9.89,9.89,0,0,1,165.8,65.36Zm25,24.16c0,.07-.2.11-.3.16a1.15,1.15,0,0,1-.11-.39c0-.1.12-.19.31-.47A3.2,3.2,0,0,1,190.78,89.52Zm2.66-38.41-1.3-1.38c.3-.16.46-.32.6-.3,1,.11.42,1,.85,1.46C193.61,50.9,193.49,51,193.44,51.11Zm4,18.92a6.17,6.17,0,0,1,.82-1c.29.35.62.67.59.72a9.78,9.78,0,0,1-.94.87C197.75,70.4,197.4,70.13,197.45,70Zm.64,24.27c-.05,0-.15-.07-.23-.12l.92-.6.35.29C198.79,94,198.44,94.17,198.09,94.3Zm5.66-12.4a.58.58,0,0,1-.31-.43c0-.09.24-.2.49-.38l.31.67C204.07,81.82,203.87,82,203.75,81.9Zm-.28-15.14a3.33,3.33,0,0,1,.64-.49c.1.3.24.57.19.61a2.64,2.64,0,0,1-.66.29C203.58,67,203.42,66.82,203.47,66.76Zm.83,2.87c-.12-.1-.15-.3-.22-.46l.47-.17c.07.2.14.36.2.52C204.6,69.56,204.38,69.68,204.3,69.63Zm3.46,9.16a9,9,0,0,1-.31-.87c0-.08.09-.2.14-.3l.51.61Zm10.66-38.44s-.28-.14-.52-.28l.52-.57c.13.11.4.25.38.32A1.24,1.24,0,0,1,218.42,40.35ZM222.17,79a4.38,4.38,0,0,1-.83.72s-.48-.4-.45-.45a6.63,6.63,0,0,1,.8-.82A5.82,5.82,0,0,1,222.17,79Zm-.94-62.24c.14.56.32.86.23,1s-.44.32-.68.47c-.08-.16-.26-.36-.22-.48A6.63,6.63,0,0,1,221.23,16.77Zm-2.18-2.62c.16.34.29.6.39.86,0,0-.2.13-.3.19a5,5,0,0,1-.4-.71C218.72,14.44,218.9,14.32,219.05,14.15Zm-.49,17.28c.05,0,.27.24.26.26-.25.32-.52.62-.8.92l-.27-.2-.38-.45C217.77,31.78,218.16,31.59,218.56,31.43Zm-.69,4.37c.28.31.58.58.55.62a3.71,3.71,0,0,1-.75.73s-.41-.25-.39-.29A10.45,10.45,0,0,1,217.87,35.8Zm-1.45,28.68c0,.3.1.42.06.51-.11.25-.25.49-.38.73-.09-.13-.28-.3-.25-.38A6.2,6.2,0,0,1,216.42,64.48ZM215,31.26c.2.24.36.34.35.43a7.06,7.06,0,0,1-.21.79c-.1,0-.27-.1-.27-.15C214.84,32,214.89,31.72,215,31.26Zm-1.62,19.32c.09.1.26.25.24.27a5,5,0,0,1-.61.69s-.21-.1-.38-.19Zm-3.15-29.85a1.43,1.43,0,0,1,.13.2c-.18.15-.37.28-.56.41l-.12-.28Zm-.77,6.5s.16.14.24.21a1.93,1.93,0,0,1-.39.37c-.08,0-.25-.06-.54-.15A8.11,8.11,0,0,1,209.41,27.23ZM208.29,66.6c-.12.06-.26.19-.38.17a2.27,2.27,0,0,1-.55-.2c0-.07.08-.19.12-.19.23,0,.46,0,.69,0Zm-.38-15.95s.18.15.17.17a6.37,6.37,0,0,1-.56.8s-.22-.07-.33-.11L207,51C207.27,50.88,207.58,50.75,207.91,50.65Zm-2.43,4.48c-.2.15-.39.39-.62.43s-.49-.13-1-.29c.53-.3.78-.54,1.07-.58S205.29,55,205.48,55.13Zm-1.4-30.68c.19,0,.37.23.55.36-.17.13-.33.34-.51.36s-.41-.14-.76-.28C203.7,24.66,203.9,24.44,204.08,24.45Zm-3.16,48.67s-.3-.29-.27-.4.27-.23.5-.39l.34.46A2.35,2.35,0,0,1,200.92,73.12Zm-.61-31.7c.32.07.63.17.95.25-.1.13-.21.39-.29.38a6.83,6.83,0,0,1-1.07-.3C200.17,41.53,200.26,41.41,200.31,41.42ZM199,83.68a5.67,5.67,0,0,1-.74-.37c.12-.2.18-.32.25-.43l.77.52C199.13,83.5,199,83.69,199,83.68ZM199,57.59a1.69,1.69,0,0,1-.9.46c-.08,0-.37-.36-.39-.57a2,2,0,0,1,.22-.87c0-.09.3-.09.38-.18s.38-.52.57-.78c.11.36.22.73.31,1C199.12,57.05,199.17,57.4,199,57.59Zm-.87-24.8.84.5c-.19.1-.38.29-.55.28a2.52,2.52,0,0,1-.75-.27C197.81,33.14,198,33,198.13,32.79Zm-2.51,27.37c.08-1.14.76-1.46,1.83-.84.14.09.2.28.31.42-.18,0-.41.1-.52,0-1-.68-1.21,0-1.39.73a5.28,5.28,0,0,1-.29.75s0,0,0,.08h-.05a3.61,3.61,0,0,1-1,.47c-.23,0-.52-.17-.76-.29,0,0,0-.25,0-.25a4.33,4.33,0,0,1,.72,0l1,.08h0l0-.06ZM195,46.48l-.13.05-.21-.34-.65-.56.21-.14c.15.25.3.48.44.7l.33.29Zm-3-17.78c.17.41.36.64.31.79a1.08,1.08,0,0,1-.53.6c-.12.06-.4-.19-.6-.3Zm-.29,9.84c.59,0,1.19,0,1.78,0a3.21,3.21,0,0,1,.86.32,1.7,1.7,0,0,1-2.08,1.21,4.06,4.06,0,0,1-1-.61,2.73,2.73,0,0,1-.3-1.06A5.26,5.26,0,0,0,191.76,38.54ZM189.5,75.63s-.18-.15-.38-.33l1.51-.71a3.36,3.36,0,0,1,.17.34A14.71,14.71,0,0,1,189.5,75.63Zm.9-48.2c.08,0,.25.1.38.16-.27.23-.54.47-.82.69a.64.64,0,0,1-.28,0,3.92,3.92,0,0,1-.25-.32A9.56,9.56,0,0,1,190.4,27.43Zm-1,30.6a9.14,9.14,0,0,1-.94.58c-.09,0-.29-.1-.44-.16l1-.59Zm-.83-24.94c-.1,0-.21-.14-.32-.22l.41-.35.42.38A2.64,2.64,0,0,1,188.59,33.09Zm-.13-7.45.46.14a4.23,4.23,0,0,1-.64.25c-.11,0-.24-.09-.37-.13Zm.78,34.41c.33-.11.82.23,1.24.37-.06.07-.13.21-.15.21a1.51,1.51,0,0,0-2,.62,1.91,1.91,0,0,1-.49-.12A5.31,5.31,0,0,1,189.24,60.05ZM186.92,92.7l-.32-.39.42-.74c.08.12.24.26.21.36A4.27,4.27,0,0,1,186.92,92.7Zm-.06-14c.09,0,.36.32.33.37a3.88,3.88,0,0,1-.55.6L186,79A3.81,3.81,0,0,1,186.86,78.71ZM185.09,60.1c-.24.33-.5.84-.82.88s-.65-.44-1-.7l1.34-.66C184.85,59.83,185.12,60.06,185.09,60.1Zm-1-18.21c-.5-.26-1-.56-1.46-.84l.79-.83c.4.51.73.9,1,1.31C184.48,41.57,184.16,41.91,184.12,41.89Zm-.63-12.51.45.26a6.23,6.23,0,0,1-.71.41s-.16-.14-.25-.22Zm-.32,7.3a3.34,3.34,0,0,1,.76.17L183,37l-.46-.1A2.58,2.58,0,0,1,183.17,36.68Zm-1.88-6.44c.21.24.42.39.4.48s-.23.26-.38.33-.26-.16-.26-.24S181.16,30.52,181.29,30.24Zm-.15,3.56c.1.12.2.22.19.24-.22.29-.45.58-.68.86,0-.08-.09-.19-.06-.24C180.75,34.38,180.94,34.1,181.14,33.8ZM179.4,46l.46.4c-.22.11-.35.23-.4.2a.58.58,0,0,1-.28-.3C179.17,46.18,179.32,46.07,179.4,46Zm-.66,36.56c.12.16.28.3.26.33a5.35,5.35,0,0,1-.58.68s-.22-.13-.34-.2C178.29,83.09,178.49,82.85,178.74,82.53Zm-.36,4.08a3,3,0,0,1-.46.48,1.66,1.66,0,0,1-.24-.48c0-.1.12-.23.25-.46C178.16,86.39,178.4,86.57,178.38,86.61Zm-.57-7.94a2.48,2.48,0,0,1-.49.3s-.17-.15-.26-.23c.15-.11.31-.21.54-.35Zm-.39-14.87c0,.14-.18.3-.28.45l-.69-.45c.27-.15.42-.31.55-.29S177.41,63.69,177.42,63.8Zm-.76-32.59c.15.09.35.19.34.22s-.14.37-.27.42-.29-.14-.44-.22Zm-1.45,3.6.78.65c-.11.08-.16.13-.22.18l-.63-.75Zm.21,21.87.18.85-.27.68c-.12-.17-.37-.37-.34-.52A5.19,5.19,0,0,1,175.42,56.68ZM174,48l.68-.81a1.78,1.78,0,0,1,.1.51c0,.29,0,.74-.2.83a2.69,2.69,0,0,1-1.08.1C173.67,48.43,173.83,48.21,174,48Zm-.49,26.33c.06-.09.34,0,.52-.06l-.21,1.63c-.12,0-.32,0-.35-.09a4,4,0,0,1-.21-.66A3,3,0,0,1,173.51,74.34Zm-.38,17.83c.48-.62,1-1.23,1.46-1.83.07,0,.15,0,.16,0,.13.25.42.56.35.73a5.44,5.44,0,0,1-1,1.53c-.1.12-.64-.11-1-.21C173.12,92.42,173.09,92.22,173.13,92.17Zm-2-54.32c.23.19.44.3.42.37a1.63,1.63,0,0,1-.28.44c-.1-.08-.27-.15-.28-.24A1.84,1.84,0,0,1,171.11,37.85Zm-.7,47.85c.53.7,1,1.08,1,1.43s-.62.58-1,.79c-.06,0-.57-.43-.56-.65A6.56,6.56,0,0,1,170.41,85.7Zm-2.14-36.8c0,.05-.14.27-.22.41l-1.44-.86a7.2,7.2,0,0,1,.65-.55A9.54,9.54,0,0,1,168.27,48.9Zm-1.78-25.79.5.58a5.33,5.33,0,0,1-.81.56c-.06,0-.44-.38-.41-.42A4.85,4.85,0,0,1,166.49,23.11ZM165,28.41a2.36,2.36,0,0,1,.28.69c0,.12-.18.24-.28.36a2.24,2.24,0,0,1-.43-.51C164.49,28.87,164.71,28.7,165,28.41ZM163,36.12l.44-.29a2.51,2.51,0,0,1,.18.69.57.57,0,0,1-.25.36,1.5,1.5,0,0,1-.57-.34S162.94,36.27,163,36.12Zm-.4,4.16.36.48a2.53,2.53,0,0,1-.47.28c-.05,0-.25-.16-.23-.19A4.42,4.42,0,0,1,162.61,40.28Zm-.91-26.47c.07.2.17.34.15.45s-.16.33-.28.36-.29-.12-.43-.2Zm-.13,33.78a2.49,2.49,0,0,1-.08.88c-.07.19-.4.29-.61.44,0-.07-.1-.15-.08-.19Zm-.68,45.64c0,.09-.27.26-.4.25s-.37-.23-.35-.31a3.43,3.43,0,0,1,.44-.69A3,3,0,0,1,160.89,93.23Zm-.54-23.4c-.16-.29-.33-.57-.52-.9l.37-.22a4.71,4.71,0,0,1,.38.74C160.61,69.55,160.43,69.7,160.35,69.83ZM160,41.06c.13.19.27.34.25.38a4.09,4.09,0,0,1-.47.46c-.1-.1-.29-.26-.27-.29A3.74,3.74,0,0,1,160,41.06Zm-.87,16.56.43.35-.35.39-.39-.39Zm-1.08,4.77c.25.18.4.31.57.41s.61.33.92.49c-.11.07-.29.24-.33.21-.45-.3-.87-.63-1.3-1Zm-.57-56.31s.2.14.38.27c-.19.15-.31.31-.47.35s-.21-.19-.32-.29A1.61,1.61,0,0,1,157.49,6.08Zm-.65,26.6c.13,0,.36.17.54.26-.41.27-.82.56-1.25.79-.09.05-.31-.12-.76-.32A14,14,0,0,1,156.84,32.68Zm-1.58,16.59a11.35,11.35,0,0,1,1-.71c.11-.05.34.09.52.14-.39.35-.76.71-1.17,1-.05,0-.25-.06-.38-.09Zm0,17c.08,0,.25.14.38.21-.36.23-.71.46-1.07.67-.06,0-.2-.06-.68-.22C154.59,66.62,154.93,66.42,155.3,66.28Zm-2.64,30.64c-.08-.14-.24-.28-.23-.41s.14-.33.28-.62c.23.28.46.47.42.54A2.17,2.17,0,0,1,152.66,96.92Zm-.46-80.25c.14-.08.45.12.68.2l-.21.42a9,9,0,0,1-.79.46s-.32-.32-.28-.39A1.75,1.75,0,0,1,152.2,16.67Zm-.37,21.38-.32.28a3,3,0,0,1-.31-.58c0-.07.15-.2.23-.3Zm-.52-25a3.09,3.09,0,0,1,.54.4c-.34.11-.54.24-.68.2s-.17-.29-.19-.45A.45.45,0,0,1,151.31,13Zm0,49.12.38.15a3.83,3.83,0,0,1,.29.8c0,.13-.15.28-.24.43a4.06,4.06,0,0,1-.73-.77C150.91,62.61,151.17,62.33,151.28,62.12ZM150,44.26c.1.34.2.68.31,1l-.1,0a5.54,5.54,0,0,1,.12.71c0,.11-.11.22-.17.33-.12-.07-.31-.13-.35-.23a1.38,1.38,0,0,1-.13-.71A9.87,9.87,0,0,1,150,44.26Zm-.84-30.73c.12.31.26.48.22.58-.24.48-.52.94-.79,1.41-.25-.28-.75-.73-.7-.8A8.85,8.85,0,0,1,149.11,13.53Zm-7.4,48.2a5.29,5.29,0,0,1,.71.59,8.69,8.69,0,0,1-.69,1c-.13-.17-.37-.35-.36-.52A4.44,4.44,0,0,1,141.71,61.73Zm-1-52.52a3,3,0,0,1,.53.73c0,.09-.3.28-.47.42a2.78,2.78,0,0,1-.4-.65C140.31,9.61,140.52,9.44,140.69,9.21Zm0,39.34c.1.05.27.08.28.14a5.84,5.84,0,0,1,.14,1.31c0,.17-.33.33-.51.49-.13-.21-.25-.43-.34-.58Zm-1.34,15.76c.24.51.38.73.46,1a1.06,1.06,0,0,1-.07.42c-.16-.23-.35-.45-.49-.7C139.24,64.91,139.32,64.76,139.39,64.31Zm-1.76-5.22a3.68,3.68,0,0,1-.25-.94,1.63,1.63,0,0,1,.29-.53c.09.13.28.26.27.38A6.12,6.12,0,0,1,137.63,59.09Zm.11-15c0,.18-.2.55-.31.55a3.68,3.68,0,0,1-1-.34l.83-.73C137.46,43.76,137.71,43.92,137.74,44.11Zm-1.43-5.22c.05,0,.15.15.23.23-.23.09-.46.18-.69.25a3.41,3.41,0,0,1-.63-.07C135.78,39.09,136,39,136.31,38.89Zm-.54,45.26.26.17c-.13.11-.27.3-.4.3s-.33-.18-.5-.28ZM134.1,21.07c.14.19.35.4.32.45a1.19,1.19,0,0,1-.54.43c-.1,0-.29-.13-.45-.2Zm-.93-8c.16.31.25.42.23.44l-.88.82c0-.12-.12-.28-.07-.35A10.68,10.68,0,0,1,133.17,13.07Zm-2,32.31a1.29,1.29,0,0,1-.41.16c-.1,0-.2-.09-.51-.24a3.29,3.29,0,0,1,.73-.18C131,45.12,131.08,45.29,131.14,45.38Zm-1.21-16,.47.19-.87.76c0-.07-.13-.17-.11-.21C129.6,29.82,129.79,29.55,129.93,29.36Zm-.68,37.54c.09.08.25.21.24.23-.18.31-.39.6-.59.89l-.27-.46ZM128,80.82c.2.29.43.54.4.57a4.23,4.23,0,0,1-.67.51c-.07-.15-.21-.33-.17-.46A2.25,2.25,0,0,1,128,80.82Zm-.81,11.23a5.67,5.67,0,0,1,1.14-.25c.13,0,.33.15.4.1,1.88-1.2.58,1.17,1.43,1.27a2.2,2.2,0,0,1-.36,0,9.3,9.3,0,0,1-1.5-.15,4.73,4.73,0,0,1-1.17-.53C127.05,92.49,127.09,92.08,127.17,92.05ZM.2,96.47c-.07-.09-.22-.21-.2-.28a7.36,7.36,0,0,1,.36-.75l.41.41ZM32,38.32c.18.71.31,1.12.37,1.54,0,.06-.28.16-.43.23a8.14,8.14,0,0,1-.31-1.1C31.55,38.87,31.72,38.72,32,38.32ZM21.09,16l.52.46L21,17c-.12-.14-.35-.31-.33-.43S20.92,16.21,21.09,16ZM7,48.92c.17.28.38.55.34.59a1.54,1.54,0,0,1-.64.38c-.11,0-.28-.13-.43-.2ZM6.72,82.53l.6.68a7.57,7.57,0,0,1-.4.91c0,.1-.22.14-.34.22,0-.16-.09-.33,0-.46a6.88,6.88,0,0,0,.35-.73C6.92,83,6.78,82.74,6.72,82.53Zm-5.1-8,.52.46a1.81,1.81,0,0,1-.5.33c-.1,0-.25-.08-.39-.13Zm.13,4.26c-.1,0-.23-.12-.35-.19l.47-.39.29.32C2,78.64,1.9,78.78,1.75,78.81ZM3.1,73.55a6.5,6.5,0,0,1-.71-.68s.14-.18.21-.28l.75.86C3.22,73.5,3.12,73.57,3.1,73.55ZM4,42.38l-.16-.78a2.83,2.83,0,0,1,.43-.32s.29.24.26.29A6.61,6.61,0,0,1,4,42.38ZM5.3,59.87a4.4,4.4,0,0,1,.7-.72,6.5,6.5,0,0,1,1-.37c0,.12,0,.27-.12.34a11.56,11.56,0,0,1-1.06.78C5.74,60,5.59,59.89,5.3,59.87Zm1.62,40c-.08,0-.22,0-.42-.09a7,7,0,0,1,.64-.52s.18.14.27.22A3.65,3.65,0,0,1,6.92,99.9ZM8.36,70a3,3,0,0,1-.32.55c-.06-.11-.17-.23-.15-.32a7,7,0,0,1,.31-.75l.19,0A1.27,1.27,0,0,1,8.36,70ZM13.1,55.17a11.91,11.91,0,0,1-1.63-.67c-.2-.09-.41-.16-.61-.24.22-.09.43-.2.65-.27a1.93,1.93,0,0,1,.54,0c.36.12.93.29,1.48.52a2.67,2.67,0,0,1,.61.51A2.81,2.81,0,0,1,13.1,55.17Zm-.83-6.33.21-.34,1.08.59c-.07.07-.17.21-.21.2ZM15,39.47c0,1-1.29,1.48-.83,2.58.06.15-.39.51-.63.75,0,0-.33-.12-.33-.15a1.6,1.6,0,0,1,.25-.78c.61-.59.14-.86-.33-1.09s-1.13-.43-1.68-.66c-.12,0-.19-.19-.28-.28l.3-.11c1.09.52,1.78.2,2.24-.91.07-.16,1,0,1.55,0C15.16,39.06,15,39.27,15,39.47Zm.57,44.32c-.05,0-.28-.21-.26-.25a3.26,3.26,0,0,1,.38-.47c.14.2.32.37.29.41A1,1,0,0,1,15.56,83.79Zm.74,14.7a2.09,2.09,0,0,1-.4-.45,1.23,1.23,0,0,1,0-.47l.21,0a1.67,1.67,0,0,1,.24.43A2.5,2.5,0,0,1,16.3,98.49Zm5.07-6.2c-.22-.34-.39-.7-.58-1.06l-.05,0,0,0c-1.31-1.67-.82-1.7.27-2.87.06-.07.55.11.54.13A13.87,13.87,0,0,1,21.22,90a12.2,12.2,0,0,1-.46,1.19h0l0,.06c.31.21.62.41.91.63a1.19,1.19,0,0,1,.19.33C21.71,92.23,21.41,92.34,21.37,92.29Zm1.71-34.38c-.06-.12-.13-.25-.26-.48l.63-.44c.06.11.19.25.15.3A7.43,7.43,0,0,1,23.08,57.91Zm1.09-12.14a7,7,0,0,1,1.1.67c-.47.18-.79.42-1,.35s-.42-.43-.63-.66C23.84,46,24.07,45.73,24.17,45.77Zm.44,46.17a5.6,5.6,0,0,1-.68.7c0-.1-.1-.23-.07-.31.13-.31.3-.61.53-1.07C24.51,91.6,24.67,91.84,24.61,91.94Zm.82,7.4c-.12-.18-.38-.4-.33-.52a6.42,6.42,0,0,1,.71-1.06c.18.38.34.56.3.64C25.91,98.73,25.66,99,25.43,99.34Zm-.06-56.78a6.34,6.34,0,0,1-.53-.43c.43-.31.77-.56,1.12-.79a1.22,1.22,0,0,1,.3.3A11,11,0,0,1,25.37,42.56Zm1.48-4.19c-.14,0-.27-.24-.33-.39s.14-.25.23-.26a1.3,1.3,0,0,1,.45.14l.21.35C27.22,38.27,27,38.4,26.85,38.37Zm.8-18.18c-.06,0-.2-.22-.31-.34a2.32,2.32,0,0,1,.55-.35c.14,0,.33.08.73.21A6.93,6.93,0,0,1,27.65,20.19Zm3.92,69.1a6.76,6.76,0,0,1-.49-.86c0-.06.33-.35.48-.33a2.6,2.6,0,0,1,.71.38Zm.86-12.15c-.42.37-.89.7-1.35,1,0,0-.16-.12-.24-.18.37-.49.67-.92,1-1.33a.44.44,0,0,1,.4,0C32.36,76.78,32.49,77.08,32.43,77.14Zm.72,9.16c-.08-.15-.25-.31-.24-.45s.17-.35.34-.68c.22.27.44.46.4.52A3.18,3.18,0,0,1,33.15,86.3ZM33,84c-.25-.08-.44-.42-.55-.69,0-.11.26-.48.28-.47.3.13.57.3,1.28.7C33.54,83.76,33.22,84,33,84Zm1.89-19.64c-.26,0-.58-.31-.87-.48a5.79,5.79,0,0,1,.93-.4,6.19,6.19,0,0,1,1.12,0C35.51,63.94,35.23,64.3,34.91,64.34Zm2.71-19.71A5.72,5.72,0,0,1,36.75,46c0,.06-.59-.27-.9-.41a2.09,2.09,0,0,0,.61-.33,13.35,13.35,0,0,0,1-1.28c.06-.1,0-.26,0-.56.17.23.22.27.22.31A2.3,2.3,0,0,1,37.62,44.63Zm1,38c-.05-.08-.11-.15-.17-.23l.45-.31a1,1,0,0,1,.14.16C38.88,82.39,38.73,82.51,38.59,82.64Zm.63-65.23c-.07,0-.64-.48-.59-.61a4.64,4.64,0,0,1,.82-1.1l1.2.77A12.15,12.15,0,0,1,39.22,17.41Zm3.89,72.7s-.5-.23-.49-.3a11.12,11.12,0,0,1,.45-1.35c.34.4.74.67.71.88S43.38,89.89,43.11,90.11Zm21.77-40.4a1.41,1.41,0,0,1,.22.34,1.35,1.35,0,0,1,.07.56c-.07.41-.18.81-.28,1.21l-.09-1.06h0a5.52,5.52,0,0,1-.1-.71A.94.94,0,0,1,64.88,49.71Zm.84-26.25c-.17-.1-.34-.22-.5-.33l.14-.17.47.37ZM66,61.41c-.33.22-.64.46-1,.66-.09,0-.27,0-.08,0l.47-1.21Zm-.66-2.16a.75.75,0,0,1-.45.44c-.14,0-.36-.1-.67-.21l.81-.67C65.1,59,65.34,59.14,65.3,59.25Zm-8.23-3.63a1.83,1.83,0,0,1,.63.46c0,.06-.15.29-.23.44l-.84-.44C56.83,55.87,57,55.6,57.07,55.62ZM53.6,24.16c.3.47.53.69.56.94s-.25.34-.4.52a3.63,3.63,0,0,1-.49-.64C53.23,24.88,53.38,24.69,53.6,24.16ZM52.11,58.1l.51.65a2.61,2.61,0,0,1-.44.27s-.22-.17-.23-.27A3.13,3.13,0,0,1,52.11,58.1ZM49,9.67l.93.63a2.63,2.63,0,0,1-.91.27,3.54,3.54,0,0,1-1-.36ZM47.19,27.88c-.14-.13-.29-.25-.44-.37l.84-.67c0,.35,0,.48,0,.56A5.84,5.84,0,0,1,47.19,27.88Zm.07,25.17a3,3,0,0,1,.38-.48c.12.25.25.45.21.48a3.72,3.72,0,0,1-.57.37C47.27,53.29,47.21,53.15,47.26,53.05Zm-.32,45a1.9,1.9,0,0,1-.31-.39c0-.07.08-.19.19-.43.18.24.33.36.35.49S47,97.94,46.94,98.05Zm.23-31.59A2,2,0,0,1,47,66a1.19,1.19,0,0,1,.11-.41,2.61,2.61,0,0,1,.28.17,1.46,1.46,0,0,1,.06.5C47.44,66.34,47.27,66.4,47.17,66.46Zm.77-9.3-.65-.91c.06-.07.12-.13.17-.2.2.3.41.6.59.9C48.08,57,48,57.09,47.94,57.16Zm-.14-11c-.07,0-.19-.14-.39-.3a2.14,2.14,0,0,1,.61-.24c.09,0,.19.17.28.26A2.26,2.26,0,0,1,47.8,46.18Zm0-10c-.05-.13-.18-.31-.14-.37a3.47,3.47,0,0,1,.5-.42l.27.42Zm.06-23.37c-.12,0-.2-.25-.29-.39.1-.06.22-.19.31-.18a2.7,2.7,0,0,1,.59.3C48.18,12.67,48,12.83,47.87,12.8Zm1.21,84.35c-.07-.21-.15-.42-.24-.67l.27-.52a4.66,4.66,0,0,1,.23.81C49.36,96.88,49.18,97,49.08,97.15Zm.76-72.87c-.13,0-.26-.13-.39-.2l.58-.45.42.48A2.64,2.64,0,0,1,49.84,24.28Zm4.9,59.38a4,4,0,0,1-1.18.6c-1.54.22-1.93,1.25-2.07,2.49,0,.16-.08.32-.11.48a1.39,1.39,0,0,1-.16-.41c0-.43,0-.87-.07-1.3A4.27,4.27,0,0,0,51,84c-.4-.82,0-.93.86-1,.08,0,.42,0,.52.18.46.64.86.46,1.39.09a2.07,2.07,0,0,1,1-.17c.1,0,.22.17.33.26A2.6,2.6,0,0,1,54.74,83.66ZM56,76c-.32,0-.87-.17-.9-.35a3.07,3.07,0,0,1,0-1.65c.14-.35.71-.54,1.06-.79l1,.37q-.18.36-.33.72c-.15.35-.28.71-.44,1S56.16,76,56,76Zm1.22,3.63a5.21,5.21,0,0,1-.62-.86,1.77,1.77,0,0,1,.35-.26c.28.26.53.54.94,1C57.55,79.53,57.31,79.64,57.26,79.59Zm1-59.53c0,.08-.11.15-.16.22-.08-.08-.2-.15-.24-.25a2.42,2.42,0,0,1-.27-.81,14.59,14.59,0,0,1,0-1.62.76.76,0,0,1,.25-.06q.25.67.45,1.35a3.81,3.81,0,0,1,0,.75C58.27,19.57,58.27,19.82,58.24,20.06Zm2.49,76.75a2.28,2.28,0,0,1-.62-.32,3.07,3.07,0,0,1,.3-.58,5.7,5.7,0,0,1,.51.62S60.76,96.82,60.73,96.81ZM59.9,67.57a7.42,7.42,0,0,1,.64-.46s.16.19.35.39a3.46,3.46,0,0,1-.67.24C60.12,67.75,60,67.63,59.9,67.57Zm1.78,7.93c0,.08-.27.09-.41.14,0-.11-.09-.24-.07-.34a4.1,4.1,0,0,0-.69-3.68c-.09-.12,0-.33-.06-.5l.3-.09a4.53,4.53,0,0,1,.62,1,20,20,0,0,1,.54,2.53A1.85,1.85,0,0,1,61.68,75.5ZM63.35,30a11.28,11.28,0,0,1-2.07.94c-.3.07-.79-.37-1.11-.65-.15-.12-.12-.43-.18-.66a1.79,1.79,0,0,0,.52.15c.81,0,1.62,0,2.42-.05a4.73,4.73,0,0,1,.6,0C63.41,30,63.39,30,63.35,30Zm.81,16.69.56.47c-.14.09-.28.26-.4.25a1.66,1.66,0,0,1-.57-.24C63.87,47.07,64,46.93,64.16,46.73ZM64,72.15l.55-.39.57.56a2,2,0,0,1-.72.29C64.25,72.61,64.11,72.31,64,72.15Zm1.49,3.27h0c0,.13,0,.26,0,.4,0,.29,0,.59,0,.89-.07-.06-.17-.1-.2-.17-.14-.41-.55-.88.22-1.12v0l0,0s0-.06,0-.08c.08-.3.17-.6.26-.89a1.5,1.5,0,0,1,.23.15c-.15.28-.32.55-.49.82C65.48,75.38,65.47,75.4,65.47,75.42ZM67,9.45c-.64-.12-1.27-.23-1.89-.4C65,9,65,8.76,65,8.61s.21-.15.29-.2a2.7,2.7,0,0,1,.35.08l1.53.74A1.19,1.19,0,0,1,67,9.45Zm48.69,90.12s-.36-.27-.34-.32a6,6,0,0,1,.57-.86,4.39,4.39,0,0,1,.49.64A3.16,3.16,0,0,1,115.72,99.57Zm7.2-18a1.16,1.16,0,0,1-.09-.4c0-.09.11-.19.27-.44a3.41,3.41,0,0,1,.16.69C123.26,81.47,123,81.51,122.92,81.56ZM124,11.3l1.1.48c-.1.13-.27.4-.31.39-.35-.16-.67-.36-1-.54C123.87,11.53,123.93,11.42,124,11.3Zm-1.41,38.56c.08-.15.16-.3.25-.45.18.27.37.54.53.83,0,0-.19.24-.26.22a6.21,6.21,0,0,1-.8-.26C122.42,50.08,122.52,50,122.61,49.86Zm.11,14.2c.19.28.36.46.33.51-.24.38-.53.73-.8,1.09-.18-.15-.53-.4-.52-.42C122,64.88,122.3,64.54,122.72,64.06Zm-2.34-49.9.87.64c-.23.12-.41.25-.46.22a3.36,3.36,0,0,1-.62-.57S120.31,14.26,120.38,14.16Zm-.88,32.9a3,3,0,0,1,.15.66s-.23.09-.35.14a1.3,1.3,0,0,1-.12-.4C119.19,47.36,119.33,47.27,119.5,47.06Zm-1.34-10.93.47.39c-.22.19-.44.39-.68.56,0,0-.29-.22-.27-.25A4.42,4.42,0,0,1,118.16,36.13Zm-1.22,49.09c.24,0,.48.11.71.18,0,0-.08.13-.12.13-.23,0-.47,0-.75,0A2,2,0,0,1,116.94,85.22ZM116,57c.15,0,.34.11.74.26a5.44,5.44,0,0,1-1,.39c-.13,0-.29-.19-.43-.3A2.93,2.93,0,0,1,116,57Zm-2.34,32.35c-.28-.25-.54-.54-.81-.82.21-.34.32-.52.44-.7l.74,1.44C113.9,89.31,113.71,89.41,113.65,89.36Zm-3.48-18c-.3-.28-.57-.59-.84-.89.1-.07.28-.23.31-.21.36.26.69.54,1.2,1C110.41,71.3,110.22,71.39,110.17,71.35Zm.5,13.8c0,.17-.34.43-.46.4a3.56,3.56,0,0,1-.84-.54l1.1-.46C110.55,84.76,110.71,85,110.67,85.15ZM109.5,56.22a3.15,3.15,0,0,1,.8.31,1.85,1.85,0,0,1-.57.3,4.81,4.81,0,0,1-1.09-.12C109.15,56.41,109.34,56.21,109.5,56.22ZM104.73,35l.88.19c-.32.15-.64.41-1,.39s-.61-.3-.91-.47ZM102.1,23.79a2,2,0,0,1,.22.61c0,.1-.15.2-.24.29a1.93,1.93,0,0,1-.29-.47C101.76,24.14,101.92,24,102.1,23.79Zm-9,.39c.11,0,.21.11.36.2-.18.13-.34.29-.39.27a1.23,1.23,0,0,1-.33-.35C92.85,24.26,93,24.17,93.09,24.18Zm-12.9,5.64.37.37-.41.63c-.08-.13-.24-.26-.22-.38A3.27,3.27,0,0,1,80.19,29.82ZM69.64,34.49l.87.57-.54.47a3.7,3.7,0,0,1-.49-.57C69.43,34.87,69.56,34.7,69.64,34.49ZM69.34,57a4,4,0,0,1,.81-.25c0,.09.08.22,0,.25A13,13,0,0,1,69,58c-.07,0-.32-.13-.69-.29A9.21,9.21,0,0,1,69.34,57Zm-.16,15.91c-.12.13-.4.11-.61.16l.26-.4c.37-.53,1.15-1,.3-1.71-.07-.06,0-.22-.06-.33s.24,0,.28.07c.23.3.44.63.71,1A12.22,12.22,0,0,1,69.18,72.88Zm.81-13c-.13-.12-.33-.22-.37-.36s.17-.24.39-.53c.13.31.24.46.23.59S70.08,59.77,70,59.87Zm.69-11s-.26-.2-.24-.22a7.14,7.14,0,0,1,.5-.62c.09.25.2.4.16.46A1.54,1.54,0,0,1,70.68,48.87Zm1.68-4.2a2.23,2.23,0,0,1-.42.52c-.07-.16-.23-.33-.2-.47a4.31,4.31,0,0,1,.5-.83C72.32,44.35,72.42,44.54,72.36,44.67ZM73,27.52c.29.35.57.7.84,1.07,0,0-.09.14-.14.21l-1-.84Zm1,22.12L73.46,49c.29-1.12.53-2.11.81-3.08,0-.13.28-.2.43-.3a1.34,1.34,0,0,1,.14.5c-.14.95-.29,1.9-.48,2.85A2.87,2.87,0,0,1,74,49.64ZM75,58l-.3-.85.34-.5c.09.17.26.35.24.51A4,4,0,0,1,75,58Zm.93-30.88c.08,0,.21.07.24.13.36.71.57,1.56,1.65,1.57,0,.34,0,.77-.15,1a1.63,1.63,0,0,1-1,.25c-.36-.89-.65-1.8-.94-2.72C75.71,27.28,75.83,27.19,75.88,27.12Zm.75,10.06a3.81,3.81,0,0,1,.4,1c0,.14-.31.29-.48.44a6.26,6.26,0,0,1-.38-.89C76.15,37.64,76.37,37.49,76.63,37.18Zm.63,41.37L76.44,78l1.18-.67c.06.13.2.29.16.37A9,9,0,0,1,77.26,78.55Zm2.23-39.1a.88.88,0,0,1,.22-.38l.64-.68c.07.28.14.55.25,1a1.48,1.48,0,0,1-.26.52,5.46,5.46,0,0,1-.82.53A7.6,7.6,0,0,1,79.49,39.45Zm.41,8.9.6.58-.13.13-.7-.48Zm.41,24.29c.32.07.64.19,1.12.34-.27.14-.39.27-.47.24-.31-.09-.6-.23-.9-.35C80.15,72.79,80.25,72.63,80.31,72.64Zm2.12,13.8c-.67.3-1.36.54-2,.8.36-.51.74-1,1.08-1.54a4.17,4.17,0,0,0,.33-.81,6.31,6.31,0,0,1,.86,1A.58.58,0,0,1,82.43,86.44Zm.34-30.37a1.21,1.21,0,0,1-.26-.39l.4-.23c.09.26.17.47.24.68C83,56.11,82.86,56.14,82.77,56.07ZM84.4,98.41c-.09,0-.24-.08-.69-.26a2.84,2.84,0,0,1,.72-.33c.13,0,.26.19.4.29A1.76,1.76,0,0,1,84.4,98.41Zm.09-21a1,1,0,0,1-.66-.69,1.38,1.38,0,0,1,1.58-1.33c.18,0,.33.36.3.32C85.8,76.89,85.5,77.51,84.49,77.39Zm3-41.8c-.31-.36-.64-.72-.92-1.1a8.09,8.09,0,0,1,.65-.59c.26.59.45,1,.6,1.42C87.84,35.37,87.61,35.5,87.49,35.59Zm.81,59.33c-.17-.24-.53-.51-.49-.72a4,4,0,0,1,.57-1.08l.87.88Zm.45-50.65L89.4,44l.47.58c-.16.07-.37.24-.47.19A2.82,2.82,0,0,1,88.75,44.27ZM90,64.47c-.12,0-.27-.09-.41-.14l.37-.39.53.29A1.71,1.71,0,0,1,90,64.47Zm.32-34.94c.4-.2.61-.32.83-.41,0,0,.15.17.15.18a1.75,1.75,0,0,1-.44.33C90.77,29.67,90.63,29.6,90.31,29.53Zm1.46,52.61c-.17-.29-.33-.59-.51-.9l.46-1a4.07,4.07,0,0,1,.51,1.13C92.26,81.6,91.93,81.88,91.77,82.14Zm.42-48.54a2,2,0,0,1-.32-.46s.2-.15.41-.32a2.39,2.39,0,0,1,.18.57C92.46,33.46,92.28,33.53,92.19,33.6Zm1.22,43.86a5.22,5.22,0,0,0-1-.5c.25-.21.51-.41.75-.62s.46-.3.5-.49-.12-.65.34-.15c.69.76,1.3,1.5,1,2.59-.07.44-.15.88-.22,1.32a9.69,9.69,0,0,0-.6-1.26A3.51,3.51,0,0,0,93.41,77.46Zm2.35,9.13a14.6,14.6,0,0,1-.49,1.68c-.08.21-.35.35-.54.53-.25-.33-.79-.83-.71-1A15.78,15.78,0,0,1,95.71,86,2.31,2.31,0,0,1,95.76,86.59Zm0-31.73c-.06,0-.2-.11-.45-.27.34-.15.55-.25.76-.32,0,0,.18.23.15.26A1.39,1.39,0,0,1,95.72,54.86Zm1-6.39-.51-.32.27-.36c.12.11.29.19.35.32S96.74,48.35,96.69,48.47Zm1.86-10.68a2.45,2.45,0,0,1-.31-.57c0-.14.08-.31.21-.72a5.72,5.72,0,0,1,.44,1C98.91,37.55,98.67,37.68,98.55,37.79Zm4.14.19c.2.21.57.43.54.6s-.42.61-.57.58a10.91,10.91,0,0,1-1.62-.6ZM102,90a2.08,2.08,0,0,1-.32-.4c.11,0,.27-.13.32-.09a3.49,3.49,0,0,1,.42.5C102.19,90,102,90,102,90Zm.72-12.38c-.25.2-.75.15-1.14.21a7.42,7.42,0,0,1,0-.82c.05-.48.15-1,.22-1.42s.09-.66.13-1a7.15,7.15,0,0,1,1.1.85,3.17,3.17,0,0,1,.42,1A4.35,4.35,0,0,1,102.69,77.58ZM104,86.21a6.44,6.44,0,0,1-.49-.57s.11-.18.24-.37c.29.26.47.41.65.56ZM105.5,51c-.46-.16-.9-.34-1.35-.52.17-.12.37-.36.51-.34a7.45,7.45,0,0,1,1.23.44C105.66,50.78,105.54,51,105.5,51Zm1.92,29.7.87.63a1.2,1.2,0,0,1-.38,0c-.26-.09-.51-.21-.76-.31Zm.21,6.89.75-.08a4.52,4.52,0,0,1,.73.16,6.9,6.9,0,0,1,.86.43,2.92,2.92,0,0,1-.65.15c-.1,0-.18-.24-.3-.29a4.64,4.64,0,0,0-.73-.2Zm1.66,2.63s.3.2.29.23a3,3,0,0,1-.48.64s-.28-.15-.57-.31A7.86,7.86,0,0,1,109.29,90.17Zm1.57,3a13.72,13.72,0,0,1-.5,1.49c-.1.29-.21.57-.31.86a2.38,2.38,0,0,1-.73-.48c-.31-.4-.85-1.12-.72-1.26a13.14,13.14,0,0,1,2.13-1.64A3.47,3.47,0,0,1,110.86,93.13Zm2.28-29,.3.32a5.4,5.4,0,0,1-1.08.53c-.16,0-.42-.27-.63-.42Z"/></g></g></svg>