<svg xmlns="http://www.w3.org/2000/svg" xmlns:xlink="http://www.w3.org/1999/xlink" viewBox="0 0 217.3 96.63"><defs><style>.cls-1{fill:url(#未命名漸層_9);}.cls-2{fill:none;stroke:#5e6472;stroke-linecap:round;stroke-linejoin:round;stroke-width:1.5px;}.cls-3{fill:url(#未命名漸層_9-2);}</style><linearGradient id="未命名漸層_9" x1="858.18" y1="97.79" x2="858.18" y2="23.6" gradientTransform="matrix(-1, 0, 0, 1, 916.65, 0)" gradientUnits="userSpaceOnUse"><stop offset="0" stop-color="#b1d660"/><stop offset="1" stop-color="#00a878"/></linearGradient><linearGradient id="未命名漸層_9-2" x1="777.92" y1="98.37" x2="777.92" y2="-2.19" xlink:href="#未命名漸層_9"/></defs><g id="圖層_2" data-name="圖層 2"><g id="圖層_1-2" data-name="圖層 1"><path class="cls-1" d="M50.34,31.15l-49,65h34l.18-.06s0,0,.06.06h72.27a3.18,3.18,0,0,0,.27-.26l.18.26h6.76c.16-.19.36-.41.57-.68L96.32,70.26a2.21,2.21,0,0,0-.59.12s-.1-.14-.15-.21c.16,0,.34-.14.51-.21L66.44,31.22C61.33,24.37,55.45,24.29,50.34,31.15Zm57.91,57.28.21-.29.54.35c-.09.08-.21.25-.26.23A2.43,2.43,0,0,1,108.25,88.43ZM82.42,76.93a2.66,2.66,0,0,1-.66-.3c-.05,0,.09-.3.19-.6a3.28,3.28,0,0,1,.64.48C82.64,76.58,82.48,76.78,82.42,76.93Zm5.93-9.7c0,.21-.31.6-.39.58a1.8,1.8,0,0,1-.9-.46c-.17-.2-.13-.55-.2-.94.09-.28.21-.64.32-1,.19.26.36.54.57.78s.34.09.38.18A2,2,0,0,1,88.35,67.23Zm18.71,25.38s.13-.17.25-.32c.26.31.46.56.67.8-.12.07-.32.22-.34.2A5.35,5.35,0,0,1,107.06,92.61Zm-8.19-3.78s.24-.38.33-.37a4,4,0,0,1,.84.33l-.62.65A3.94,3.94,0,0,1,98.87,88.83Zm-3.61-4.15a2,2,0,0,1,.17-.34l1.51.71c-.2.18-.34.35-.38.33A14.71,14.71,0,0,1,95.26,84.68Zm-7-15.19c.1-.14.17-.33.31-.41,1.06-.63,1.75-.31,1.83.84L90.5,71l0,.06,0,0c.33,0,.65-.07,1-.09a5.77,5.77,0,0,1,.72,0s.06.24,0,.25c-.25.12-.53.34-.76.29a3.58,3.58,0,0,1-1-.46h0a.22.22,0,0,1,0-.08,5.66,5.66,0,0,1-.29-.74c-.18-.76-.37-1.41-1.39-.74C88.71,69.59,88.48,69.5,88.3,69.49Zm-.16,10.86a8.65,8.65,0,0,1-.94-.87s.3-.37.59-.71a5.88,5.88,0,0,1,.82,1C88.66,79.88,88.31,80.16,88.14,80.35ZM86.83,93.16l.77-.53c.06.12.13.23.25.44a6.4,6.4,0,0,1-.75.36S86.92,93.25,86.83,93.16ZM84.57,82.54l.34-.46c.23.17.47.25.5.39s-.22.42-.27.4A2.17,2.17,0,0,1,84.57,82.54Zm-2.76,9c.09-.18.18-.36.32-.67.24.18.5.3.49.39a.62.62,0,0,1-.31.43C82.19,91.71,82,91.57,81.81,91.51Zm-.5-12.24.2-.52.47.18c-.07.15-.1.36-.23.45S81.46,79.31,81.31,79.27Zm-.74-14.39c.2-.16.41-.46.58-.43s.54.27,1.06.57c-.52.16-.79.33-1,.29S80.78,65,80.57,64.88Zm-1.7-3.62c-.12,0-.31.14-.34.11a7.54,7.54,0,0,1-.55-.8s.14-.18.17-.17c.33.1.64.23,1,.35ZM78,88l.51-.61c0,.1.16.22.14.3a9.25,9.25,0,0,1-.32.88Zm-.2-11.63a1.71,1.71,0,0,0,.13-.23c.23,0,.46,0,.69,0,0,0,.08.12.12.19a2.63,2.63,0,0,1-.55.2C78,76.54,77.89,76.41,77.76,76.35ZM72.48,60.61s.16-.18.24-.27l.76.76c-.17.09-.35.22-.38.19A6.67,6.67,0,0,1,72.48,60.61ZM70.76,41.44c0-.08.15-.19.35-.42.06.45.11.76.13,1.07,0,0-.17.09-.27.14A5.41,5.41,0,0,1,70.76,41.44ZM69.64,74.23a5.66,5.66,0,0,1,.56.86c0,.09-.15.25-.24.38a6.31,6.31,0,0,1-.38-.73C69.54,74.66,69.6,74.53,69.64,74.23ZM68.39,46.9a3.67,3.67,0,0,1-.75-.72s.27-.31.55-.63a9.32,9.32,0,0,1,.58,1.06S68.42,46.93,68.39,46.9Zm-1.13,2.67c0-.06.25-.21.38-.32l.52.57c-.24.14-.48.32-.52.29A1.33,1.33,0,0,1,67.26,49.57Zm0-8.12s.21-.28.25-.26c.41.15.8.34,1.2.52l-.39.45a2.12,2.12,0,0,1-.27.2C67.76,42.07,67.49,41.76,67.24,41.45ZM54.5,47.22l-.54.61c-.09-.14-.29-.32-.25-.42a5.14,5.14,0,0,1,.48-.8Zm-.32,19.23c.11.18.24.3.22.38a2.33,2.33,0,0,1-.27.45c-.13-.11-.37-.24-.36-.34S54,66.66,54.18,66.45Zm9.71,22.31a5.82,5.82,0,0,1,.48-.55,5.34,5.34,0,0,1,.79.83s-.42.47-.44.45A4.83,4.83,0,0,1,63.89,88.76ZM63.06,73l.33.14a3,3,0,0,1,.23.67c0,.14-.15.29-.23.44a3.67,3.67,0,0,1-.53-.75C62.8,73.33,63,73.12,63.06,73Zm-2.91,5.79.19-.13.49.68-.13.1Zm-1-5.23c.45-.15.9-.31,1.36-.42.11,0,.28.15.42.23l-.78.36Zm-1-19.59c.08-.22.35-.39.64-.68.19.36.42.59.4.81s-.4.35-.6.33S58.14,54,58.17,53.92ZM56.44,88.24a1.92,1.92,0,0,1,.63-.78c.11-.07.44.16.82.31l-1.18,1C56.61,88.6,56.38,88.36,56.44,88.24Zm-3.06.41a1.2,1.2,0,0,1,.49-.17,2.35,2.35,0,0,1,.64.3c-.37.13-.57.27-.73.23S53.51,88.77,53.38,88.65Zm-1.06-4.88.21-.22h0s0,0,0,0A2.78,2.78,0,0,0,55.29,82c.46-.93.13-1.57-.95-1.85-.12,0-.2-.33-.23-.52s.13-.18.21-.27c.4.35.94.63,1.18,1.07s.61,1.51.39,1.69c-.91.72-1.45,2.1-3,1.84A2.83,2.83,0,0,1,52.32,83.77ZM5.15,93a2.77,2.77,0,0,1-.54.77c-.1-.11-.28-.23-.28-.34a5.35,5.35,0,0,1,.17-.87l.35-.19C5,92.53,5.2,92.78,5.15,93Zm3.44-3.2c-.06.26-.14.51-.21.76,0-.08,0-.17-.07-.32l.14-.58C8.5,89.66,8.6,89.72,8.59,89.75Zm2.58-3.41a2,2,0,0,1-.35.6c-.1-.14-.28-.28-.29-.43a2.72,2.72,0,0,1,.2-.78C11,86.05,11.19,86.21,11.17,86.34Zm4.66,9.14s-.12.17-.23.33l-.4-.47c.1-.06.23-.2.28-.17A.88.88,0,0,1,15.83,95.48Zm4.62-18.79a3,3,0,0,1-.54.2c-.06,0-.15-.15-.23-.23l.47-.35Zm2.81-3.14-1.15.77c-.07-.1-.22-.22-.2-.3.09-.32.23-.63.39-1ZM24.44,87a5.58,5.58,0,0,1-.68.79,1.8,1.8,0,0,1,0-.52c.12-.32.27-.63.42-1l.23,0C24.46,86.59,24.54,86.85,24.44,87Zm3.91-16.27a7,7,0,0,1-.15,1c-.05.15-.21.26-.32.39-.09-.19-.31-.42-.25-.55A3.89,3.89,0,0,1,28.35,70.75ZM29.49,84.6c.38-.22.7-.42,1-.58,0,0,.2.1.3.16-.31.25-.62.51-.94.75C29.86,85,29.69,84.76,29.49,84.6Zm2.16-21.27c-.1.1-.25.3-.29.28-.4-.18-.77-.4-1.43-.75.52-.12.8-.27.94-.2A4.13,4.13,0,0,1,31.65,63.33Zm.6,21.48.5-.55c.14.16.34.29.32.38a.52.52,0,0,1-.31.36C32.6,85,32.42,84.88,32.25,84.81Zm1.33-26.53a2.1,2.1,0,0,1-.46.34c-.07,0-.22-.1-.59-.29.31-.16.48-.32.66-.33S33.45,58.18,33.58,58.28Zm1.61,8.06a4.21,4.21,0,0,1-.39.76c-.11-.18-.32-.37-.31-.55a4.12,4.12,0,0,1,.46-1C35.1,66,35.23,66.21,35.19,66.34Zm1.89-9.47c.06.19-.18.49-.29.74-.28-.44-.58-.87-.83-1.33-.05-.08.07-.26.11-.39l.33-.09A6.19,6.19,0,0,1,37.08,56.87Zm1.74,26.85c.11,0,.27.07.4.12l-.95.46a4.45,4.45,0,0,1-.66.32c-.08,0-.22-.14-.3-.2a1.05,1.05,0,0,1,0-.19C37.81,84.05,38.31,83.87,38.82,83.72Zm1.37-19.64c-.12.11-.32.33-.36.31a5,5,0,0,1-.8-.57s.12-.23.21-.41ZM42,71.68a1.73,1.73,0,0,1-.68.49s-.33-.25-.3-.35a4.3,4.3,0,0,1,.56-.94C41.83,71.3,42.09,71.58,42,71.68Zm1.45-7.15,1.89-1.43c0,.07.14.16.13.22a3.85,3.85,0,0,1-.35,1.28c-.13.19-.61.21-.94.23C44,64.84,43.86,64.7,43.47,64.53Zm2.12-18.22c-.48-.24-1.12-.39-1.39-.77s0-.87.13-1.32c0-.06.14-.1.28-.17a5,5,0,0,1,.67.94A8.18,8.18,0,0,1,45.59,46.31Zm.29,41.76.34-.29.41.32a1.16,1.16,0,0,1-.38.11A1,1,0,0,1,45.88,88.07Zm1-10.46c-.15.48-.36,1-.54,1.43a2.79,2.79,0,0,1-.36-.92A3.92,3.92,0,0,1,46.46,77C46.71,77.35,46.91,77.51,46.88,77.61Zm.58,5.93a4.83,4.83,0,0,1,.64-.33c.09,0,.23.1.34.15l-.75.49ZM48.61,59c-.18.12-.35.27-.37.25a3.53,3.53,0,0,1-.56-.6s.15-.17.23-.27Zm1.06-15.58A3.33,3.33,0,0,1,49,44c-.08,0-.27-.15-.41-.24a2,2,0,0,1,.43-.52C49.14,43.16,49.37,43.33,49.67,43.46Zm.62,45.89.69-.43a4.15,4.15,0,0,1,.58.66c0,.06-.27.38-.3.37C50.93,89.77,50.61,89.55,50.29,89.35Z"/><path class="cls-2" d="M.75,95.88l49-65c5.1-6.86,11-6.78,16.09.08l49.71,64.94"/><path class="cls-3" d="M127.36,8.05l-8.85,11.74.66.4-.31.18-.31.23-.29-.47-57.35,76H137.3a.2.2,0,0,1-.09-.14,2.46,2.46,0,0,1,.22-.62c.18.24.34.36.32.43a1.09,1.09,0,0,1-.19.33h8.74l-.22-.17c.15-.08.25-.19.36-.19a1,1,0,0,1,.36.11,2.76,2.76,0,0,1-.21.25h39.08l.26-.38c.07.16.12.28.17.38h30.45l-67.38-88C142.26-1.14,134.28-1.24,127.36,8.05Zm3.76,30.69a2.79,2.79,0,0,1-.41.83l-.42-.77.5-.8C130.91,38.25,131.14,38.51,131.12,38.74Zm3.7-8.08c-.3.1-.59.23-.89.3-.08,0-.21-.13-.31-.2l.9-.67C134.65,30.35,134.74,30.5,134.82,30.66ZM149,17.22c0,.1-.19.28-.29.42l-.6-.75.38-.89A11.67,11.67,0,0,1,149,17.22Zm.47,32.16a4.31,4.31,0,0,1-.51.8l-.51-.37c-.14-.18-.28-.35-.41-.53a5.33,5.33,0,0,1,1-.28C149.22,49,149.52,49.31,149.49,49.38Zm.91-27.69c-.08,0-.19.13-.23.11s-.36-.28-.53-.42l.24-.1ZM160,55.17c0,.11.14.23.12.34-.06.41-.15.82-.23,1.23l-.27,0a3.17,3.17,0,0,1-.54-1.09C159.07,55.54,159.67,55.35,160,55.17Zm22,6.13a5.68,5.68,0,0,1-.68.32c-.05,0-.17-.14-.26-.22a2.54,2.54,0,0,1,.51-.37C181.6,61,181.76,61.17,182,61.3Zm9,8.18c-.2.2-.41.4-.63.58,0,0-.18-.11-.27-.17l.6-.68Zm19.93,21.84c.41-.12.59-.24.73-.2a1.82,1.82,0,0,1,.55.35c-.1.11-.25.35-.31.33A6.38,6.38,0,0,1,210.91,91.32Zm-12-3.23,1.2-.78a4.85,4.85,0,0,1,.82,1.1c0,.14-.51.65-.59.61A12.94,12.94,0,0,1,198.88,88.09Zm-4.17-15.91,1.12-.48.33.38a3.69,3.69,0,0,1-.84.38C195.14,72.49,194.92,72.28,194.71,72.18Zm-1.24-5.36a1.93,1.93,0,0,1,.35-.35c.07.11.15.21.25.35-.13.11-.25.28-.32.26S193.45,66.86,193.47,66.82Zm-2.42,17.33a2.94,2.94,0,0,1,.59-.3c.09,0,.21.11.32.18-.1.14-.18.36-.3.39S191.35,84.29,191.05,84.15Zm-.52-2a3.24,3.24,0,0,1-.91-.27l.93-.64,1,.55A3.89,3.89,0,0,1,190.53,82.19Zm-1.45,13.53.42-.47.58.44c-.13.08-.26.21-.39.2A2.78,2.78,0,0,1,189.08,95.72ZM186.82,68.5c0-.08,0-.47,0-.86,0-.1.15-.2.24-.27s.2.1.21.16c.05.74.13,1.48.11,2.22,0,.26-.25.52-.38.78a3,3,0,0,1-.3-.72A8.76,8.76,0,0,1,186.82,68.5Zm-1-4a4.84,4.84,0,0,1,.54-.46s.18.1.28.16l-.52.58ZM184,60.84c.07-.16.13-.29.18-.42.1.08.29.17.28.24a1.88,1.88,0,0,1-.18.48Zm-1.7,6.1a9.06,9.06,0,0,1-.54-1c0-.09,0-.23.07-.52.25.25.43.36.48.51a10.42,10.42,0,0,1,.28,1.1C182.46,67,182.32,67,182.27,66.94Zm-1,24.31a3.7,3.7,0,0,1,0-.74c.13-.46.29-.9.45-1.35a.74.74,0,0,1,.25,0,14.77,14.77,0,0,1,0,1.63,3,3,0,0,1-.27.8,1,1,0,0,1-.25.26c0-.08-.14-.15-.15-.23A3.71,3.71,0,0,1,181.26,91.25Zm-.57-20.17c.4-.12.61-.25.79-.22a2.06,2.06,0,0,1,.61.34c-.16.16-.36.48-.47.45A3.91,3.91,0,0,1,180.69,71.08ZM176,73.36l.18-.15.3-.31c.27.41.55.81.82,1.23,0,0-.15.12-.16.11C176.73,74,176.36,73.66,176,73.36ZM173.7,95l.47-.37a1,1,0,0,1,.14.17l-.5.33Zm-1.31-14.11,1.52-.73a2.45,2.45,0,0,1,.35-.09c.08.06.29.12.3.2s-.07.42-.16.45c-.63.16-1.26.28-1.9.39C172.48,81.07,172.38,80.85,172.39,80.84Zm-.57-26.55c0-.2.34-.5.54-.76l.62.9-.46.72C172.27,54.87,171.89,54.61,171.82,54.29Zm-.56-11.74s0-.18.08-.35l1.07.7a2.89,2.89,0,0,1-.24.27A8.1,8.1,0,0,1,171.26,42.55Zm-2,38.41,1.61,1.31c-.08.07-.2.21-.23.19-.53-.27-1.07-.55-1.57-.87C169,81.56,169.19,81.26,169.28,81Zm-.94-13.57c.26.29.51.59.77.87s.34.36.6.63a2.58,2.58,0,0,1-.27.12c-.37-.45-.74-.89-1.08-1.35C168.31,67.6,168.35,67.48,168.34,67.39ZM168,40.49s-.19-.1-.41-.22a8.08,8.08,0,0,1,.76-.52s.18.16.28.24A6,6,0,0,1,168,40.49Zm-1.38,5.77c.39-.66.7-1.21,1-1.75l.19.09c-.2.43-.41.87-.63,1.3a1.13,1.13,0,0,1-.28.34S166.76,46.25,166.61,46.26Zm-1.29,29.27.24,0c0,.15.09.29.12.44s0,.36,0,.54a3,3,0,0,1-.34-.46A1.78,1.78,0,0,1,165.32,75.53Zm-1.4-40.9.8-.31.25.12a3.76,3.76,0,0,1-.62.27A1.12,1.12,0,0,1,163.92,34.63Zm-1.33,41.28a2.94,2.94,0,0,1,.28-.64A3,3,0,0,1,163,76c0,.1-.17.19-.26.29C162.69,76.17,162.58,76,162.59,75.91Zm-1.41-32.64c-.21.16-.37.34-.41.31-.27-.15-.52-.34-.78-.52.09-.09.21-.27.25-.25C160.54,42.93,160.82,43.09,161.18,43.27Zm-.82,43.15.16-.31c.19.42.38.84.55,1.26,0,.06-.06.16-.1.25Zm-1.37-3a1.12,1.12,0,0,1,.42-.1c.33.07.65.18,1,.27l0,.16a4.51,4.51,0,0,1-.53-.1Zm-.54-61.77c0-.14.1-.3.15-.46l.22,0a3.09,3.09,0,0,1,.08.6,2,2,0,0,1-.16.51A3.57,3.57,0,0,1,158.45,21.66Zm-1.71,67.45c0-.11.14-.27.32-.57.17.31.31.45.3.58s-.17.26-.26.39C157,89.38,156.78,89.26,156.74,89.11ZM155.88,32a10.08,10.08,0,0,1,.88-1c.15.31.29.5.25.55-.23.29-.51.55-.77.83C156.11,32.28,155.85,32.05,155.88,32Zm-1.44-4.63c-.14-.16-.38-.31-.39-.48a3,3,0,0,1,.28-.89c.27.3.55.49.52.62A2.65,2.65,0,0,1,154.44,27.38Zm-.88,9.94a7,7,0,0,1-1.29-.08l.9-.4,1.06.09C154,37.07,153.79,37.3,153.56,37.32Zm-1.68,12.9c.38.05.76.08,1.14.14a1.47,1.47,0,0,1,.34.15l0,.14c-.39,0-.79-.09-1.17-.17C152.05,50.46,152,50.31,151.88,50.22Zm-.5-36.4c-.33-.08-.59-.42-.86-.67,0,0,.14-.22.19-.31l1.39.38C151.86,13.44,151.56,13.86,151.38,13.82Zm-1.21,13,.54-.4.26.41a1.73,1.73,0,0,1-.5.24C150.38,27.06,150.27,26.9,150.17,26.81Zm-2.54,49a3.2,3.2,0,0,1,.93-.56,2.74,2.74,0,0,1,1.16.13c.11,0,.15.33.22.5l-.49-.25c-.5-.29-.84-.21-1.08.33-.05.12-.31.16-.49.21A4.05,4.05,0,0,1,147.63,75.81Zm-1-48.28s-.19-.14-.29-.22l1-.76a2.87,2.87,0,0,1,.21.35A8.31,8.31,0,0,1,146.66,27.53Zm-1.1,42.73.24-.14.95.67c-.11.07-.29.22-.33.2C146.12,70.76,145.84,70.51,145.56,70.26Zm-.68-54.5s.16-.15.31-.29c.17.29.31.52.44.76-.12,0-.3.12-.35.08A2.42,2.42,0,0,1,144.88,15.76Zm-2.33,10.59a4.2,4.2,0,0,1,.52-.4c.06.2.14.35.11.38a3.76,3.76,0,0,1-.47.3C142.65,26.53,142.53,26.38,142.55,26.35Zm-.24-5.2c0-.06.06-.21.16-.48.18.25.32.36.35.5s-.07.23-.12.35A2,2,0,0,1,142.31,21.15Zm-2.69,50.2.23-.26.58.46c-.13,0-.28.12-.4.08A1.5,1.5,0,0,1,139.62,71.35Zm-1-52.77-.57.42a9.53,9.53,0,0,1-.62-1.29c0-.12.25-.35.39-.52C138.1,17.63,138.35,18.07,138.64,18.58Zm-.39,60.81a1.45,1.45,0,0,1-.26.42c-.08-.11-.19-.21-.21-.32s.06-.24.11-.43C138.06,79.2,138.26,79.31,138.25,79.39Zm-1,5.2c.31,0,.47-.1.57,0a1.48,1.48,0,0,1,.38.33c-.12,0-.27.14-.37.11A2.5,2.5,0,0,1,137.21,84.59Zm-.3-24.7a.88.88,0,0,1-.26-.41s.21-.13.41-.25a2.26,2.26,0,0,1,.21.52S137,59.93,136.91,59.89ZM136,86.73c.12-.1.26-.3.37-.29a3,3,0,0,1,.73.34c-.3.16-.48.34-.62.31S136.14,86.86,136,86.73Zm-.21-48a2.67,2.67,0,0,1,.39-.53c.11.15.23.29.42.53l-.58.38C135.92,39,135.74,38.83,135.77,38.73Zm-1.2,36.2c.09-.05.22-.17.28-.15.25.1.49.24.75.37l-.2.29C135.12,75.28,134.84,75.1,134.57,74.93Zm-.83-31.45c-.29-.39-.6-.77-.87-1.16,0,0,.11-.18.17-.27.33.32.67.63,1,.92ZM132.27,88.6a7.34,7.34,0,0,1,.85-.57s.34.35.31.39a1.29,1.29,0,0,1-.53.42C132.79,88.88,132.6,88.73,132.27,88.6Zm-.9-5.22.4-.21.42.36c-.13,0-.27.12-.39.09A1.67,1.67,0,0,1,131.37,83.38Zm-.28-20.49c.09,0,.23,0,.25,0,.57.84,1.22.73,2,.07.06.14.16.27.13.32-.39.54-.71,1.4-1.22,1.52-.86.2-.53-.83-.83-1.26a3,3,0,0,1-.23-.38A2,2,0,0,1,131.09,62.89Zm-.87,10.7a6.45,6.45,0,0,1,.15-.86l.29,0c.07.14.22.29.19.41a5.59,5.59,0,0,1-.36.84C130.4,73.83,130.22,73.71,130.22,73.59Zm-15.81,9.8,1.11-.48c.08.13.14.23.21.33a10.94,10.94,0,0,1-1,.54S114.52,83.53,114.41,83.39Zm-.34-10a6.54,6.54,0,0,1,.46-1l.14.36c-.11.36-.21.72-.31,1.07C114.25,73.66,114,73.48,114.07,73.38ZM81.93,92.86l.3-.79a2.25,2.25,0,0,1,0,.52c-.07.3-.19.6-.29.9Zm-8.17,2.58s-.35.46-.4.43a5.66,5.66,0,0,1-.82-.56l.51-.58A4.71,4.71,0,0,1,73.76,95.44ZM78.4,86c-.15.07-.31.22-.44.2a.51.51,0,0,1-.27-.36c0-.12.07-.26.14-.45Zm4.06-8c-.11.11-.25.32-.33.3s-.28-.2-.47-.35c.18-.14.33-.3.38-.28A2.18,2.18,0,0,1,82.46,78Zm4.79-13.8a4.65,4.65,0,0,1-.42.57c-.08-.15-.26-.34-.21-.44a2.86,2.86,0,0,1,.59-.64C87.24,64,87.3,64.14,87.25,64.22ZM87.93,89c0,.06-.25.4-.28.38a7,7,0,0,1-.79-.45l-.21-.43c.23-.07.54-.28.68-.2A1.72,1.72,0,0,1,87.93,89Zm.62-4.22c0,.17-.08.42-.18.45s-.35-.09-.69-.2a2.91,2.91,0,0,1,.54-.39C88.31,84.59,88.56,84.72,88.55,84.76Zm1.88.39a9.27,9.27,0,0,1,1.26,1.18c.06.08-.45.53-.7.8-.27-.46-.55-.93-.79-1.41C90.16,85.63,90.3,85.45,90.43,85.15Zm1.82-25.52a10.85,10.85,0,0,1-.81,1.27l-.53-.4,1-1.45C92.05,59.24,92.31,59.5,92.25,59.63Zm4.86-8.26c-.13.1-.29.3-.4.29a2.17,2.17,0,0,1-.57-.32l.29-.41Zm2.08,29.95a3.28,3.28,0,0,1-.41.66c-.17-.14-.5-.33-.47-.42a2.88,2.88,0,0,1,.54-.74C99,81.05,99.22,81.22,99.19,81.32ZM102,68.19l-.21.48-1-.65.33-.43Zm2.46-17.75a4.3,4.3,0,0,1-1,.32c-.12,0-.37-.28-.4-.46a4.86,4.86,0,0,1,0-1l-.2-.09.55-.93c.12.29.22.59.37.87s.3.49.44.75S104.37,50.26,104.46,50.44Zm1.63-10.52a2.87,2.87,0,0,1-.44.55l-.57-.62a2.59,2.59,0,0,1,.7-.25C105.88,39.6,106.12,39.87,106.09,39.92Zm0,53.44c-.15.08-.35.25-.45.21a1.24,1.24,0,0,1-.53-.43s.17-.26.31-.46Zm1-7.77c0,.08,0,.23-.07.36l-.88-.82s.07-.14.24-.44C106.68,85.08,106.91,85.32,107.08,85.59Zm4.45-40.94c0,.11-.21.24-.32.36a2.13,2.13,0,0,1-.27-.42c0-.09.09-.21.19-.41C111.31,44.39,111.51,44.51,111.53,44.65Zm1.66,23.95s-.16.24-.19.23a3.51,3.51,0,0,1-.6-.33,2.23,2.23,0,0,1,.22-.4A6.14,6.14,0,0,1,113.19,68.6Zm.89-17.28a3.66,3.66,0,0,1,.47-.87.4.4,0,0,1,.39-.1c.1,0,.14.23.19.33-.43.85-.84,1.67-1.27,2.47,0,0-.19,0-.29,0l0-.17C113.76,52.44,113.89,51.87,114.08,51.32Zm2.82-18.69a3.39,3.39,0,0,0-.43.11c-.75.26-1.43.57-1.26,1.51,0,.21,0,.42,0,.63-.14-.17-.28-.35-.41-.53s-.27-.42-.4-.62c-.5-.72-.29-1.29.57-1.36a8.36,8.36,0,0,1,1.64.16A.77.77,0,0,1,116.9,32.63Zm.34,10.23c0,.06-.07.16-.11.24-.16-.35-.34-.7-.48-1.06,0-.09,0-.22.1-.65C117,42.08,117.12,42.47,117.24,42.86Zm2.13,43.21a3.65,3.65,0,0,1-.62.56s-.23-.1-.47-.21l.87-.64C119.23,85.88,119.39,86.05,119.37,86.07Zm5.49-50.84-.46.3a3.58,3.58,0,0,1-.29-.46s.22-.21.27-.18A2.4,2.4,0,0,1,124.86,35.23Zm1.3,27.94c-.1.08-.24.24-.27.22a6.24,6.24,0,0,1-.68-.46l.34-.2Zm1.35-37.86c-.33.1-.56.25-.71.2s-.31-.31-.47-.47c.16-.11.3-.29.47-.32S127.06,24.92,127.51,25.31Zm.88,6.21c0,.13-.1.3-.16.46a8.42,8.42,0,0,1-.52-.8c0-.06.12-.21.26-.46A4.19,4.19,0,0,1,128.39,31.52Z"/><path class="cls-2" d="M60.91,95.78,127.36,7.67c6.92-9.29,14.9-9.19,21.81.1l67.38,88"/></g></g></svg>