<svg xmlns="http://www.w3.org/2000/svg" xmlns:xlink="http://www.w3.org/1999/xlink" viewBox="0 0 124.15 69.79"><defs><style>.cls-1{fill:url(#未命名漸層_9);}.cls-2{fill:none;stroke:#5e6472;stroke-linecap:round;stroke-linejoin:round;stroke-width:1.5px;}.cls-3{fill:url(#未命名漸層_9-2);}</style><linearGradient id="未命名漸層_9" x1="-5862.06" y1="61.74" x2="-5862.06" y2="-1.08" gradientTransform="translate(5911.43)" gradientUnits="userSpaceOnUse"><stop offset="0" stop-color="#b1d660"/><stop offset="1" stop-color="#00a878"/></linearGradient><linearGradient id="未命名漸層_9-2" x1="-5824.09" y1="70.24" x2="-5824.09" y2="23.89" xlink:href="#未命名漸層_9"/></defs><g id="圖層_2" data-name="圖層 2"><g id="圖層_1-2" data-name="圖層 1"><path class="cls-1" d="M42.85,5.37l-42.1,55h19a1.38,1.38,0,0,0,.11-.24c.06.1.12.17.17.24H44.46l-.13-.15a.63.63,0,0,1,.23-.08.93.93,0,0,1,.22.13l-.14.1h5.47a.59.59,0,0,1-.12-.2s.08-.13.19-.27a1.4,1.4,0,0,1,.14.38.14.14,0,0,1,0,.09H98L62.16,12.86l-.18.29L61.79,13l-.2-.11.41-.26L56.47,5.31C52.15-.49,47.17-.43,42.85,5.37ZM54.33,24l.32.49-.27.48a1.51,1.51,0,0,1-.25-.51C54.12,24.34,54.26,24.18,54.33,24Zm-2.33-5,.56.42c-.06.05-.14.14-.19.12a3.58,3.58,0,0,1-.55-.19Zm-8.74-8.8c.07.15.13.31.24.55l-.37.47c-.07-.09-.21-.19-.19-.26A7.19,7.19,0,0,1,43.26,10.28ZM42.9,30.9a3.55,3.55,0,0,1,.64.17l-.25.33-.32.23a2.65,2.65,0,0,1-.32-.5S42.82,30.89,42.9,30.9Zm-.5-17.32.16.06c-.11.09-.22.18-.34.26s-.09,0-.14-.07Zm-5.75,21.5a1.86,1.86,0,0,1-.33.68l-.17,0c0-.25-.11-.51-.14-.77,0-.06.05-.14.08-.21C36.29,34.86,36.66,35,36.65,35.08Zm-14,3.33a1.41,1.41,0,0,1,.32.24c-.06,0-.13.14-.16.13a2.62,2.62,0,0,1-.42-.2C22.49,38.5,22.59,38.39,22.63,38.41Zm-5.72,5.11.38.43c-.06,0-.15.12-.17.1a4.49,4.49,0,0,1-.39-.36ZM3.67,57.64s-.13-.14-.2-.21a1.46,1.46,0,0,1,.35-.22c.08,0,.2,0,.45.13A4.64,4.64,0,0,1,3.67,57.64ZM10.9,55.9c-.05,0-.4-.3-.37-.38a2.94,2.94,0,0,1,.51-.69l.75.49A8.47,8.47,0,0,1,10.9,55.9ZM14,45.55a2.08,2.08,0,0,1-.53-.23c.06-.08.13-.15.21-.24l.7.3C14.27,45.44,14.13,45.57,14,45.55Zm1-3.36c-.05,0-.12-.09-.21-.16a2,2,0,0,0,.16-.22.92.92,0,0,1,.22.22S15.07,42.18,15,42.19ZM16.3,53c-.07,0-.12-.16-.18-.25s.14-.12.19-.11a1.61,1.61,0,0,1,.37.19C16.5,52.94,16.39,53,16.3,53Zm.1-1.62.6-.34.57.39a1.72,1.72,0,0,1-.56.17A2,2,0,0,1,16.4,51.41Zm1.13,8.78c-.08,0-.16-.08-.24-.12l.36-.28.27.3A1.4,1.4,0,0,1,17.53,60.19ZM19.39,43.9a1.69,1.69,0,0,1-.18.45,1.39,1.39,0,0,1-.24-.49c0-.46,0-.92.07-1.39,0,0,.12-.11.13-.1s.14.11.15.17c0,.24,0,.49,0,.54A6.07,6.07,0,0,1,19.39,43.9Zm.41-3.17-.33-.36c.06,0,.15-.12.17-.1a2.37,2.37,0,0,1,.34.29Zm1.13-2.25a1.21,1.21,0,0,1-.11-.3s.11-.1.17-.15l.12.26ZM22,42.18a5.63,5.63,0,0,1,.17-.68c0-.09.15-.16.3-.32,0,.18.07.27.05.32a5.82,5.82,0,0,1-.34.6S22.05,42.16,22,42.18Zm.79,15.38s-.07.09-.1.14-.13-.1-.15-.16a1.56,1.56,0,0,1-.17-.5c0-.34,0-.68,0-1a.45.45,0,0,1,.16,0c.11.28.2.56.29.84a3.16,3.16,0,0,1,0,.46S22.8,57.41,22.78,57.56Zm-.2-12.51c-.07,0-.2-.19-.3-.29a1.8,1.8,0,0,1,.38-.21c.11,0,.25.07.5.14A2.7,2.7,0,0,1,22.58,45.05Zm2.81,1.61s-.1-.06-.1-.07l.51-.76L26,46l.11.1C25.86,46.3,25.63,46.49,25.39,46.66Zm2.06,13-.31-.2.09-.11.29.23S27.46,59.69,27.45,59.68Zm.82-8.75c-.4-.07-.79-.15-1.18-.25-.06,0-.11-.18-.1-.28s.13-.09.18-.12l.22,0,.95.46S28.29,50.93,28.27,50.93Zm0-16.19L28,34.29l.39-.56c.12.16.37.35.34.47S28.42,34.56,28.26,34.74Zm.22-7.49s-.1-.11-.15-.17l.67-.43c0,.1.07.2.05.22A4.35,4.35,0,0,1,28.48,27.25Zm1.92,24a10.25,10.25,0,0,1-1,.54s-.09-.07-.14-.12l1-.81C30.34,51.05,30.43,51.24,30.4,51.26Zm.46-8.71c-.22.29-.44.57-.67.85,0,0-.1,0-.17-.08.16-.16.27-.27.37-.39s.32-.36.48-.54C30.87,42.44,30.89,42.52,30.86,42.55ZM30.7,25.27c.06-.06.15-.16.17-.15s.28.19.47.32c-.13.08-.23.16-.25.14S30.83,25.37,30.7,25.27Zm1.06,3.9a.72.72,0,0,1-.18-.21l-.39-.82.12-.05L32,29.18A.5.5,0,0,1,31.76,29.17Zm1,18.59a1.54,1.54,0,0,1-.21.29c0-.11,0-.22,0-.33a2.29,2.29,0,0,1,.07-.28l.15,0A.88.88,0,0,1,32.72,47.76ZM33.36,22A2.11,2.11,0,0,1,33,21.8l.15-.08.51.2A.76.76,0,0,1,33.36,22Zm1,26c-.06-.06-.15-.12-.16-.18a1.49,1.49,0,0,1,.08-.46,1.5,1.5,0,0,1,.17.4C34.47,47.79,34.4,47.87,34.37,48ZM35.93,27s.1.1.16.15a5.25,5.25,0,0,1-.49.33s-.13-.09-.26-.19A5.27,5.27,0,0,1,35.93,27Zm-.46,28c0-.05-.07-.11-.06-.15.11-.26.23-.53.35-.79l.1.2Zm.73-2.47c-.11,0-.23,0-.34.06l0-.1c.21,0,.4-.12.61-.16a.55.55,0,0,1,.27.06Zm.67-38.32a1.19,1.19,0,0,1-.1-.32,1.57,1.57,0,0,1,0-.37H37c0,.09.11.2.09.28A2.21,2.21,0,0,1,36.87,14.23Zm1,42c-.06-.08-.16-.16-.17-.25s.09-.17.19-.36c.11.19.22.29.2.36S38,56.12,37.9,56.21Zm.53-35.67c-.16-.17-.33-.33-.48-.52,0,0,.06-.14.16-.34a5.57,5.57,0,0,1,.54.6S38.51,20.45,38.43,20.54Zm.87-3.62c0-.08.16-.2.32-.39a1.92,1.92,0,0,1,.18.56c0,.1-.16.2-.24.29A1.64,1.64,0,0,1,39.3,16.92Zm.39,6.44.66-.06.56.25a5.46,5.46,0,0,1-.8.05C40,23.59,39.83,23.44,39.69,23.36ZM41,31.82c-.24.05-.48.08-.73.11l0-.09a1,1,0,0,1,.21-.09l.72-.09C41.1,31.72,41.05,31.81,41,31.82ZM41,8.54l.87-.24c0,.06.13.18.12.2-.17.16-.34.37-.54.41S41.17,8.68,41,8.54Zm1,8.65a1.27,1.27,0,0,1-.32-.15l.17-.26.34.25C42.16,17.09,42.09,17.19,42,17.19Zm1.61,30.68c-.11,0-.27-.06-.3-.13-.15-.34-.37-.39-.68-.21a2.85,2.85,0,0,1-.3.16c0-.11.06-.29.14-.31a1.62,1.62,0,0,1,.72-.08,2,2,0,0,1,.58.35C43.72,47.78,43.67,47.87,43.65,47.87Zm.19-30.78a1,1,0,0,1,.14-.22c.23.18.42.33.62.47-.06.05-.16.16-.18.14C44.22,17.36,44,17.23,43.84,17.09Zm.73,27.54s-.14-.08-.21-.12l.59-.42.16.09Zm.71-34.16s-.15,0-.22-.05.17-.29.28-.47c.09.08.2.16.19.18A1.66,1.66,0,0,1,45.28,10.47Zm1.6,6.45a2.4,2.4,0,0,1-.29-.19s0-.11.07-.23a1.62,1.62,0,0,1,.32.25S46.92,16.86,46.88,16.92Zm0-3.19c0-.08-.09-.16-.08-.22A1.31,1.31,0,0,1,47,13.2c.06.17.12.26.1.3A1.39,1.39,0,0,1,46.89,13.73ZM48.56,45c-.07,0-.17,0-.25,0l.36-.3.14.17A1.05,1.05,0,0,1,48.56,45Zm1.37-34c.09.11.27.25.24.33a5.36,5.36,0,0,1-.39.8l-.35-.26Zm0,38.66A.67.67,0,0,1,50,50c0,.07-.09.13-.14.19a1,1,0,0,1-.16-.26C49.67,49.83,49.79,49.77,49.89,49.68Zm.07,3.7c-.06,0-.16-.05-.23-.07A.69.69,0,0,1,50,53.1c.06,0,.15,0,.35,0A1.68,1.68,0,0,1,50,53.38Zm.32-15.77a2,2,0,0,1,.14-.33c.12.08.26.14.25.16a.5.5,0,0,1-.16.26S50.28,37.64,50.28,37.61Zm.51,17.09c-.09,0-.2-.1-.39-.2a1.92,1.92,0,0,1,.46-.21c.06,0,.15.11.23.18C51,54.55,50.9,54.67,50.79,54.7Zm.29-30-.37-.24.27-.33a1.85,1.85,0,0,1,.24.33C51.24,24.54,51.13,24.64,51.08,24.72Zm.38,22.69a1.87,1.87,0,0,1-.13-.17A3.48,3.48,0,0,1,51.8,47s.11.06.17.1Zm.86-20.28.61-.57c0,.05.12.14.11.16-.18.25-.37.49-.55.73C52.45,27.38,52.41,27.31,52.32,27.13ZM53,55.79a.82.82,0,0,1-.34-.27s.18-.25.2-.24a5.61,5.61,0,0,1,.53.36C53.2,55.72,53.08,55.81,53,55.79Zm.68-3.26a.77.77,0,0,1-.24-.06l.26-.23.25.13A1.07,1.07,0,0,1,53.7,52.53Zm.39-12.8A1,1,0,0,1,54,40c-.19.27,0,.92-.52.79-.32-.07-.52-.61-.76-.95,0,0,0-.11.08-.2.48.41.88.48,1.24,0,0,0,.1,0,.15,0A.38.38,0,0,1,54.09,39.73Zm.43,6.75A2.62,2.62,0,0,1,54.3,46c0-.07.07-.17.11-.26l.18,0a3.41,3.41,0,0,1,.1.54C54.69,46.33,54.58,46.41,54.52,46.48Zm9.85,6.15c-.21-.1-.42-.22-.63-.34,0-.06.08-.13.14-.21l.69.3C64.5,52.47,64.39,52.64,64.37,52.63Zm.23-6.24c-.06-.22-.13-.44-.2-.67a2.18,2.18,0,0,0,.09-.23,5.24,5.24,0,0,1,.29.64C64.8,46.19,64.66,46.3,64.6,46.39Zm20.26,12.3c-.06-.19-.14-.37-.18-.56a1.15,1.15,0,0,1,0-.32l.19.49Zm5.55.77.32.37a4.2,4.2,0,0,1-.51.35s-.28-.24-.26-.27A3.78,3.78,0,0,1,90.41,59.46Zm-3-5.8c0,.12.11.2.09.28a.35.35,0,0,1-.17.22c-.08,0-.18-.08-.27-.12Zm-2.63-4.84s.12.09.24.17c-.12.1-.2.2-.3.22s-.13-.12-.2-.18A1.71,1.71,0,0,1,84.79,48.82Zm-3.23-8.74a2,2,0,0,1,.37.41c0,.06-.08.18-.13.27a4,4,0,0,1-.26-.35C81.51,40.35,81.54,40.27,81.56,40.08Zm-.07,15.36c.08,0,.28.08.42.12l-.13.27a3.53,3.53,0,0,1-.5.28s-.2-.2-.17-.24A1.05,1.05,0,0,1,81.49,55.44Zm-.56-2.29c.1,0,.17.12.34.25-.22.06-.34.15-.43.12s-.1-.18-.12-.28A.29.29,0,0,1,80.93,53.15Zm-1.24.69c-.15.3-.32.59-.49.88-.16-.17-.47-.45-.44-.5a5.84,5.84,0,0,1,.79-.74C79.63,53.67,79.72,53.78,79.69,53.84ZM78.6,37.17l.65.91-.33.25a5.16,5.16,0,0,1-.51-.8C78.37,37.46,78.53,37.29,78.6,37.17ZM75.8,32.1l.18.26a1.21,1.21,0,0,1-.35.19c-.07,0-.17-.11-.26-.17ZM74.29,50.78a1.91,1.91,0,0,1,.34.46s-.19.17-.3.26a2,2,0,0,1-.25-.41C74.06,51,74.19,50.92,74.29,50.78Zm-1.45-8.27.2.27-.59.41-.13-.31Zm-1.9-11.06c.09-.16.2-.31.28-.47a5.15,5.15,0,0,0,.23-.54l.35.58-.13.06a3.32,3.32,0,0,1,0,.63c0,.11-.17.3-.25.29a2.8,2.8,0,0,1-.62-.2A3.68,3.68,0,0,1,70.94,31.45ZM70,25a1.65,1.65,0,0,1,.43.16l-.35.39a2.68,2.68,0,0,1-.27-.34S69.89,25,70,25Zm.22,33.17c.09.12.22.25.19.28a.72.72,0,0,1-.33.27c-.06,0-.18-.08-.28-.13Zm-.59-5a2.12,2.12,0,0,1,.15.28l-.55.51c0-.08-.08-.18,0-.22S69.4,53.43,69.59,53.19Zm-3-25.31c.06.13.13.21.11.26a1,1,0,0,1-.16.26c-.08-.07-.21-.15-.2-.22S66.5,28,66.62,27.88Zm-.94,15a1.5,1.5,0,0,1,.14.25,1.65,1.65,0,0,1-.37.2s-.13-.13-.12-.14S65.54,43,65.68,42.83Zm-.61-9.43s0,.07,0,.1-.16,0-.18,0c-.27-.5-.52-1-.79-1.54,0-.07,0-.18.12-.21a.26.26,0,0,1,.24.06,2,2,0,0,1,.29.54C64.89,32.69,65,33,65.07,33.4Zm-1.9-12.8a5.09,5.09,0,0,1,1-.09c.54,0,.67.4.36.85-.09.12-.16.26-.25.38s-.17.23-.26.34c0-.13,0-.27,0-.4.12-.59-.31-.78-.78-.94L63,20.67A.46.46,0,0,1,63.17,20.6Zm-.07,5.54c0,.27.09.35.07.4-.09.23-.2.45-.3.67,0-.05-.08-.11-.07-.15C62.87,26.81,63,26.57,63.1,26.14ZM61.61,53.87l.54.4c-.15.07-.26.16-.29.14a2.63,2.63,0,0,1-.39-.35S61.56,53.94,61.61,53.87ZM58.34,22.08s.17.1.16.11a1.08,1.08,0,0,1-.18.29L58,22.3A1.26,1.26,0,0,1,58.34,22.08Zm-.73,17.39.21.13c-.14.1-.27.2-.42.29s-.11-.09-.17-.14Zm-.78-23.74c.1,0,.19.13.29.2-.1.1-.18.25-.29.29s-.24-.06-.45-.13C56.67,15.85,56.76,15.72,56.83,15.73Zm-.74,3.75c.09.15.18.24.16.28a3.27,3.27,0,0,1-.32.5c0-.09-.12-.2-.1-.28A2.42,2.42,0,0,1,56.09,19.48Z"/><path class="cls-2" d="M98,60.12l-41.52-55c-4.32-5.8-9.3-5.74-13.62.07l-42.1,55"/><path class="cls-3" d="M82.36,28.65,63.84,52.85a2,2,0,0,0,.31.13.85.85,0,0,1-.09.14,1.3,1.3,0,0,0-.37-.08L51.63,68.8c.13.17.25.31.35.42h4.23a1.42,1.42,0,0,0,.11-.16c.06.06.11.12.16.16h45.16l0,0,.12,0h21.26L92.42,28.6C89.23,24.32,85.55,24.37,82.36,28.65ZM55.93,64.57s-.11-.09-.16-.14l.34-.22a1.72,1.72,0,0,0,.13.18A1.39,1.39,0,0,1,55.93,64.57ZM72.27,57a2.23,2.23,0,0,1,.4-.31c.06.19.15.36.12.38a1.92,1.92,0,0,1-.41.19C72.34,57.12,72.24,57,72.27,57Zm-3.46-6.34c0-.06.18-.06.24-.12s.23-.32.35-.48l.2.63c0,.24,0,.46-.12.58a1.12,1.12,0,0,1-.56.29s-.24-.23-.25-.36A1.17,1.17,0,0,1,68.81,50.61ZM56.62,67.43s-.14-.08-.21-.12c.12-.16.25-.31.41-.51.08.1.17.19.16.21A3.62,3.62,0,0,1,56.62,67.43ZM61.75,65l-.38-.4a2.57,2.57,0,0,1,.52-.21c.06,0,.23.2.21.23A2.5,2.5,0,0,1,61.75,65Zm1.79-2.53s-.11-.1-.24-.21l1-.44.11.21A9.27,9.27,0,0,1,63.54,62.49Zm4.84-9.91c-.64-.42-.76,0-.87.46a3.66,3.66,0,0,1-.18.46v0h0a2.13,2.13,0,0,1-.61.29c-.14,0-.32-.11-.47-.18s0-.16,0-.16h.44l.62,0h0l0,0c0-.22,0-.45,0-.67,0-.72.47-.92,1.14-.53a.88.88,0,0,1,.19.26C68.59,52.57,68.45,52.63,68.38,52.58ZM68.51,59a3.2,3.2,0,0,1,.51-.63c.18.21.39.41.37.44a5,5,0,0,1-.59.54C68.7,59.22,68.48,59.05,68.51,59Zm.94,8.53c-.16-.06-.3-.15-.47-.23l.16-.27.48.33C69.56,67.41,69.48,67.53,69.45,67.52Zm1.23-6.6s-.19-.18-.17-.25.17-.14.31-.24l.21.28A1.25,1.25,0,0,1,70.68,60.92Zm1.76,5.49a.38.38,0,0,1-.19-.27c0-.06.15-.13.3-.24.1.19.15.31.2.42S72.52,66.44,72.44,66.41Zm.35-7.67c-.08-.06-.1-.19-.14-.28l.29-.11.13.32C73,58.7,72.84,58.77,72.79,58.74ZM73.14,50a2.18,2.18,0,0,1-.64-.18c.33-.19.49-.34.67-.36s.24.17.36.27C73.4,49.77,73.28,49.92,73.14,50Zm1.3-2.85c.2-.08.4-.16.6-.22,0,0,.12.09.11.11a5.62,5.62,0,0,1-.35.5s-.13-.05-.21-.07ZM75,64.47c-.07-.19-.14-.37-.2-.55s.06-.13.09-.19l.32.38Zm.1-7.52a1.61,1.61,0,0,1-.35-.12s0-.12.08-.12h.43l.07.15C75.2,56.89,75.12,57,75.05,57Zm3.15-9.51a1.63,1.63,0,0,1-.24-.12l.47-.48c.06.06.16.15.15.17A3.08,3.08,0,0,1,78.2,47.44Zm1.33-11.91c-.06,0-.17-.06-.17-.09,0-.2,0-.39.08-.67.13.14.23.21.22.27A3,3,0,0,1,79.53,35.53Zm.87,20.31c-.07.16-.16.31-.24.46-.06-.08-.17-.19-.15-.24a3.11,3.11,0,0,1,.35-.54C80.39,55.71,80.42,55.79,80.4,55.84Zm.5-17.58a5.46,5.46,0,0,1,.37-.66c.17.2.36.36.34.39a2.05,2.05,0,0,1-.47.46S80.89,38.29,80.9,38.26Zm.71,2.19s-.17-.09-.33-.18l.33-.36c.08.07.25.16.24.21A.85.85,0,0,1,81.61,40.45Zm-.25-4.84-.17-.12c-.08-.1-.16-.19-.23-.29.24-.11.49-.23.74-.32,0,0,.17.15.16.16A5.37,5.37,0,0,1,81.36,35.61ZM90,38.27a3.15,3.15,0,0,1,.3.5c0,.06-.11.17-.17.26-.11-.14-.23-.27-.33-.39ZM90.27,51c0,.06-.14.14-.22.21a1.17,1.17,0,0,1-.17-.28s.07-.13.14-.24C90.14,50.79,90.26,50.87,90.27,51ZM83.44,65.05s-.3-.25-.28-.28a3.72,3.72,0,0,1,.49-.52,3,3,0,0,1,.3.35A2.42,2.42,0,0,1,83.44,65.05ZM84.6,55a3.06,3.06,0,0,1-.33.47c-.06-.09-.15-.18-.15-.27a1.73,1.73,0,0,1,.14-.42l.21-.09C84.52,54.83,84.63,55,84.6,55ZM86,58.74l-.08-.06.3-.43.12.09Zm.34-3.56L85.8,55c.09-.05.19-.16.27-.14.28.06.56.17.84.26Zm1-12.06c-.13,0-.37-.12-.37-.21s.13-.28.24-.5c.19.18.35.28.4.42S87.36,43.11,87.25,43.12Zm1.19,21.49L87.7,64c.24-.1.44-.24.51-.19a1.24,1.24,0,0,1,.4.48C88.64,64.35,88.5,64.5,88.44,64.61Zm1.83.15c-.1,0-.23-.07-.46-.15a1.63,1.63,0,0,1,.4-.19,1,1,0,0,1,.31.11C90.44,64.61,90.36,64.74,90.27,64.76Zm.57-3.15c-1,.17-1.32-.7-1.89-1.15-.14-.11.07-.73.25-1.05s.48-.45.73-.67c0,0,.14.12.13.17s-.06.3-.14.32c-.67.18-.88.58-.59,1.16a1.72,1.72,0,0,0,1.72,1s0,0,0,0h0l.13.14A1.4,1.4,0,0,1,90.84,61.61Zm30,5.22.22.11a2.56,2.56,0,0,1,.1.54c0,.07-.11.15-.17.22a1.73,1.73,0,0,1-.34-.49C120.62,67.11,120.77,67,120.84,66.83Zm-2.25-1.7c0,.13.07.27.09.37l0,.19c0-.15-.1-.31-.14-.47S118.56,65.16,118.59,65.13Zm-1.42-2.43a2.19,2.19,0,0,1,.12.49c0,.1-.12.18-.18.27a1.22,1.22,0,0,1-.22-.38C116.88,63,117,62.91,117.17,62.7Zm-3,5.9s.11.07.17.11l-.25.29c-.07-.09-.16-.18-.14-.2A.53.53,0,0,1,114.2,68.6Zm-2.92-11.78.3.22c0,.05-.11.15-.15.15s-.22-.09-.34-.13Zm-1.34-2.08c.1.26.18.45.24.65,0,0-.08.12-.12.18l-.72-.47Zm-1.35,8.37.14,0c.09.2.19.39.26.59a.91.91,0,0,1,0,.33,4.84,4.84,0,0,1-.42-.5C108.54,63.41,108.59,63.25,108.59,63.11Zm-2-9.23c0,.08-.1.22-.16.34-.07-.08-.17-.15-.2-.24a4,4,0,0,1-.09-.63C106.39,53.6,106.55,53.72,106.61,53.88Zm-1.41,8.33c-.21-.15-.4-.31-.59-.47.06,0,.15-.12.19-.1a7.17,7.17,0,0,1,.64.36A2.84,2.84,0,0,1,105.2,62.21Zm-.62-13.92c.09,0,.26.05.59.13-.41.22-.65.35-.89.46,0,0-.12-.11-.19-.17A2.79,2.79,0,0,1,104.58,48.29Zm-1.18,14a.3.3,0,0,1-.19-.23c0-.05.11-.13.2-.23l.31.34C103.61,62.18,103.5,62.26,103.4,62.25Zm-.27-16.87c.12,0,.22.1.41.21-.23.11-.32.2-.37.18a1.42,1.42,0,0,1-.28-.22C103,45.49,103.06,45.37,103.13,45.38ZM102,50.12a2.45,2.45,0,0,1,.29.6c0,.11-.13.23-.19.35a3.13,3.13,0,0,1-.25-.48C101.86,50.51,101.94,50.4,102,50.12Zm-.9-6.11.2.05c0,.09.1.19.07.25-.16.28-.34.55-.52.82-.06-.15-.22-.33-.18-.45A3.46,3.46,0,0,1,101.13,44Zm-.57,17.76s0,.06,0,.12-.14.14-.19.12a2.58,2.58,0,0,1-.41-.2l-.6-.29c.09,0,.18-.09.25-.07C99.93,61.54,100.24,61.66,100.56,61.77Zm-1.21-13c.06.11.15.24.13.26a2.43,2.43,0,0,1-.49.35s-.15-.12-.23-.19Zm-1.47,4.67a2.77,2.77,0,0,1,.35.58c0,.07-.17.24-.19.23a1.16,1.16,0,0,1-.43-.31C97.57,53.87,97.73,53.69,97.88,53.43Zm-1.62-3.78c-.21,0-.51,0-.59-.15a2.25,2.25,0,0,1-.22-.8s0-.09.08-.13l1.18.89C96.46,49.57,96.36,49.66,96.26,49.65Zm-.68-12.4a3.76,3.76,0,0,1,.42-.59c.08.05.17.07.18.11,0,.28.2.65.08.83a2.54,2.54,0,0,1-.88.48A5.58,5.58,0,0,1,95.58,37.25Zm-.6,27a.81.81,0,0,1-.25-.08L95,64l.21.18A.68.68,0,0,1,95,64.26Zm-.14-7c.14.32.3.51.3.7a1.68,1.68,0,0,1-.22.57,8.61,8.61,0,0,1-.34-.89C94.56,57.57,94.69,57.47,94.84,57.25Zm-.77,4.28-.47-.3c.08,0,.16-.11.22-.1a3,3,0,0,1,.4.21Zm-.13-15.89c0,.06.15.16.14.17a2.5,2.5,0,0,1-.35.38A1.36,1.36,0,0,1,93.5,46Zm-.72-9.5a1.09,1.09,0,0,1,.26.33c-.08.05-.2.17-.25.15a2.3,2.3,0,0,1-.39-.32C93,36.22,93.17,36.11,93.22,36.14Zm-1.38,29.2s-.21-.19-.19-.23A2.68,2.68,0,0,1,92,64.7l.43.27C92.25,65.09,92.05,65.23,91.84,65.34Z"/><path class="cls-2" d="M123.4,69,92.76,28.42c-3.18-4.28-6.86-4.23-10.05,0L51.65,69"/></g></g></svg>