<svg xmlns="http://www.w3.org/2000/svg" xmlns:xlink="http://www.w3.org/1999/xlink" viewBox="0 0 124.15 69.79"><defs><style>.cls-1{fill:url(#未命名漸層_9);}.cls-2{fill:none;stroke:#5e6472;stroke-linecap:round;stroke-linejoin:round;stroke-width:1.5px;}.cls-3{fill:url(#未命名漸層_9-2);}</style><linearGradient id="未命名漸層_9" x1="-6135.12" y1="61.74" x2="-6135.12" y2="-1.08" gradientTransform="matrix(-1, 0, 0, 1, -6060.34, 0)" gradientUnits="userSpaceOnUse"><stop offset="0" stop-color="#b1d660"/><stop offset="1" stop-color="#00a878"/></linearGradient><linearGradient id="未命名漸層_9-2" x1="-6097.15" y1="70.24" x2="-6097.15" y2="23.89" xlink:href="#未命名漸層_9"/></defs><g id="圖層_2" data-name="圖層 2"><g id="圖層_1-2" data-name="圖層 1"><path class="cls-1" d="M67.68,5.31l-5.53,7.33.41.26-.2.11-.19.14L62,12.86,26.16,60.36H73.88a.14.14,0,0,1,0-.09,1.4,1.4,0,0,1,.14-.38c.11.14.21.22.19.27a.78.78,0,0,1-.11.2h5.46l-.14-.1a.93.93,0,0,1,.22-.13.63.63,0,0,1,.23.08l-.13.15H104.1c.05-.07.11-.14.17-.24,0,.1.08.18.11.24h19l-42.1-55C77-.43,72-.49,67.68,5.31ZM70,24.49a1.51,1.51,0,0,1-.25.51l-.27-.48.32-.49C69.89,24.18,70,24.34,70,24.49Zm2.31-5.06a3.58,3.58,0,0,1-.55.19s-.13-.07-.19-.12l.56-.42ZM81.21,11c0,.07-.12.17-.19.26l-.37-.47c.11-.24.17-.4.24-.55A7.19,7.19,0,0,1,81.21,11Zm.29,20.09a2.23,2.23,0,0,1-.32.5l-.32-.23-.25-.33a3.66,3.66,0,0,1,.65-.17C81.33,30.89,81.52,31.09,81.5,31.13Zm.57-17.3s-.12.08-.14.07-.23-.17-.34-.26l.16-.06Zm6,20.92c0,.07.08.15.08.21,0,.26-.1.52-.15.77l-.17,0a1.86,1.86,0,0,1-.33-.68C87.49,35,87.86,34.86,88.07,34.75Zm13.72,3.83a3.79,3.79,0,0,1-.42.2s-.11-.09-.17-.13a1.41,1.41,0,0,1,.32-.24S101.66,38.5,101.79,38.58Zm5.64,5.11c-.13.12-.26.25-.4.36s-.11-.07-.17-.1l.38-.43Zm12.45,13.65c.25-.08.37-.15.45-.13a1.46,1.46,0,0,1,.35.22c-.07.07-.16.22-.2.21A4.64,4.64,0,0,1,119.88,57.34Zm-7.52-2,.75-.49a2.94,2.94,0,0,1,.51.69c0,.08-.32.4-.37.38A9.66,9.66,0,0,1,112.36,55.32Zm-2.6-9.94.69-.3c.08.09.15.16.21.24a2.08,2.08,0,0,1-.53.23C110,45.57,109.88,45.44,109.76,45.38ZM109,42a.92.92,0,0,1,.22-.22,2,2,0,0,0,.16.22c-.08.07-.16.18-.2.16S109,42.05,109,42Zm-1.51,10.83a1.61,1.61,0,0,1,.37-.19s.13.07.19.11-.1.23-.18.25S107.65,52.94,107.47,52.86Zm-.33-1.23a1.79,1.79,0,0,1-.56-.17l.57-.39.6.34A2,2,0,0,1,107.14,51.63Zm-.9,8.46.26-.3.36.28c-.08,0-.16.13-.24.12A1.26,1.26,0,0,1,106.24,60.09Zm-1.41-17s0-.3,0-.54c0-.06.09-.12.15-.17s.13.06.13.1c0,.47.08.93.07,1.39,0,.16-.15.33-.24.49a1.69,1.69,0,0,1-.18-.45A5,5,0,0,1,104.83,43.08Zm-.66-2.52a2.37,2.37,0,0,1,.34-.29s.11.06.17.1l-.33.36ZM103,38.29l.12-.26c.06,0,.17.11.17.15a.91.91,0,0,1-.11.3ZM102,42.1a5.82,5.82,0,0,1-.34-.6s0-.14,0-.32c.15.16.27.23.3.32a5.63,5.63,0,0,1,.17.68C102.1,42.16,102,42.15,102,42.1Zm-.63,15.19a1.85,1.85,0,0,1,0-.46c.08-.28.18-.56.28-.84a.45.45,0,0,1,.16,0c0,.34,0,.68,0,1a1.56,1.56,0,0,1-.17.5c0,.06-.1.11-.15.16s-.09-.09-.1-.14S101.35,57.25,101.35,57.29ZM101,44.69c.24-.07.38-.16.49-.14a1.8,1.8,0,0,1,.38.21c-.1.1-.23.3-.29.29A2.29,2.29,0,0,1,101,44.69Zm-3,1.43.11-.1.19-.19c.17.25.35.51.51.76,0,0-.09.08-.1.07C98.52,46.49,98.29,46.3,98.05,46.12ZM96.63,59.6l.29-.23.09.11a3.28,3.28,0,0,1-.31.2Zm-.82-8.81,1-.46.22,0s.18.07.18.12,0,.26-.1.28c-.39.1-.78.18-1.18.25C95.86,50.93,95.81,50.79,95.81,50.79ZM95.45,34.2c0-.12.22-.31.34-.47l.39.56-.29.45C95.74,34.56,95.5,34.4,95.45,34.2Zm-.34-7.33s0-.12,0-.22l.67.43c0,.06-.14.18-.15.17A3.67,3.67,0,0,1,95.11,26.87Zm-1.24,24,1,.81c-.05,0-.12.13-.14.12a10.25,10.25,0,0,1-1-.54S93.81,51.05,93.87,50.87Zm-.59-8.48.48.54c.1.12.21.23.37.39-.07,0-.16.09-.17.08-.23-.28-.45-.56-.67-.85C93.26,42.52,93.28,42.44,93.28,42.39Zm-.22-16.81s-.12-.06-.25-.14c.19-.13.32-.24.47-.32s.11.09.17.15C93.32,25.37,93.2,25.49,93.06,25.58Zm-.86,3.6.64-1.09.12.05c-.13.28-.25.55-.39.82a.72.72,0,0,1-.18.21A.5.5,0,0,1,92.2,29.18Zm-.81,18.29.15,0a2.29,2.29,0,0,1,.07.28c0,.11,0,.22,0,.33a1.54,1.54,0,0,1-.21-.29A.88.88,0,0,1,91.39,47.47Zm-.87-25.55.5-.2.15.08a2.11,2.11,0,0,1-.38.17A.68.68,0,0,1,90.52,21.92Zm-.83,25.79a1.5,1.5,0,0,1,.17-.4,1.49,1.49,0,0,1,.08.46c0,.06-.1.12-.16.18S89.68,47.79,89.69,47.71Zm-.88-20.39c-.13.1-.24.21-.26.19a5.25,5.25,0,0,1-.49-.33c.06-.05.14-.16.16-.15A5.27,5.27,0,0,1,88.81,27.32Zm-.52,27c0-.1.08-.15.1-.2.12.26.24.53.35.79,0,0,0,.1-.06.15Zm-.86-1.87a.55.55,0,0,1,.27-.06c.21,0,.41.11.61.16l0,.1a3.23,3.23,0,0,1-.33-.06Zm-.33-38.6c0-.08.06-.19.1-.28h.13a1.57,1.57,0,0,1,0,.37,1.19,1.19,0,0,1-.1.32A2.21,2.21,0,0,1,87.1,13.81ZM86,56c0-.07.09-.17.2-.36.11.19.2.28.19.36s-.11.17-.17.25C86.17,56.12,86.06,56.05,86,56ZM85.5,20.28a6.94,6.94,0,0,1,.54-.6c.1.2.18.31.16.34-.15.19-.32.35-.48.52C85.64,20.45,85.48,20.31,85.5,20.28Zm-.91-2.9c-.08-.09-.24-.19-.24-.29a1.92,1.92,0,0,1,.18-.56c.16.19.34.31.32.39A1.42,1.42,0,0,1,84.59,17.38ZM84,23.6a5.46,5.46,0,0,1-.8-.05l.56-.25.66.06C84.32,23.44,84.19,23.59,84,23.6ZM83,31.66l.72.09a1,1,0,0,1,.21.09l0,.09c-.24,0-.49-.06-.73-.11C83.1,31.81,83.05,31.72,83,31.66ZM82.68,8.91c-.2,0-.37-.25-.54-.41,0,0,.09-.14.13-.2l.86.24C83,8.68,82.79,8.94,82.68,8.91ZM81.93,17l.33-.25.17.26a1.27,1.27,0,0,1-.32.15S82,17.09,81.93,17ZM80.34,47.65a2,2,0,0,1,.58-.35,1.68,1.68,0,0,1,.73.08c.07,0,.09.2.13.31l-.3-.16c-.31-.18-.53-.13-.68.21,0,.07-.19.1-.3.13S80.43,47.78,80.34,47.65Zm-.61-30.17s-.12-.09-.18-.14c.2-.14.39-.29.62-.47a1,1,0,0,1,.14.22C80.12,17.23,79.93,17.36,79.73,17.48Zm-.68,26.7.15-.09.59.42c-.07,0-.18.14-.2.12C79.4,44.49,79.22,44.33,79.05,44.18Zm-.43-34s.1-.1.19-.18c.11.18.2.32.28.47-.07,0-.19.08-.22.05A1.66,1.66,0,0,1,78.62,10.13Zm-1.45,6.62a1.62,1.62,0,0,1,.32-.25c0,.12.09.21.07.23a1.81,1.81,0,0,1-.29.19C77.23,16.86,77.15,16.76,77.17,16.75ZM77,13.5s0-.13.09-.3a1.31,1.31,0,0,1,.23.31c0,.06,0,.14-.08.22C77.18,13.65,77.07,13.59,77,13.5ZM75.34,44.86s.09-.11.14-.17l.36.3c-.08,0-.18.07-.25,0A1.05,1.05,0,0,1,75.34,44.86Zm-.62-33-.35.26a5.36,5.36,0,0,1-.39-.8c0-.08.16-.22.24-.33Zm-.24,38a1,1,0,0,1-.16.26.62.62,0,0,1-.14-.19.67.67,0,0,1,.08-.27C74.36,49.77,74.48,49.83,74.48,49.88Zm-.65,3.25c.2,0,.29-.06.35,0a.82.82,0,0,1,.25.21c-.08,0-.18.09-.24.07A1.68,1.68,0,0,1,73.83,53.13ZM73.64,37.7a.5.5,0,0,1-.16-.26,1.84,1.84,0,0,1,.25-.16,2,2,0,0,1,.14.33S73.68,37.73,73.64,37.7Zm-.58,16.77c.08-.07.17-.19.23-.18a1.92,1.92,0,0,1,.46.21c-.19.1-.3.21-.39.2S73.16,54.55,73.06,54.47Zm-.13-30a1.85,1.85,0,0,1,.24-.33l.27.33-.37.24C73,24.64,72.91,24.54,72.93,24.48ZM72.18,47.1c.06,0,.13-.11.17-.1a3.48,3.48,0,0,1,.47.24l-.12.17Zm-.52-19.65c-.18-.24-.37-.48-.54-.73,0,0,.07-.11.1-.16l.62.57Zm-.92,28.19a5.61,5.61,0,0,1,.53-.36s.22.22.2.24a.76.76,0,0,1-.34.27C71.07,55.81,71,55.72,70.74,55.64Zm-.56-3.27.25-.13.27.23a.9.9,0,0,1-.25.06A1.07,1.07,0,0,1,70.18,52.37ZM70,39.58s.14,0,.15,0c.36.52.76.45,1.24,0,0,.09.1.17.08.2-.24.34-.44.88-.76.95-.54.13-.33-.52-.52-.79a1,1,0,0,1-.14-.24A.38.38,0,0,1,70,39.58Zm-.55,6.68a3.41,3.41,0,0,1,.1-.54l.18,0c0,.09.13.19.11.26a2.62,2.62,0,0,1-.22.52C69.57,46.41,69.46,46.33,69.46,46.26Zm-9.88,6.12.7-.3.13.21c-.21.12-.41.24-.63.34C59.76,52.64,59.65,52.47,59.58,52.38Zm-.21-6.25a5.24,5.24,0,0,1,.29-.64l.09.23c-.07.23-.13.45-.2.67C59.49,46.3,59.35,46.19,59.37,46.13ZM39.29,58.3l.19-.49a1.15,1.15,0,0,1,0,.32c0,.19-.12.37-.18.56Zm-5.1,1.61s-.22.28-.26.27a3.45,3.45,0,0,1-.5-.35l.31-.37A3.78,3.78,0,0,1,34.19,59.91ZM37.08,54c-.09,0-.19.14-.27.12a.35.35,0,0,1-.17-.22c0-.08,0-.16.09-.28C36.93,53.87,37,54,37.08,54Zm2.54-5c-.07.06-.15.19-.2.18s-.18-.12-.29-.22c.11-.08.2-.18.23-.17A1.33,1.33,0,0,1,39.62,49Zm3-8.62a4,4,0,0,1-.26.35c-.05-.09-.16-.21-.13-.27a2,2,0,0,1,.37-.41C42.61,40.27,42.64,40.35,42.61,40.41ZM43,55.87s-.16.25-.17.24a3.53,3.53,0,0,1-.5-.28l-.13-.27c.14,0,.34-.17.43-.12A1.11,1.11,0,0,1,43,55.87Zm.39-2.63c0,.1,0,.26-.12.28s-.21-.06-.42-.12a1.47,1.47,0,0,1,.33-.25A.29.29,0,0,1,43.43,53.24Zm1.17.24a5.84,5.84,0,0,1,.79.74c0,.05-.28.33-.44.5-.16-.29-.34-.58-.49-.88C44.43,53.78,44.52,53.67,44.6,53.48Zm1.14-15.95a5.16,5.16,0,0,1-.51.8l-.33-.25.65-.91C45.62,37.29,45.78,37.46,45.74,37.53Zm3-5.15c-.09.06-.18.19-.26.17a1.21,1.21,0,0,1-.35-.19l.18-.26Zm1.29,18.71a1.61,1.61,0,0,1-.25.41c-.1-.09-.31-.21-.29-.26a1.6,1.6,0,0,1,.33-.46C50,50.92,50.09,51,50.07,51.09Zm1.76-8.21-.13.31-.59-.41.2-.27ZM53.37,31.8a3.06,3.06,0,0,1-.63.2c-.07,0-.23-.18-.25-.29a3.32,3.32,0,0,1,0-.63L52.35,31l.35-.58a5.15,5.15,0,0,0,.23.54c.08.16.19.31.28.47S53.31,31.68,53.37,31.8Zm1-6.57a4.19,4.19,0,0,1-.28.34l-.35-.39a1.65,1.65,0,0,1,.43-.16C54.26,25,54.4,25.19,54.39,25.23Zm0,33.38c-.09,0-.21.16-.28.13a.72.72,0,0,1-.33-.27s.11-.16.19-.28ZM55,53.76s0,.14,0,.22l-.55-.51a2.12,2.12,0,0,1,.15-.28A6.37,6.37,0,0,1,55,53.76Zm2.77-25.58c0,.07-.12.15-.19.22a1.06,1.06,0,0,1-.17-.26c0-.05,0-.13.11-.26C57.65,28,57.77,28.09,57.78,28.18Zm1,15s-.1.15-.12.14a1.9,1.9,0,0,1-.37-.2,1.5,1.5,0,0,1,.14-.25C58.61,43,58.72,43,58.82,43.14Zm.56-10.8a2,2,0,0,1,.29-.54.28.28,0,0,1,.25-.06c.06,0,.08.14.12.21-.27.53-.53,1-.8,1.54,0,0-.12,0-.18,0s0-.07,0-.1C59.18,33,59.26,32.69,59.38,32.34Zm1.76-11.67-.27.07c-.47.16-.89.35-.78.94,0,.13,0,.27,0,.4-.09-.11-.18-.22-.26-.34s-.16-.26-.25-.38c-.31-.45-.18-.81.36-.85a5.09,5.09,0,0,1,1,.09A.46.46,0,0,1,61.14,20.67Zm.21,6.39s0,.1-.07.15c-.1-.22-.21-.44-.3-.67,0-.05,0-.13.07-.4C61.19,26.57,61.28,26.81,61.35,27.06Zm1.33,27a2.63,2.63,0,0,1-.39.35s-.14-.07-.29-.14l.55-.4C62.59,53.94,62.69,54,62.68,54.06ZM66.11,22.3l-.28.18a1.08,1.08,0,0,1-.18-.29s.13-.13.16-.11A1.26,1.26,0,0,1,66.11,22.3Zm.81,17.45s-.14.15-.17.14l-.42-.29.22-.13Zm.85-23.66c-.21.07-.35.16-.45.13s-.19-.19-.29-.29c.1-.07.19-.19.3-.2S67.49,15.85,67.77,16.09ZM68.32,20c0,.08-.07.19-.1.28a4.26,4.26,0,0,1-.32-.5s.07-.13.16-.28A2.42,2.42,0,0,1,68.32,20Z"/><path class="cls-2" d="M26.16,60.12l41.52-55C72-.73,77-.67,81.3,5.14l42.1,55"/><path class="cls-3" d="M31.74,28.6,1.1,69.22H22.36l.12,0,0,0H67.67l.17-.16a.74.74,0,0,0,.1.16h4.23c.1-.11.22-.25.35-.42L60.46,53a1.3,1.3,0,0,0-.37.08A.85.85,0,0,1,60,53a2.69,2.69,0,0,0,.32-.13L41.79,28.65C38.6,24.37,34.92,24.32,31.74,28.6ZM67.91,64.39a1.72,1.72,0,0,0,.13-.18l.34.22s-.13.15-.16.14A1.39,1.39,0,0,1,67.91,64.39ZM51.77,57.21a1.92,1.92,0,0,1-.41-.19s.06-.19.12-.38a1.92,1.92,0,0,1,.4.31S51.81,57.12,51.77,57.21Zm3.71-6.06c0,.13-.19.37-.25.36a1.12,1.12,0,0,1-.56-.29c-.1-.12-.07-.34-.12-.58l.2-.63c.12.16.22.33.35.48s.22.06.24.12A1.17,1.17,0,0,1,55.48,51.15ZM67.17,67s.08-.11.16-.21c.16.2.29.35.41.51-.07,0-.19.13-.21.12A3.62,3.62,0,0,1,67.17,67Zm-5.12-2.37s.15-.24.21-.23a2.36,2.36,0,0,1,.52.21l-.38.4A2.5,2.5,0,0,1,62.05,64.64ZM59.8,62.05a1.11,1.11,0,0,1,.1-.21l1,.44c-.13.11-.22.22-.24.21A7.89,7.89,0,0,1,59.8,62.05Zm-4.35-9.49a.88.88,0,0,1,.19-.26c.67-.39,1.1-.19,1.15.53l0,.67,0,0h0l.62,0h.44s0,.15,0,.16-.33.21-.47.18a2.13,2.13,0,0,1-.61-.29h0v0a3.66,3.66,0,0,1-.18-.46c-.11-.47-.23-.88-.87-.46C55.7,52.63,55.56,52.57,55.45,52.56Zm-.1,6.78a5,5,0,0,1-.59-.54s.19-.23.37-.44a3.2,3.2,0,0,1,.51.63C55.67,59.05,55.45,59.22,55.35,59.34Zm-.82,8L55,67l.16.27c-.17.08-.31.17-.47.23S54.59,67.41,54.53,67.35Zm-1.41-6.64.21-.28c.14.1.29.15.31.24s-.14.26-.17.25A1.25,1.25,0,0,1,53.12,60.71ZM51.4,66.32l.2-.42c.15.11.31.18.3.24a.38.38,0,0,1-.19.27C51.63,66.44,51.5,66.35,51.4,66.32Zm-.32-7.65.13-.32.29.11c0,.09-.06.22-.14.28S51.18,58.7,51.08,58.67Zm-.46-9c.12-.1.26-.29.36-.27s.34.17.67.36A2.18,2.18,0,0,1,51,50C50.87,49.92,50.75,49.77,50.62,49.68Zm-1.06-2.26c-.07,0-.2.09-.21.07A5.62,5.62,0,0,1,49,47s.09-.12.11-.11c.2.06.4.14.6.22ZM49,64.11l.32-.38c0,.06.1.14.09.19s-.13.36-.2.55Zm-.12-7.26.07-.15h.44s0,.08.07.12a1.74,1.74,0,0,1-.34.12C49,57,49,56.89,48.87,56.85ZM45.57,47s.1-.11.15-.17l.47.48a1.63,1.63,0,0,1-.24.12A3.08,3.08,0,0,1,45.57,47ZM44.49,35c0-.06.1-.13.22-.27,0,.28.07.47.08.67,0,0-.11.06-.17.09A4.43,4.43,0,0,1,44.49,35Zm-.7,20.48a3.11,3.11,0,0,1,.35.54s-.09.16-.15.24c-.08-.15-.17-.3-.24-.46S43.77,55.71,43.79,55.52ZM43,38.45a2.27,2.27,0,0,1-.47-.46s.17-.19.35-.39a6.85,6.85,0,0,1,.36.66S43,38.46,43,38.45Zm-.71,1.67s.16-.14.24-.21l.33.36c-.16.09-.3.2-.33.18A.85.85,0,0,1,42.3,40.12Zm0-5.08s.13-.17.16-.16c.25.09.5.21.75.32l-.24.29-.17.12A5.37,5.37,0,0,1,42.29,35Zm-8,3.6L34,39c-.06-.09-.19-.2-.16-.26a2.14,2.14,0,0,1,.3-.5Zm-.2,12c.07.11.15.19.14.24a1.17,1.17,0,0,1-.17.28c-.08-.07-.23-.15-.22-.21S34,50.79,34.13,50.66ZM40.2,64.6s.14-.16.3-.35a4.63,4.63,0,0,1,.5.52,1,1,0,0,1-.29.28A2.42,2.42,0,0,1,40.2,64.6Zm-.52-9.88.21.09a1.73,1.73,0,0,1,.14.42c0,.09-.09.18-.14.27a2.55,2.55,0,0,1-.34-.47C39.52,55,39.63,54.83,39.68,54.72Zm-1.82,3.62.12-.09c.1.15.21.29.3.43l-.08.06Zm-.62-3.27c.28-.09.56-.2.84-.26.08,0,.18.09.27.14l-.49.23Zm-.61-12.24c0-.14.21-.24.4-.42.12.22.25.37.24.5s-.24.22-.37.21S36.6,42.9,36.63,42.83ZM35.54,64.27a1.24,1.24,0,0,1,.4-.48c.07,0,.27.09.51.19l-.74.63C35.65,64.5,35.51,64.35,35.54,64.27Zm-1.91.26a1,1,0,0,1,.31-.11,1.63,1.63,0,0,1,.4.19c-.23.08-.36.17-.45.15S33.71,64.61,33.63,64.53ZM33,61.48l.13-.14h0s0,0,0,0a1.72,1.72,0,0,0,1.72-1c.29-.58.08-1-.59-1.16-.07,0-.12-.21-.14-.32s.08-.12.13-.17c.25.22.59.39.74.67s.38.94.24,1.05c-.57.45-.9,1.32-1.88,1.15A1.48,1.48,0,0,1,33,61.48ZM3.5,67.21a1.73,1.73,0,0,1-.34.49c-.06-.07-.17-.15-.17-.22a3.41,3.41,0,0,1,.1-.54l.22-.11C3.38,67,3.53,67.11,3.5,67.21Zm2.15-2c0,.16-.09.32-.13.47a1.24,1.24,0,0,1,0-.19c0-.1.06-.24.09-.37C5.59,65.16,5.66,65.2,5.65,65.22Zm1.61-2.14a1.22,1.22,0,0,1-.22.38c-.06-.09-.17-.17-.18-.27A2.19,2.19,0,0,1,7,62.7C7.14,62.91,7.27,63,7.26,63.08Zm2.91,5.72s-.07.11-.14.2l-.25-.29c.06,0,.14-.12.17-.11A.53.53,0,0,1,10.17,68.8Zm2.89-11.74c-.12,0-.22.1-.34.13s-.1-.1-.15-.15l.3-.22Zm1.75-2-.72.47c0-.06-.13-.13-.12-.18.06-.2.14-.39.24-.65Zm.74,8.41a4.84,4.84,0,0,1-.42.5.91.91,0,0,1,0-.33c.07-.2.17-.39.26-.59l.14,0C15.56,63.25,15.61,63.41,15.55,63.51ZM18,53.35a4,4,0,0,1-.09.63c0,.09-.13.16-.2.24-.06-.12-.19-.26-.16-.34A2.45,2.45,0,0,1,18,53.35ZM18.71,62c.24-.14.43-.26.64-.36,0,0,.13.06.19.1-.19.16-.38.32-.59.47A2.84,2.84,0,0,1,18.71,62Zm1.35-13.29c-.07.06-.16.19-.19.17-.24-.11-.48-.24-.89-.46.33-.08.5-.17.59-.13A2.79,2.79,0,0,1,20.06,48.71Zm.37,13.42.31-.34c.09.1.21.18.2.23a.3.3,0,0,1-.19.23C20.65,62.26,20.54,62.18,20.43,62.13Zm.83-16.58a1.42,1.42,0,0,1-.28.22c-.05,0-.14-.07-.37-.18a1.31,1.31,0,0,1,.41-.21C21.09,45.37,21.18,45.49,21.26,45.55Zm1,5a3.07,3.07,0,0,1-.24.48c-.07-.12-.2-.24-.2-.35a2.45,2.45,0,0,1,.29-.6C22.21,50.4,22.29,50.51,22.27,50.59Zm1.18-5.91c0,.12-.11.3-.18.45-.18-.27-.36-.54-.52-.82,0-.06,0-.16.07-.25L23,44A3.46,3.46,0,0,1,23.45,44.68Zm1.09,16.77c.07,0,.16,0,.25.07l-.6.29a2.58,2.58,0,0,1-.41.2c-.05,0-.14-.08-.19-.12s0-.12,0-.12C23.91,61.66,24.22,61.54,24.54,61.45Zm.85-12.27c-.07.07-.2.21-.22.19a2.49,2.49,0,0,1-.5-.35s.07-.15.13-.26Zm1.15,4.75a1.16,1.16,0,0,1-.43.31s-.2-.16-.19-.23a2.77,2.77,0,0,1,.35-.58C26.42,53.69,26.58,53.87,26.54,53.93Zm.9-4.47,1.18-.89s.09.09.08.13a2.25,2.25,0,0,1-.22.8c-.07.12-.38.13-.58.15S27.69,49.57,27.44,49.46Zm1.33-11.38c-.3-.15-.7-.25-.88-.48s0-.55.09-.83c0,0,.09-.06.17-.11a3.76,3.76,0,0,1,.42.59A5.58,5.58,0,0,1,28.77,38.08ZM29,64.17l.21-.18.26.19a.85.85,0,0,1-.24.08A.65.65,0,0,1,29,64.17Zm.62-6.54a8.61,8.61,0,0,1-.34.89A1.68,1.68,0,0,1,29,58a2.77,2.77,0,0,1,.3-.7C29.46,57.47,29.59,57.57,29.57,57.63Zm.36,3.71a3,3,0,0,1,.4-.21c.06,0,.15.06.22.1l-.47.3ZM30.65,46a1.36,1.36,0,0,1-.23.16,2.5,2.5,0,0,1-.35-.38s.09-.11.15-.17Zm.66-9.73a2.3,2.3,0,0,1-.39.32c-.05,0-.17-.1-.25-.15a1.09,1.09,0,0,1,.26-.33C31,36.11,31.13,36.22,31.31,36.3ZM31.7,65l.43-.27a2.68,2.68,0,0,1,.37.41s-.17.24-.19.23C32.1,65.23,31.9,65.09,31.7,65Z"/><path class="cls-2" d="M.75,69,31.39,28.42c3.19-4.28,6.86-4.23,10,0L72.5,69"/></g></g></svg>